<svg width="145" height="247" viewBox="0 0 145 247" fill="none" xmlns="http://www.w3.org/2000/svg">
<path d="M106.962 213.191L99.382 143.391L93.1871 143.07L103.84 213.181C103.865 213.297 103.915 213.407 103.986 213.502C104.057 213.597 104.148 213.676 104.252 213.733C104.585 213.924 104.959 214.033 105.343 214.052C105.727 214.071 106.109 214 106.46 213.844C106.595 213.793 106.713 213.705 106.798 213.589C106.884 213.473 106.934 213.335 106.942 213.191H106.962Z" fill="#37474F"/>
<path d="M99.382 143.391L93.1871 143.07L95.0145 155.118C96.2797 154.656 97.5053 154.092 98.6792 153.432C99.3498 153.132 99.9186 152.644 100.316 152.026L99.382 143.391Z" fill="#263238"/>
<path d="M21.7707 137.337H15.5659L5.28462 203.261C5.28729 203.406 5.3312 203.547 5.41121 203.668C5.49123 203.789 5.60404 203.885 5.73643 203.944C6.0789 204.117 6.4572 204.207 6.84087 204.207C7.22453 204.207 7.60284 204.117 7.9453 203.944C8.05382 203.891 8.14954 203.815 8.22582 203.722C8.30209 203.628 8.3571 203.519 8.38706 203.402L21.7707 137.337Z" fill="#37474F"/>
<path d="M15.5658 137.337L12.9754 153.964C14.4716 155.128 16.0951 156.118 17.8148 156.915L21.7707 137.337H15.5658Z" fill="#263238"/>
<path d="M65.5262 234.386L59.6928 163.522L53.508 163.211L62.4539 234.376C62.4791 234.494 62.5288 234.604 62.5997 234.701C62.6706 234.798 62.7612 234.879 62.8655 234.938C63.1993 235.129 63.5731 235.238 63.9568 235.257C64.3405 235.276 64.7233 235.205 65.0744 235.049C65.2108 234.998 65.3293 234.908 65.415 234.79C65.5006 234.672 65.5498 234.532 65.5563 234.386H65.5262Z" fill="#37474F"/>
<path d="M60.4458 172.779L59.6827 163.522L53.4979 163.211L54.753 173.201C56.6555 173.548 58.6152 173.403 60.4458 172.779Z" fill="#263238"/>
<path d="M55.6165 117.658H49.4016L39.1103 183.582C39.1124 183.726 39.1562 183.866 39.2364 183.986C39.3166 184.105 39.4297 184.199 39.5621 184.255C39.9031 184.433 40.282 184.526 40.6665 184.526C41.0511 184.526 41.4299 184.433 41.7709 184.255C41.88 184.206 41.9764 184.132 42.0529 184.04C42.1294 183.948 42.184 183.839 42.2127 183.723L55.6165 117.658Z" fill="#37474F"/>
<path d="M50.0341 119.315C49.7585 119.267 49.4802 119.237 49.2008 119.224L41.3693 169.165C42.5039 169.777 43.6987 170.329 44.8332 170.912L55.0944 120.389C53.4177 120.007 51.751 119.636 50.0341 119.315Z" fill="#263238"/>
<path d="M102.063 140.389C102.063 138.441 100.346 136.373 96.7113 134.004C90.0245 129.656 70.5363 118.783 61.1587 113.592C61.155 113.572 61.1453 113.554 61.131 113.539C61.1167 113.525 61.0983 113.515 61.0784 113.511C53.8695 109.134 51.6807 78.7722 46.6907 62.9386C46.5802 62.6073 46.4798 62.276 46.3694 61.9346C46.2589 61.5933 46.1887 61.4426 46.1083 61.2017C45.7871 60.3382 45.4658 59.5551 45.1043 58.8322C45.024 58.6615 44.9537 58.5008 44.8734 58.3502C44.5742 57.7126 44.239 57.0924 43.8694 56.4928L43.5882 56.0711C43.4075 55.81 43.2268 55.5791 43.0461 55.3482C42.8653 55.1173 42.8453 55.0972 42.7348 54.9767C42.5747 54.7831 42.4037 54.5988 42.2228 54.4245C42.0898 54.2828 41.949 54.1487 41.8011 54.0229C41.3879 53.639 40.9333 53.3022 40.4456 53.0189L40.1043 52.8181L40.0139 52.7679L39.8633 52.6775L38.3673 51.8442L37.9757 51.6233L37.795 51.5128L37.2629 51.2116C36.809 50.9341 36.3236 50.7116 35.8171 50.5489L35.3151 50.3883C35.1243 50.3883 34.9335 50.2979 34.7428 50.2678C32.807 50.0077 30.8371 50.2178 28.9997 50.8803C28.8463 50.9215 28.6954 50.9718 28.5479 51.0309L27.1724 51.5429C26.5599 51.7939 25.9174 52.0751 25.2748 52.3662C22.9956 53.3703 20.5559 54.7558 17.9454 56.1815L17.0217 56.7036C16.6402 56.9145 16.2787 57.1354 15.9173 57.3562L15.2245 57.788C14.6422 58.1595 14.0698 58.551 13.5176 58.9627C13.2465 59.1635 12.9654 59.3744 12.6943 59.5952C12.4232 59.8161 12.1622 60.027 11.9011 60.2579C11.5037 60.5915 11.1249 60.9468 10.7666 61.3222C10.513 61.5608 10.2718 61.8121 10.0437 62.0752C9.56304 62.5962 9.11058 63.1424 8.68826 63.7117C8.57782 63.8523 8.47742 64.0029 8.37702 64.1435C8.15613 64.4547 7.95533 64.766 7.75453 65.0873C7.46001 65.5625 7.17887 66.0545 6.91113 66.5632L6.65009 67.0853C6.54969 67.266 6.46937 67.4467 6.38905 67.6275C6.30873 67.8082 6.2284 67.9989 6.13804 68.1897C4.73808 71.6622 3.90418 75.3367 3.66813 79.0734C2.95527 87.4168 3.66814 115.058 5.32478 127.146C7.77461 147.337 10.7867 147.377 15.1642 150.761C22.6844 156.574 39.6424 164.747 46.7911 167.558C59.743 172.659 70.3355 164.797 78.2372 160.891C85.4763 157.231 92.463 153.092 99.1511 148.502C101.159 147.066 102.163 145.62 102.163 144.084C102.043 143.512 102.063 141.032 102.063 140.389Z" fill="#0082F4"/>
<path opacity="0.2" d="M102.063 140.389C102.063 138.441 100.346 136.373 96.7113 134.004C90.0245 129.656 70.5363 118.783 61.1587 113.592C61.155 113.572 61.1453 113.554 61.131 113.539C61.1167 113.525 61.0983 113.515 61.0784 113.511C53.8695 109.134 51.6807 78.7722 46.6907 62.9386C46.5802 62.6073 46.4798 62.276 46.3694 61.9346C46.2589 61.5933 46.1887 61.4426 46.1083 61.2017C45.7871 60.3382 45.4658 59.5551 45.1043 58.8322C45.024 58.6615 44.9537 58.5008 44.8734 58.3502C44.5742 57.7126 44.239 57.0924 43.8694 56.4928L43.5882 56.0711C43.4075 55.81 43.2268 55.5791 43.0461 55.3482C42.8653 55.1173 42.8453 55.0972 42.7348 54.9767C42.5747 54.7831 42.4037 54.5988 42.2228 54.4245C42.0898 54.2828 41.949 54.1487 41.8011 54.0229C41.3879 53.639 40.9333 53.3022 40.4456 53.0189L40.1043 52.8181L40.0139 52.7679L39.8633 52.6775L38.3673 51.8442L37.9757 51.6233L37.795 51.5128L37.2629 51.2116C36.809 50.9341 36.3236 50.7116 35.8171 50.5489L35.3151 50.3883C35.1243 50.3883 34.9335 50.2979 34.7428 50.2678C32.807 50.0077 30.8371 50.2178 28.9997 50.8803C28.8463 50.9215 28.6954 50.9718 28.5479 51.0309L27.1724 51.5429C26.5599 51.7939 25.9174 52.0751 25.2748 52.3662C22.9956 53.3703 20.5559 54.7558 17.9454 56.1815L17.0217 56.7036C16.6402 56.9145 16.2787 57.1354 15.9173 57.3562L15.2245 57.788C14.6422 58.1595 14.0698 58.551 13.5176 58.9627C13.2465 59.1635 12.9654 59.3744 12.6943 59.5952C12.4232 59.8161 12.1622 60.027 11.9011 60.2579C11.5037 60.5915 11.1249 60.9468 10.7666 61.3222C10.513 61.5608 10.2718 61.8121 10.0437 62.0752C9.56304 62.5962 9.11058 63.1424 8.68826 63.7117C8.57782 63.8523 8.47742 64.0029 8.37702 64.1435C8.15613 64.4547 7.95533 64.766 7.75453 65.0873C7.46001 65.5625 7.17887 66.0545 6.91113 66.5632L6.65009 67.0853C6.54969 67.266 6.46937 67.4467 6.38905 67.6275C6.30873 67.8082 6.2284 67.9989 6.13804 68.1897C4.73808 71.6622 3.90418 75.3367 3.66813 79.0734C2.95527 87.4168 3.66814 115.058 5.32478 127.146C7.77461 147.337 10.7867 147.377 15.1642 150.761C22.6844 156.574 39.6424 164.747 46.7911 167.558C59.743 172.659 70.3355 164.797 78.2372 160.891C85.4763 157.231 92.463 153.092 99.1511 148.502C101.159 147.066 102.163 145.62 102.163 144.084C102.043 143.512 102.063 141.032 102.063 140.389Z" fill="black"/>
<path d="M78.1568 157.166C85.3968 153.502 92.3867 149.363 99.0808 144.777C103.569 141.514 103.157 138.18 96.7213 134.004C87.7754 128.2 56.0181 110.75 56.0181 110.75C56.0181 110.75 9.93324 137.939 11.9112 142.959C13.8891 147.98 37.7347 160.299 46.7107 163.833C59.6727 168.924 70.2652 161.072 78.1568 157.166Z" fill="#0082F4"/>
<g opacity="0.3">
<path opacity="0.3" d="M78.1568 157.166C85.3968 153.502 92.3867 149.363 99.0808 144.777C103.569 141.514 103.157 138.18 96.7213 134.004C87.7754 128.2 56.0181 110.75 56.0181 110.75C56.0181 110.75 9.93324 137.939 11.9112 142.959C13.8891 147.98 37.7347 160.299 46.7107 163.833C59.6727 168.924 70.2652 161.072 78.1568 157.166Z" fill="white"/>
</g>
<path d="M40.1544 52.9385C35.305 50.3983 28.9997 53.8522 21.1984 58.1293C16.1783 60.8703 11.9513 64.1535 9.36094 70.1776L6.06773 68.28C8.65812 62.2559 12.9052 58.9827 17.8851 56.2317C25.9173 51.8441 32.313 48.32 37.2126 51.2116L40.1544 52.9385Z" fill="#0082F4"/>
<path opacity="0.5" d="M40.1544 52.9385C35.305 50.3983 28.9997 53.8522 21.1984 58.1293C16.1783 60.8703 11.9513 64.1535 9.36094 70.1776L6.06773 68.28C8.65812 62.2559 12.9052 58.9827 17.8851 56.2317C25.9173 51.8441 32.313 48.32 37.2126 51.2116L40.1544 52.9385Z" fill="white"/>
<path d="M46.6907 62.9787C46.5802 62.6474 46.4798 62.3161 46.3694 61.9747C46.2589 61.6333 46.1887 61.4827 46.1083 61.2418C45.787 60.3783 45.4658 59.5951 45.1043 58.8722C45.024 58.7016 44.9537 58.5409 44.8734 58.3903C44.5742 57.7526 44.239 57.1325 43.8694 56.5329L43.5882 56.1112C43.4075 55.8501 43.2268 55.6192 43.0461 55.3883C42.8653 55.1573 42.8452 55.1373 42.7348 55.0168C42.5747 54.8232 42.4037 54.6388 42.2228 54.4646C42.0898 54.3229 41.949 54.1888 41.8011 54.063C41.5767 53.8634 41.3421 53.6757 41.0982 53.5007C40.9376 53.3802 40.7769 53.2899 40.6263 53.1895L40.4456 53.079L40.1043 52.8782L40.0139 52.828L39.7729 52.7176L39.4115 52.567C38.9427 52.3921 38.4587 52.261 37.9657 52.1754H37.5841C37.3944 52.1487 37.2034 52.1319 37.0119 52.1252H36.5299C32.2929 52.1252 27.2126 54.9264 21.2486 58.1493C20.7533 58.4171 20.2613 58.6982 19.7727 58.9927C19.592 59.0931 19.4012 59.2036 19.2205 59.3241L18.5679 59.7357L18.0759 60.047C17.0248 60.7424 16.0188 61.5036 15.0638 62.3261C14.9132 62.4667 14.7626 62.5972 14.6221 62.7478C14.0155 63.2993 13.4454 63.8896 12.9152 64.5149L12.624 64.8462C12.5136 64.9868 12.3931 65.1273 12.2927 65.2679L11.9614 65.6996C11.851 65.8402 11.7505 65.9908 11.6401 66.1414C11.2284 66.7438 10.8268 67.3764 10.4554 68.0491C10.4554 68.1394 10.355 68.2197 10.3148 68.3101C10.2746 68.4005 10.124 68.6615 10.0336 68.8422C9.94329 69.023 9.7726 69.3744 9.64208 69.6454C8.09762 73.2689 7.18419 77.1298 6.94126 81.0612C5.78663 94.7662 8.33684 140.69 13.0457 144.606C13.0457 144.606 12.3228 140.168 21.8109 134.194C28.2567 130.178 32.7749 126.734 39.6625 123.361C56.4197 115.128 61.1185 113.582 61.1185 113.582C53.8695 109.164 51.6807 78.7721 46.6907 62.9787Z" fill="#0082F4"/>
<path opacity="0.1" d="M99.4322 144.496C98.8659 143.008 97.9539 141.676 96.7715 140.61C91.4778 135.737 85.6901 131.43 79.5023 127.759C74.4821 124.626 65.7973 121.805 64.3615 115.379L61.1587 113.602C61.1523 113.584 61.1416 113.569 61.1276 113.556C61.1135 113.544 61.0966 113.536 61.0784 113.532C53.8695 109.154 51.6807 78.7922 46.6907 62.9587C46.5802 62.6274 46.4798 62.296 46.3694 61.9547C46.2589 61.6133 46.1887 61.4627 46.1083 61.2217C45.787 60.3583 45.4658 59.5751 45.1043 58.8522C45.024 58.6815 44.9537 58.5209 44.8734 58.3703C44.5742 57.7326 44.239 57.1125 43.8694 56.5128L43.5882 56.0912C43.4075 55.8301 43.2268 55.5992 43.0461 55.3683C42.8653 55.1373 42.8452 55.1173 42.7348 54.9968C42.5747 54.8032 42.4037 54.6188 42.2228 54.4446C42.0898 54.3029 41.949 54.1688 41.8011 54.0429C41.5767 53.8434 41.3421 53.6557 41.0982 53.4807C40.9376 53.3602 40.7769 53.2698 40.6263 53.1694L40.4456 53.059L40.1444 52.8783L39.1906 52.3461L38.5581 51.9847L37.7849 51.553H37.7348L37.2026 51.2518C36.9207 51.0806 36.6252 50.9328 36.3191 50.81L36.1484 50.7397L35.7568 50.5891L35.2548 50.4284C35.064 50.4284 34.8733 50.3381 34.6825 50.308L34.3411 50.2578H34.2307C33.9194 50.2578 33.5982 50.1975 33.2267 50.1875H33.1263C32.8353 50.1726 32.5437 50.1726 32.2528 50.1875H32.0319C31.7106 50.1875 31.3993 50.2678 31.0781 50.328H30.8371L30.0339 50.5088L29.7527 50.579L28.8993 50.8301L28.7387 50.8803H28.6081L28.4475 50.9305L28.0258 51.0911L27.2226 51.3823L27.072 51.4425L26.4595 51.7036L25.6262 52.065L25.1744 52.2658H25.1041C24.582 52.5068 24.0499 52.7578 23.5077 53.0289L22.9153 53.3301L21.9715 53.8221L20.9675 54.3642L20.5759 54.5751L17.8751 56.041L16.9514 56.5631L16.3791 56.9044L16.0076 57.1153L15.847 57.2157L15.1542 57.6474C14.5719 58.0189 13.9996 58.4105 13.4473 58.8221C13.1763 59.0229 12.8951 59.2338 12.624 59.4547C12.353 59.6755 12.0919 59.8864 11.8309 60.1173C11.4334 60.4509 11.0546 60.8062 10.6963 61.1816C10.4427 61.4202 10.2015 61.6715 9.97341 61.9346L9.75252 62.1856L9.54169 62.4266C9.36096 62.6274 9.19027 62.8382 9.01959 63.0491C8.96834 63.1269 8.91129 63.2007 8.8489 63.2699L8.61798 63.5712C8.50754 63.7117 8.40714 63.8623 8.30674 64.0029L8.13604 64.2539C7.69551 64.9011 7.28998 65.5714 6.92117 66.262C6.89836 66.3142 6.8715 66.3645 6.84085 66.4125C6.75049 66.5732 6.67017 66.7439 6.58984 66.9146C6.49948 67.0852 6.41916 67.2559 6.33884 67.4367C6.25852 67.6174 6.17819 67.8081 6.08783 67.9989C4.85016 71.0302 4.0653 74.2271 3.75848 77.487C6.08782 76.7841 8.1762 74.4247 10.4453 75.2781C10.4453 87.9891 11.8208 112.276 13.8289 124.827C15.606 135.871 15.1944 142.066 30.1744 151.042C39.4465 156.795 49.3644 161.436 59.7229 164.867C65.7471 164.145 74.4118 158.843 78.1769 156.936C85.4169 153.271 92.4068 149.132 99.1009 144.546L99.4322 144.496Z" fill="black"/>
<path d="M91.0385 196.514L91.7815 217.298C91.5341 218.903 90.8059 220.396 89.6927 221.579C88.5796 222.762 87.1339 223.58 85.5465 223.924C79.9841 225.169 79.0805 218.201 79.0805 218.201L74.3114 193.834L91.0385 196.514Z" fill="#F28F8F"/>
<path d="M77.8657 228.924C77.87 229.738 78.0231 230.545 78.3175 231.304C78.7593 232.248 81.3296 233.402 82.7653 234.045C83.7625 234.404 84.6786 234.957 85.4609 235.672C86.2433 236.388 86.8763 237.251 87.3236 238.211C88.9886 241.4 91.6807 243.933 94.9643 245.4C99.2921 247.108 104.037 247.458 108.569 246.404C114.201 245.21 114.593 241.856 114.593 241.856C114.593 241.856 114.794 238.693 113.368 238.242C111.942 237.79 77.8657 228.924 77.8657 228.924Z" fill="#263238"/>
<path d="M78.8195 216.695C78.3878 216.776 78.3476 217.257 78.3075 218.703C78.2673 220.149 77.7553 221.976 77.6247 223.362C77.3248 225.366 77.3928 227.407 77.8255 229.386C79.4922 232.067 82.7955 231.545 86.0084 234.336C88.9502 236.886 91.9221 243.031 99.392 244.276C106.862 245.521 112.444 242.991 113.73 240.832C115.015 238.673 113.73 236.726 108.89 234.306C103.75 231.736 96.8418 223.814 96.8418 223.814C96.0085 222.729 95.1651 221.665 94.3819 220.511C94.0041 219.881 93.7073 219.206 93.4984 218.502C93.2273 217.719 92.9462 216.926 92.6651 216.143C92.5446 215.782 92.3638 215.38 92.0024 215.27C91.6717 215.226 91.3368 215.312 91.0687 215.51C88.9633 216.705 86.7124 217.623 84.3718 218.241C84.0934 218.282 83.8359 218.412 83.6389 218.613C83.5612 218.792 83.5211 218.985 83.5211 219.18C83.5211 219.375 83.5612 219.568 83.6389 219.747C83.7578 220.244 83.8018 220.755 83.7694 221.264C83.7694 221.494 83.679 221.766 83.4481 221.806C83.2172 221.846 83.0666 221.635 82.9561 221.444L81.8617 219.577C81.4874 218.932 80.8969 218.442 80.195 218.191C79.7891 218.007 79.3994 217.789 79.0304 217.539L78.8195 216.695Z" fill="#455A64"/>
<path d="M94.5827 242.619C94.6209 240.899 95.1296 239.222 96.0536 237.771C96.9775 236.319 98.2814 235.149 99.8237 234.386C105.336 231.374 108.8 233.091 110.547 234.266C112.635 235.671 115.647 238.643 113.94 240.932C112.103 243.392 109.081 244.627 103.368 244.878C97.655 245.129 94.5827 242.619 94.5827 242.619Z" fill="#FAFAFA"/>
<path d="M86.3196 225.5C86.4185 225.492 86.5145 225.463 86.6011 225.415C86.6878 225.366 86.7629 225.299 86.8216 225.219C87.424 224.306 91.3999 220.872 95.3658 221.846C95.5566 221.384 95.2052 220.922 94.3618 220.46C90.2152 220.219 86.4501 223.472 85.7172 224.547C85.6715 224.615 85.6401 224.691 85.625 224.771C85.6098 224.852 85.6112 224.935 85.629 225.014C85.6469 225.094 85.6808 225.17 85.7288 225.236C85.7767 225.302 85.8377 225.358 85.9079 225.4C86.0333 225.471 86.1757 225.505 86.3196 225.5Z" fill="#FAFAFA"/>
<path d="M97.7153 224.737C97.6423 224.439 97.4996 224.163 97.2989 223.931C97.0981 223.698 96.8451 223.517 96.5607 223.402C94.9986 223.511 93.4739 223.93 92.0757 224.635C90.6776 225.34 89.4341 226.317 88.418 227.509C88.3621 227.607 88.3337 227.719 88.3358 227.832C88.3379 227.946 88.3704 228.056 88.4299 228.153C88.4894 228.249 88.5738 228.328 88.6741 228.381C88.7745 228.433 88.8871 228.458 89.0003 228.452C89.1003 228.448 89.1979 228.421 89.2852 228.372C89.3724 228.323 89.4469 228.254 89.5024 228.171C90.0947 227.288 93.8699 224.035 97.7153 224.737Z" fill="#FAFAFA"/>
<path d="M104.091 230.912C103.69 230.188 103.051 229.625 102.284 229.316C98.2073 229.175 94.5225 232.328 93.7996 233.412C93.7524 233.48 93.7198 233.556 93.7039 233.637C93.6879 233.718 93.689 233.801 93.7069 233.881C93.7248 233.961 93.7593 234.037 93.8081 234.103C93.8569 234.169 93.919 234.225 93.9904 234.266C94.1365 234.35 94.3088 234.377 94.4738 234.342C94.6388 234.307 94.7849 234.211 94.8839 234.075C95.5265 233.121 99.9141 229.346 104.091 230.912Z" fill="#FAFAFA"/>
<path d="M91.6911 231.404C91.7911 231.4 91.8887 231.373 91.976 231.324C92.0632 231.275 92.1376 231.206 92.1931 231.123C92.7956 230.23 96.6811 226.866 100.607 227.729C100.5 227.411 100.322 227.121 100.085 226.882C99.8479 226.644 99.5594 226.463 99.2414 226.354C97.6808 226.463 96.1577 226.882 94.7612 227.587C93.3647 228.293 92.123 229.269 91.1088 230.46C91.0647 230.528 91.0347 230.604 91.0204 230.683C91.0062 230.762 91.008 230.844 91.0258 230.922C91.0436 231.001 91.077 231.075 91.124 231.141C91.171 231.206 91.2307 231.262 91.2996 231.304C91.4153 231.38 91.5531 231.415 91.6911 231.404Z" fill="#FAFAFA"/>
<path d="M119.111 178.331L120.858 199.055C120.702 200.672 120.058 202.203 119.013 203.447C117.968 204.691 116.571 205.589 115.005 206.022C109.503 207.539 108.288 200.55 108.288 200.55L102.163 178.853L119.111 178.331Z" fill="#F28F8F"/>
<path d="M107.535 211.394C107.579 212.205 107.769 213.001 108.097 213.743C108.589 214.667 111.229 215.691 112.675 216.263C114.72 216.9 116.43 218.318 117.434 220.209C119.257 223.311 122.067 225.712 125.416 227.027C129.821 228.509 134.573 228.618 139.041 227.338C144.623 225.872 144.814 222.498 144.814 222.498C144.814 222.498 144.814 219.346 143.409 218.964C142.003 218.583 107.535 211.394 107.535 211.394Z" fill="#263238"/>
<path d="M107.886 199.115C107.454 199.225 107.444 199.717 107.474 201.123C107.505 202.528 107.093 204.416 107.023 205.812C106.824 207.813 106.991 209.834 107.515 211.775C109.312 214.376 112.585 213.693 115.928 216.324C118.991 218.733 122.254 224.727 129.784 225.601C137.314 226.474 142.736 223.683 143.931 221.464C145.125 219.245 143.73 217.358 138.78 215.179C133.519 212.86 126.24 205.279 126.24 205.279C125.346 204.275 124.453 203.271 123.619 202.107C123.2 201.483 122.863 200.808 122.615 200.099C122.304 199.336 121.993 198.562 121.671 197.789C121.531 197.438 121.34 197.036 120.969 196.946C120.803 196.93 120.636 196.948 120.477 196.998C120.319 197.048 120.172 197.129 120.045 197.237C117.997 198.517 115.794 199.53 113.489 200.249C113.211 200.302 112.96 200.447 112.776 200.661C112.699 200.838 112.659 201.03 112.659 201.223C112.659 201.417 112.699 201.608 112.776 201.785C112.914 202.275 112.978 202.783 112.966 203.291C112.966 203.522 112.906 203.803 112.685 203.854C112.464 203.904 112.294 203.703 112.173 203.512C111.772 202.91 111.38 202.308 110.989 201.705C110.584 201.08 109.973 200.618 109.262 200.4C108.841 200.24 108.437 200.038 108.057 199.797L107.886 199.115Z" fill="#455A64"/>
<path d="M124.844 224.256C124.8 222.536 125.227 220.837 126.081 219.343C126.934 217.849 128.18 216.617 129.683 215.782C135.035 212.478 138.579 214.055 140.386 215.149C142.535 216.444 145.688 219.276 144.101 221.635C142.384 224.185 139.423 225.571 133.73 226.093C128.037 226.615 124.844 224.256 124.844 224.256Z" fill="#FAFAFA"/>
<path d="M115.808 207.559C115.907 207.549 116.003 207.516 116.088 207.464C116.174 207.412 116.246 207.341 116.3 207.257C116.862 206.324 120.657 202.689 124.673 203.472C124.834 203 124.463 202.559 123.619 202.137C119.473 202.137 115.858 205.51 115.185 206.645C115.142 206.714 115.113 206.791 115.101 206.872C115.089 206.952 115.094 207.034 115.116 207.113C115.137 207.191 115.175 207.265 115.227 207.328C115.279 207.39 115.343 207.442 115.416 207.478C115.534 207.549 115.672 207.577 115.808 207.559Z" fill="#FAFAFA"/>
<path d="M127.153 206.243C127.067 205.95 126.911 205.681 126.7 205.459C126.489 205.237 126.228 205.069 125.938 204.968C124.383 205.151 122.88 205.643 121.518 206.416C120.156 207.188 118.962 208.225 118.007 209.466C117.964 209.535 117.937 209.613 117.926 209.693C117.914 209.773 117.92 209.855 117.941 209.933C117.963 210.011 118.001 210.084 118.052 210.147C118.102 210.21 118.166 210.262 118.238 210.3C118.361 210.365 118.5 210.392 118.639 210.38C118.737 210.37 118.832 210.338 118.915 210.286C118.999 210.233 119.069 210.163 119.121 210.079C119.683 209.165 123.278 205.731 127.153 206.243Z" fill="#FAFAFA"/>
<path d="M133.82 212.107C133.385 211.401 132.717 210.869 131.933 210.601C127.856 210.651 124.332 213.994 123.659 215.099C123.617 215.169 123.59 215.248 123.58 215.329C123.569 215.411 123.575 215.494 123.598 215.573C123.62 215.652 123.659 215.725 123.711 215.789C123.763 215.852 123.827 215.904 123.9 215.942C124.02 216.008 124.156 216.036 124.292 216.022C124.39 216.01 124.485 215.976 124.568 215.922C124.652 215.868 124.722 215.796 124.774 215.711C125.376 214.727 129.573 210.741 133.82 212.107Z" fill="#FAFAFA"/>
<path d="M121.461 213.201C121.561 213.191 121.658 213.158 121.743 213.103C121.829 213.049 121.9 212.976 121.953 212.89C122.505 211.966 126.23 208.422 130.196 209.095C130.071 208.782 129.877 208.502 129.629 208.276C129.38 208.05 129.083 207.883 128.76 207.79C127.206 207.973 125.705 208.466 124.345 209.239C122.984 210.011 121.792 211.048 120.838 212.288C120.796 212.357 120.768 212.434 120.757 212.514C120.746 212.594 120.751 212.676 120.773 212.754C120.794 212.832 120.832 212.905 120.883 212.968C120.934 213.031 120.997 213.083 121.069 213.121C121.188 213.187 121.325 213.215 121.461 213.201Z" fill="#FAFAFA"/>
<path d="M113.147 136.554C110.406 129.957 87.6951 120.188 80.0143 116.222C72.3335 112.256 67.966 109.756 59.1105 104.365L40.285 92.5674C39.2809 100.228 39.0701 104.616 41.9215 112.005L17.8751 122.668C19.5719 132.457 22.4233 137.277 25.2848 140.178C29.6122 144.546 33.4475 147.207 44.8131 152.819C54.2208 157.508 63.8896 162.99 66.4499 164.436C69.462 166.082 70.1748 167.789 69.974 171.614C69.221 186.765 74.5524 202.789 77.0022 214.928C77.0022 214.928 84.3417 218.201 92.4843 212.729C92.4843 212.729 92.3237 157.638 89.5827 151.042C88.9265 149.78 88.0685 148.634 87.0425 147.648C88.3778 148.12 89.402 148.492 89.9542 148.723C93.4281 150.188 94.1008 151.363 94.8739 157.066C95.9984 165.359 97.3237 170.239 100.266 180.159C101.832 185.44 105.527 198.101 105.527 198.101C109.111 199.657 118.88 198.04 122.013 194.587C122.043 194.556 115.888 143.15 113.147 136.554Z" fill="#0082F4"/>
<path opacity="0.5" d="M113.147 136.554C110.406 129.957 87.6951 120.188 80.0143 116.222C72.3335 112.256 67.966 109.756 59.1105 104.365L40.285 92.5674C39.2809 100.228 39.0701 104.616 41.9215 112.005L17.8751 122.668C19.5719 132.457 22.4233 137.277 25.2848 140.178C29.6122 144.546 33.4475 147.207 44.8131 152.819C54.2208 157.508 63.8896 162.99 66.4499 164.436C69.462 166.082 70.1748 167.789 69.974 171.614C69.221 186.765 74.5524 202.789 77.0022 214.928C77.0022 214.928 84.3417 218.201 92.4843 212.729C92.4843 212.729 92.3237 157.638 89.5827 151.042C88.9265 149.78 88.0685 148.634 87.0425 147.648C88.3778 148.12 89.402 148.492 89.9542 148.723C93.4281 150.188 94.1008 151.363 94.8739 157.066C95.9984 165.359 97.3237 170.239 100.266 180.159C101.832 185.44 105.527 198.101 105.527 198.101C109.111 199.657 118.88 198.04 122.013 194.587C122.043 194.556 115.888 143.15 113.147 136.554Z" fill="white"/>
<path opacity="0.5" d="M89.9843 148.723C93.4582 150.189 94.1309 151.363 94.904 157.066C95.6781 163.023 96.9646 168.901 98.7494 174.637C98.157 172.508 96.8418 161.775 96.6309 160.45C95.6269 154.305 95.7775 150.158 94.8839 148.17C93.9903 146.182 84.7633 141.012 84.7633 141.012L65.737 127.046C69.0804 122.769 67.7451 116.192 67.7451 116.192C67.2431 124.506 61.7711 127.518 61.7711 127.518C70.6535 133.709 79.1406 140.449 87.183 147.699C88.4983 148.15 89.4521 148.502 89.9843 148.723Z" fill="#0082F4"/>
<path d="M130.256 63.3101C129.588 62.8712 128.815 62.6182 128.017 62.5772C127.076 62.5439 126.135 62.601 125.206 62.7479C123.78 62.9185 120.908 63.3001 119.473 63.3703C118.174 63.5311 116.857 63.4321 115.597 63.0792C115.185 62.9286 114.382 62.4868 115.115 62.1555C116.09 61.7661 117.03 61.2959 117.926 60.7498C118.376 60.4718 118.762 60.1033 119.061 59.6676C119.36 59.232 119.565 58.7389 119.663 58.2197C119.715 57.9078 119.655 57.5876 119.493 57.3161C119.232 56.9446 118.94 57.0349 118.609 57.1554C118.249 57.2625 117.884 57.3497 117.515 57.4165L115.236 57.9084C110.818 58.9125 105.195 59.4446 101.772 62.5671C99.7126 64.5127 97.9712 66.769 96.6109 69.2539C94.2113 73.4407 86.5706 84.5854 86.5706 84.5854C86.5706 84.5854 77.695 72.3765 73.5183 66.1013C68.8697 59.1534 66.711 55.2678 62.3435 52.1855C59.6449 50.3937 56.5358 49.3159 53.3072 49.0529L59.4418 79.2942C59.4418 79.2942 71.3195 93.692 77.9862 100.901C83.7493 107.146 87.5144 108.22 89.3518 106.925C92.9864 104.284 94.5025 104.666 101.832 84.7461C102.354 83.3404 103.017 81.985 103.609 80.6095C104.954 77.7882 106.822 75.2078 108.207 75.2078C111.512 75.0959 114.803 74.7165 118.047 74.0733C119.693 73.7426 121.29 73.1992 122.796 72.4568C123.566 72.1672 124.268 71.7191 124.854 71.1415C125.276 70.5491 125.376 69.7258 125.928 69.2138C126.3 68.8624 126.782 68.6716 127.143 68.28C127.886 67.4768 128.408 66.3724 129.453 65.9005C130.035 65.6394 130.798 65.5491 131.029 64.9667C131.091 64.7224 131.079 64.4652 130.995 64.2275C130.911 63.9898 130.759 63.7824 130.557 63.6314C130.465 63.5171 130.364 63.4097 130.256 63.3101Z" fill="#F28F8F"/>
<path d="M86.5505 84.5854C83.3477 88.7019 82.0625 95.0775 82.0625 95.0775C82.0625 95.0775 81.3597 87.4971 85.2252 82.7882L86.5505 84.5854Z" fill="#B16668"/>
<path d="M56.3294 49.1533C59.241 49.2336 63.0262 51.322 66.2692 54.9968C69.5122 58.6715 82.8156 78.5613 84.4823 80.0071C86.149 81.4529 87.4944 81.0111 87.7655 82.7782C86.8618 84.2842 82.5646 92.4068 81.8417 97.688C81.6594 99.2872 81.8351 100.907 82.3561 102.43C82.877 103.953 83.7302 105.341 84.8538 106.493C84.8538 106.493 83.6289 107.497 80.8377 105.861C79.4621 105.027 76.0585 100.59 71.8516 96.6639C67.6448 92.7381 56.4298 79.9569 56.4298 79.9569L56.3294 49.1533Z" fill="#263238"/>
<path d="M112.053 64.4146C110.355 66.4405 108.116 67.9414 105.597 68.742C107.012 68.7128 108.395 68.3186 109.613 67.5974C111.471 66.3323 111.872 65.3985 112.053 64.4146Z" fill="#B16668"/>
<path d="M41.2288 47.9183C32.9456 47.6372 26.0881 49.9263 22.6443 50.4685C19.6322 51.6934 13.2265 58.0088 13.1562 62.2357C12.7434 74.8774 12.9914 87.532 13.8992 100.148C14.3902 108.714 15.7356 117.21 17.9153 125.509C32.2327 136.042 64.6326 127.518 69.7833 111.363C65.1648 90.3485 66.6708 80.2379 65.1648 68.9627C63.2571 54.7256 56.3695 49.1733 56.3695 49.1733C51.8815 48.0488 47.3935 48.1091 41.2288 47.9183Z" fill="#455A64"/>
<path d="M54.7028 25.0064C54.6024 24.2233 54.4819 23.4401 54.3413 22.667C54.2008 21.8939 54.1506 21.3819 53.9899 20.5987C44.291 16.0003 34.4616 11.9239 23.347 12.7171C19.2305 15.2172 18.8089 21.5425 22.1422 27.7775C23.5572 30.5816 25.2815 33.2185 27.2828 35.6391C29.1503 38.1792 30.4355 39.9062 30.4355 39.9062V34.3137L30.1845 30.9503C33.6839 33.1977 37.7851 34.3254 41.9416 34.1832H42.2529C45.4591 34.0552 48.5925 33.1894 51.4096 31.6531C52.6144 30.9904 53.9096 30.3679 54.4217 29.0326C54.8463 27.7343 54.9429 26.3511 54.7028 25.0064Z" fill="#455A64"/>
<path d="M64.0704 12.185C63.7536 11.5535 63.2758 11.0168 62.6852 10.6289C62.0947 10.2411 61.4123 10.0159 60.7069 9.97614C61.3783 9.45082 61.9266 8.78496 62.3134 8.02527C62.7002 7.26558 62.916 6.43047 62.9459 5.57851C63.1265 4.41885 63.0545 3.23388 62.735 2.10458C62.0986 2.61948 61.3421 2.96489 60.5362 3.1086C59.2625 3.41906 57.9469 3.52078 56.6406 3.40981C54.7047 3.23404 52.8025 2.79143 50.9879 2.09453C48.9775 1.26533 46.8789 0.669061 44.7328 0.317402C42.8112 0.0452642 40.8688 -0.0521834 38.9296 0.0262415C31.2789 0.558376 28.3973 3.03832 26.5499 5.04638C24.5628 7.09397 23.4194 9.81457 23.3471 12.6669C24.9234 14.424 29.1905 14.6147 33.4877 13.7412C35.566 14.3135 36.6404 16.924 38.7287 17.4059C40.6665 17.8578 41.5501 18.9923 43.0461 20.1971C44.0695 20.9803 45.3171 21.4146 46.6056 21.4363C47.8941 21.458 49.1556 21.0659 50.2048 20.3176C50.3357 21.2793 50.6726 22.2013 51.1924 23.0209C51.7122 23.8405 52.4028 24.5383 53.2168 25.0667C54.8534 26.0707 56.8615 26.9643 58.7691 26.5827C59.2568 26.5034 59.7238 26.3276 60.1428 26.0655C60.5617 25.8035 60.9242 25.4605 61.2089 25.0566C61.7812 24.2233 61.8916 22.4462 61.0483 21.8939C61.4546 22.1677 61.9159 22.3492 62.3999 22.4255C62.8838 22.5018 63.3786 22.4712 63.8495 22.3357C64.3157 22.1835 64.7197 21.8836 65.0004 21.4815C65.2812 21.0794 65.4234 20.5969 65.4057 20.1068C65.2521 20.3697 65.0214 20.5791 64.7448 20.7066C64.4683 20.8341 64.1592 20.8736 63.8595 20.8196C63.5623 20.7541 63.292 20.6 63.0841 20.3778C62.8762 20.1555 62.7405 19.8755 62.6949 19.5746C62.5844 18.6208 63.3876 17.8377 63.9097 17.0244C64.3815 16.3012 64.6435 15.4613 64.6666 14.5981C64.6896 13.7349 64.4728 12.8822 64.0403 12.1348L64.0704 12.185Z" fill="#263238"/>
<path d="M30.1443 28.2294C28.9696 28.5105 28.1363 26.4623 27.0619 25.4081C26.5975 24.9867 26.0353 24.6881 25.4261 24.5392C24.817 24.3903 24.1804 24.3959 23.574 24.5555C22.9676 24.7151 22.4106 25.0236 21.9537 25.453C21.4968 25.8824 21.1543 26.4192 20.9575 27.0145C19.3711 30.7595 21.7406 34.1632 24.7527 35.4885C26.58 36.2917 28.6182 35.7696 29.331 34.7957L29.8531 49.6854C32.7447 54.7055 41.6103 57.0751 45.9778 56.0108C50.3453 54.9465 47.8855 50.7095 46.2891 48.5007V45.2577C48.5002 45.5722 50.7447 45.5722 52.9558 45.2577C56.7711 44.7155 58.5181 41.0006 59.0804 37.2255C60.1747 29.7655 59.3816 26.0406 58.5783 18.5405C58.3374 16.2714 57.494 12.9682 56.3494 11.3517C55.8976 12.426 55.0542 15.2674 48.6385 16.3718C43.8694 17.175 35.7167 14.4441 33.4978 13.8517C34.3612 16.2915 33.7789 23.0787 32.5941 25.3779C32.2126 26.0406 31.1684 28.1691 30.1443 28.2294Z" fill="#F28F8F"/>
<path d="M25.9575 33.3499C25.9224 33.5771 25.9772 33.809 26.1103 33.9965C26.2434 34.184 26.4443 34.3122 26.6704 34.3539C26.8433 34.3858 27.0218 34.3654 27.1831 34.2952C27.3443 34.2251 27.481 34.1085 27.5755 33.9602C27.6701 33.812 27.7183 33.6389 27.714 33.4631C27.7096 33.2874 27.6529 33.1169 27.5511 32.9735C27.4493 32.8301 27.3071 32.7204 27.1425 32.6583C26.978 32.5963 26.7987 32.5847 26.6276 32.6251C26.4565 32.6655 26.3013 32.7561 26.1819 32.8852C26.0626 33.0143 25.9844 33.1761 25.9575 33.3499Z" fill="#37474F"/>
<path d="M20.1743 28.6812H20.2848C20.338 28.6738 20.3867 28.6474 20.4218 28.6067C20.4569 28.5661 20.476 28.514 20.4755 28.4603C20.4755 28.406 20.4579 28.3531 20.4253 28.3097C20.3927 28.2662 20.3469 28.2345 20.2948 28.2193C20.0562 28.1411 19.8556 27.9763 19.7326 27.7575C19.6172 27.5309 19.592 27.2689 19.6623 27.0245C19.7405 26.7859 19.9053 26.5853 20.1241 26.4623C20.2345 26.4012 20.356 26.3628 20.4814 26.3495C20.6068 26.3361 20.7337 26.348 20.8544 26.3845C20.9752 26.421 21.0874 26.4814 21.1844 26.562C21.2814 26.6426 21.3613 26.7418 21.4193 26.8538C21.4798 26.9631 21.5173 27.0837 21.5294 27.208C21.5415 27.3323 21.5279 27.4578 21.4896 27.5767C21.4724 27.6381 21.4783 27.7035 21.506 27.7609C21.5337 27.8182 21.5815 27.8634 21.6402 27.888C21.7055 27.9104 21.7769 27.9061 21.839 27.876C21.9011 27.8459 21.9487 27.7925 21.9715 27.7273C22.0733 27.378 22.0426 27.0034 21.885 26.6754C21.7275 26.3474 21.4544 26.0891 21.1181 25.9502H20.9976C20.8734 25.9148 20.7452 25.8945 20.6161 25.89C20.3641 25.8805 20.1143 25.9395 19.8932 26.0606C19.7245 26.1505 19.5754 26.2732 19.4547 26.4215C19.334 26.5698 19.2441 26.7406 19.1904 26.9241C19.1402 27.0761 19.1197 27.2363 19.1301 27.396C19.1335 27.6025 19.1851 27.8054 19.2807 27.9884C19.3699 28.1757 19.5004 28.3405 19.6623 28.4703C19.7429 28.5364 19.8304 28.5936 19.9233 28.641C20.0038 28.6698 20.0889 28.6834 20.1743 28.6812Z" fill="#263238"/>
<path d="M46.279 45.2576C43.0409 44.671 39.8878 43.6862 36.8914 42.3259C35.0841 41.4122 32.313 37.3057 31.8712 36.3017C32.2289 38.7112 33.3559 40.9406 35.0841 42.6572C37.3934 44.8259 46.3091 47.2255 46.3091 47.2255L46.279 45.2576Z" fill="#B16668"/>
<path d="M57.3233 21.8137L53.5482 19.8056C53.6537 19.5356 53.8165 19.2916 54.0253 19.0904C54.2341 18.8892 54.484 18.7356 54.7578 18.6402C55.0316 18.5448 55.3228 18.5098 55.6115 18.5377C55.9001 18.5656 56.1792 18.6556 56.4297 18.8016C56.9423 19.0877 57.3227 19.563 57.4897 20.1257C57.6567 20.6885 57.597 21.2943 57.3233 21.8137Z" fill="#263238"/>
<path d="M39.3613 22.6771L43.1464 20.5686C43.0206 20.3151 42.8446 20.0897 42.629 19.9063C42.4134 19.7229 42.1627 19.5852 41.8923 19.5016C41.6219 19.418 41.3372 19.3903 41.0558 19.4201C40.7743 19.45 40.5018 19.5367 40.2548 19.675C39.7523 19.9682 39.3802 20.4417 39.2142 20.9993C39.0483 21.5569 39.1008 22.1568 39.3613 22.6771Z" fill="#263238"/>
<path d="M48.3473 21.9442L49.1806 32.3961L55.0241 30.6893L48.3473 21.9442Z" fill="#B16668"/>
<path d="M53.3273 24.8257C53.2992 25.2992 53.4564 25.765 53.7655 26.1247C54.0747 26.4845 54.5116 26.7099 54.9839 26.7534C55.2143 26.7783 55.4473 26.7562 55.6689 26.6887C55.8905 26.6211 56.0962 26.5094 56.2735 26.3602C56.4508 26.2111 56.5961 26.0276 56.7006 25.8208C56.8051 25.614 56.8666 25.3882 56.8815 25.157C56.9096 24.6835 56.7524 24.2176 56.4433 23.8579C56.1341 23.4982 55.6972 23.2727 55.2249 23.2293C54.9945 23.2044 54.7615 23.2264 54.5399 23.294C54.3183 23.3615 54.1126 23.4733 53.9353 23.6224C53.7581 23.7716 53.6128 23.9551 53.5083 24.1619C53.4038 24.3687 53.3422 24.5944 53.3273 24.8257Z" fill="#263238"/>
<path d="M40.3653 25.6289C40.3399 26.1034 40.4994 26.5692 40.8101 26.9286C41.1209 27.2881 41.5588 27.5131 42.032 27.5566C42.2621 27.58 42.4945 27.557 42.7156 27.4889C42.9366 27.4208 43.1417 27.309 43.3187 27.1601C43.4957 27.0112 43.641 26.8282 43.7459 26.6221C43.8508 26.416 43.9133 26.1909 43.9296 25.9602C43.955 25.4857 43.7955 25.0199 43.4848 24.6604C43.174 24.301 42.7361 24.0759 42.2629 24.0325C42.0328 24.009 41.8004 24.0321 41.5793 24.1002C41.3583 24.1683 41.1532 24.2801 40.9762 24.429C40.7992 24.5779 40.6539 24.7608 40.549 24.967C40.4441 25.1731 40.3816 25.3982 40.3653 25.6289Z" fill="#263238"/>
<path d="M44.8834 36.1311C44.8664 36.4517 44.9739 36.7664 45.1834 37.0096C45.393 37.2528 45.6884 37.4057 46.0079 37.4363C46.1628 37.4529 46.3194 37.438 46.4684 37.3924C46.6174 37.3469 46.7556 37.2716 46.8747 37.1713C46.9938 37.0709 47.0914 36.9475 47.1616 36.8084C47.2318 36.6693 47.2731 36.5175 47.283 36.362C47.3 36.0415 47.1925 35.7267 46.983 35.4835C46.7735 35.2403 46.4781 35.0874 46.1585 35.0568C46.0036 35.0402 45.847 35.0552 45.698 35.1007C45.5491 35.1463 45.4109 35.2215 45.2917 35.3219C45.1726 35.4222 45.075 35.5457 45.0048 35.6847C44.9347 35.8238 44.8934 35.9756 44.8834 36.1311Z" fill="#B16668"/>
<path d="M70.7472 100.59C66.8743 99.4715 62.7506 99.5766 58.9398 100.891C55.757 102.196 55.8173 104.174 59.0503 105.319C62.9232 106.441 67.0491 106.332 70.8576 105.007C74.1408 103.702 74.0906 101.724 70.7472 100.59Z" fill="#0082F4"/>
<g opacity="0.3">
<path opacity="0.3" d="M70.7472 100.59C66.8743 99.4715 62.7506 99.5766 58.9398 100.891C55.757 102.196 55.8173 104.174 59.0503 105.319C62.9232 106.441 67.0491 106.332 70.8576 105.007C74.1408 103.702 74.0906 101.724 70.7472 100.59Z" fill="black"/>
</g>
<path d="M73.2873 96.5032L56.2691 96.9651L58.0763 116.975C58.1767 117.698 58.8795 118.401 60.1948 118.923C63.5219 120.026 67.1294 119.934 70.3957 118.662C71.721 118.07 72.4038 117.327 72.4741 116.594L73.2873 96.5032Z" fill="#FAFAFA"/>
<path d="M56.2691 96.9651L56.6406 100.981C57.0931 101.274 57.5741 101.519 58.0763 101.714C62.506 103.12 67.2798 102.996 71.6307 101.363L72.0725 101.142C72.4221 100.956 72.7577 100.744 73.0765 100.509L73.2371 96.4932L56.2691 96.9651Z" fill="#EBEBEB"/>
<path d="M74.3717 97.1157L74.3014 94.1036H72.2934C72.0223 93.9731 71.7311 93.8425 71.4098 93.7221C66.9832 92.3183 62.2134 92.4421 57.8655 94.0735C57.5542 94.214 57.2932 94.3546 57.0422 94.4952H55.1145L55.1948 97.5675C55.1948 98.5715 56.1988 99.5755 58.0261 100.248C62.4518 101.659 67.224 101.535 71.5705 99.8968C73.4982 99.1237 74.4018 98.1197 74.3717 97.1157Z" fill="#0082F4"/>
<g opacity="0.2">
<path opacity="0.2" d="M74.3717 97.1157L74.3014 94.1036H72.2934C72.0223 93.9731 71.7311 93.8425 71.4098 93.7221C66.9832 92.3183 62.2134 92.4421 57.8655 94.0735C57.5542 94.214 57.2932 94.3546 57.0422 94.4952H55.1145L55.1948 97.5675C55.1948 98.5715 56.1988 99.5755 58.0261 100.248C62.4518 101.659 67.224 101.535 71.5705 99.8968C73.4982 99.1237 74.4018 98.1197 74.3717 97.1157Z" fill="black"/>
</g>
<path d="M71.3696 91.3224C66.9445 89.9084 62.1712 90.0323 57.8253 91.6738C54.1807 93.2903 54.2409 95.7602 57.9659 97.1859C62.3915 98.5968 67.1637 98.4729 71.5102 96.8345C75.2753 95.218 75.2151 92.7481 71.3696 91.3224Z" fill="#0082F4"/>
<path d="M72.4941 93.3104L71.8114 90.8003L66.9519 90.9308C65.34 90.7698 63.7144 90.8103 62.1125 91.0513L57.3835 91.1718L56.8313 93.712C56.5502 94.6457 57.3032 95.5895 59.1004 96.2421C62.7557 97.3492 66.6702 97.2507 70.2652 95.961C72.1327 95.208 72.8556 94.224 72.4941 93.3104Z" fill="#0082F4"/>
<path opacity="0.2" d="M72.4941 93.3104L71.8114 90.8003L66.9519 90.9308C65.34 90.7698 63.7144 90.8103 62.1125 91.0513L57.3835 91.1718L56.8313 93.712C56.5502 94.6457 57.3032 95.5895 59.1004 96.2421C62.7557 97.3492 66.6702 97.2507 70.2652 95.961C72.1327 95.208 72.8556 94.224 72.4941 93.3104Z" fill="black"/>
<path d="M69.6829 89.2441C66.3158 88.2834 62.7356 88.3744 59.4217 89.5051C56.6607 90.6296 56.7109 92.3265 59.5221 93.3004C62.8895 94.2585 66.469 94.1675 69.7833 93.0393C72.6347 91.9148 72.5946 90.218 69.6829 89.2441Z" fill="#0082F4"/>
<path d="M70.8978 91.0915C70.8289 91.2408 70.7215 91.3691 70.5865 91.463C70.2274 91.7209 69.8358 91.9302 69.4219 92.0855C67.8759 92.6298 66.2514 92.918 64.6126 92.9389C63 93.0134 61.3868 92.8097 59.8434 92.3365C59.432 92.2049 59.0427 92.0119 58.6888 91.7642C58.4478 91.5835 58.3776 91.4429 58.3776 91.4128C58.3776 91.3827 58.6185 90.8907 59.7932 90.4088C61.3109 89.8637 62.9097 89.5786 64.5222 89.5654C66.1609 89.4949 67.7999 89.6985 69.3716 90.1678C70.5765 90.5895 70.8877 91.0212 70.8978 91.0915Z" fill="#0082F4"/>
<g opacity="0.5">
<path opacity="0.5" d="M70.8978 91.0915C70.8289 91.2408 70.7215 91.3691 70.5865 91.463C70.2274 91.7209 69.8358 91.9302 69.4219 92.0855C67.8759 92.6298 66.2514 92.918 64.6126 92.9389C63 93.0134 61.3868 92.8097 59.8434 92.3365C59.432 92.2049 59.0427 92.0119 58.6888 91.7642C58.4478 91.5835 58.3776 91.4429 58.3776 91.4128C58.3776 91.3827 58.6185 90.8907 59.7932 90.4088C61.3109 89.8637 62.9097 89.5786 64.5222 89.5654C66.1609 89.4949 67.7999 89.6985 69.3716 90.1678C70.5765 90.5895 70.8877 91.0212 70.8978 91.0915Z" fill="black"/>
</g>
<path d="M70.5865 91.4831C70.2274 91.7409 69.8358 91.9502 69.4219 92.1056C67.8759 92.6498 66.2514 92.9381 64.6126 92.959C63 93.0335 61.3868 92.8297 59.8434 92.3566C59.432 92.2249 59.0427 92.032 58.6888 91.7843C59.0297 91.518 59.4088 91.3048 59.8133 91.1517C61.331 90.6067 62.9297 90.3215 64.5423 90.3084C66.1778 90.2372 67.8136 90.4408 69.3817 90.9108C69.8095 91.0406 70.2156 91.2335 70.5865 91.4831Z" fill="#0082F4"/>
<g opacity="0.2">
<path opacity="0.2" d="M70.5865 91.4831C70.2274 91.7409 69.8358 91.9502 69.4219 92.1056C67.8759 92.6498 66.2514 92.9381 64.6126 92.959C63 93.0335 61.3868 92.8297 59.8434 92.3566C59.432 92.2249 59.0427 92.032 58.6888 91.7843C59.0297 91.518 59.4088 91.3048 59.8133 91.1517C61.331 90.6067 62.9297 90.3215 64.5423 90.3084C66.1778 90.2372 67.8136 90.4408 69.3817 90.9108C69.8095 91.0406 70.2156 91.2335 70.5865 91.4831Z" fill="black"/>
</g>
<g opacity="0.5">
<path opacity="0.5" d="M67.6949 91.6136C67.8587 91.5005 68.0433 91.4209 68.2381 91.3796C68.4328 91.3382 68.6338 91.3359 68.8295 91.3727C69.0503 91.4831 68.8797 91.7843 68.468 92.0353C68.3066 92.1533 68.1221 92.2358 67.9265 92.2773C67.731 92.3189 67.5289 92.3185 67.3335 92.2763C67.1226 92.1658 67.2833 91.8647 67.6949 91.6136Z" fill="black"/>
</g>
<path d="M57.2631 110.509C57.2631 111.262 58.0563 111.995 59.5824 112.517C63.2311 113.576 67.1187 113.474 70.707 112.226C72.2532 111.614 73.0163 110.841 72.9962 110.088L73.2874 102.718C73.2874 103.521 72.5042 104.335 70.8576 104.987C67.0492 106.312 62.9232 106.421 59.0503 105.298C57.4338 104.726 56.6105 103.953 56.5904 103.15L57.2631 110.509Z" fill="#0082F4"/>
<path d="M62.4539 110.811C62.1977 110.414 61.9663 110.001 61.7611 109.576C61.3112 108.806 60.598 108.224 59.7531 107.939C59.6984 107.915 59.6364 107.913 59.5802 107.934C59.524 107.954 59.478 107.996 59.4519 108.05C59.3057 108.556 59.3008 109.093 59.4377 109.602C59.5745 110.111 59.848 110.573 60.2284 110.938C60.6089 111.303 61.0818 111.557 61.5962 111.673C62.1105 111.788 62.6467 111.761 63.1467 111.594C63.1467 111.594 63.1467 111.473 63.1467 111.453C62.8766 111.286 62.6413 111.067 62.4539 110.811Z" fill="#37474F"/>
<path d="M60.2551 107.688C60.7034 107.856 61.1208 108.096 61.49 108.401C61.8704 108.731 62.181 109.134 62.4037 109.586C62.6509 110.155 63.0419 110.649 63.5383 111.021C63.5904 111.057 63.6543 111.07 63.7162 111.059C63.7781 111.048 63.8332 111.012 63.8696 110.961C64.1239 110.446 64.1959 109.859 64.0737 109.297C63.9515 108.736 63.6424 108.232 63.1969 107.869C62.8212 107.465 62.3284 107.19 61.7879 107.082C61.2475 106.974 60.6867 107.039 60.1848 107.266C60.1458 107.29 60.1148 107.326 60.0959 107.367C60.0769 107.409 60.0708 107.456 60.0784 107.501C60.0859 107.546 60.1067 107.588 60.1382 107.621C60.1697 107.655 60.2104 107.678 60.2551 107.688Z" fill="#37474F"/>
<path d="M2.05164 104.264C2.41309 95.3385 1.7203 86.0111 5.51552 67.1153C8.08583 54.324 10.375 51.9344 22.6442 50.4786C27.2326 63.8422 20.8671 78.1696 20.8671 78.1696L18.3269 100.991C18.3269 100.991 41.9717 106.915 48.2871 105.168C50.4758 104.565 54.2108 99.8064 56.5502 100.057C56.5502 100.057 56.7309 101.895 56.9016 104.023C57.0422 105.298 59.2008 108.501 64.0402 109.847C66.9017 110.65 71.9118 110.851 72.9962 110.138L73.0464 108.923C73.6984 109.233 74.2563 109.712 74.6629 110.309C74.7797 110.587 74.8398 110.885 74.8398 111.187C74.8398 111.489 74.7797 111.787 74.6629 112.066C74.5738 112.359 74.427 112.632 74.2311 112.869C74.1045 112.98 73.9901 113.105 73.8898 113.24C73.5939 113.883 73.3684 114.557 73.2171 115.248C72.8643 116.132 72.1898 116.85 71.3295 117.256C71.0142 117.42 70.7208 117.622 70.456 117.859C70.3355 117.969 70.2652 118.13 70.1447 118.25C70.0243 118.371 69.8737 118.441 69.7532 118.582C68.907 119.404 67.898 120.039 66.7913 120.447C65.6845 120.855 64.5045 121.027 63.3274 120.951C57.0522 120.871 50.9277 118.662 44.6424 118.25C42.7348 118.13 40.8272 118.15 38.9095 118.14C34.8432 118.14 30.7768 117.999 26.7105 117.768C21.713 117.577 16.7381 116.996 11.8309 116.031C4.44122 114.415 1.68015 113.18 2.05164 104.264Z" fill="#F28F8F"/>
<path d="M22.6442 50.4484C15.3148 51.4524 12.8951 51.9444 10.355 53.9826C7.81476 56.0208 6.08784 57.8983 4.33079 70.3783C2.57374 82.8584 0.505441 99.8867 0.103831 102.648C-0.29778 105.409 0.485361 107.598 2.11188 107.999C3.3368 106.082 9.96337 99.726 18.3169 100.971C19.9534 100.881 19.9936 99.7863 20.0639 97.4971C20.1342 95.2079 20.8069 82.2058 22.6744 78.1495C24.5419 74.0932 29.9034 62.7779 22.6442 50.4484Z" fill="#263238"/>
<path d="M18.8691 100.469C19.3521 100.861 19.8775 101.198 20.4354 101.473C16.936 103.259 13.9969 105.976 11.9413 109.325C10.7145 111.26 9.75846 113.355 9.09993 115.55C7.51022 115.384 5.98074 114.851 4.63202 113.993C3.69752 113.283 2.94911 112.356 2.45078 111.293C1.95246 110.23 1.71905 109.062 1.77054 107.889C2.52356 105.881 6.2987 101.945 10.8068 100.75C13.4347 100.024 16.1969 99.9276 18.8691 100.469Z" fill="#37474F"/>
<path d="M87.3136 83.5712C86.4803 85.9307 85.908 94.2139 88.7795 99.2943C90.3859 102.136 93.0667 102.949 94.0105 102.648C93.1844 104.162 92.0111 105.46 90.5867 106.433C88.2674 107.959 86.902 108.441 82.7352 105.238C80.8577 103.742 79.7031 93.0995 87.3136 83.5712Z" fill="#37474F"/>
</svg>
