<svg width="35" height="112" viewBox="0 0 35 112" fill="none" xmlns="http://www.w3.org/2000/svg">
<path d="M6.39465 0C14.7507 2.70197 19.2941 3.34244 21.936 10.2575C24.5779 17.1725 32.3236 40.6697 33.9447 45.5632C35.5659 50.4568 35.0956 52.6484 32.944 57.4919C31.6097 60.5208 30.3021 63.563 29.0212 66.6186C27.2999 70.6215 24.3478 77.4064 23.7673 79.0076C23.0714 80.6323 22.6911 82.3745 22.6465 84.1414C22.7298 85.9584 22.6629 87.7793 22.4464 89.5853C22.1707 91.7357 21.5876 93.8353 20.7151 95.8199C20.1146 97.1909 19.7144 98.702 19.0239 100.023C18.423 100.924 17.7286 101.759 16.9524 102.515C16.1918 103.435 15.8916 104.626 14.9509 105.437C13.3297 106.848 11.6785 106.998 10.1674 107.638C9.49693 108.549 8.34608 110.481 7.59553 111.331C5.67413 113.493 5.37392 109.83 5.47399 108.599C5.62806 107.271 5.92328 105.962 6.35464 104.696C7.40181 101.518 8.27044 98.2843 8.95651 95.0093C9.06659 94.4389 9.85719 92.0071 8.88648 92.0071C8.72672 92.0199 8.57133 92.0656 8.4301 92.1414C8.28887 92.2171 8.16485 92.3213 8.06588 92.4474C7.42658 93.2226 6.82864 94.0309 6.27456 94.8692C5.77409 95.4763 5.22525 96.0419 4.63338 96.5604C4.17435 97.0569 3.61945 97.4552 3.00219 97.7313C2.37173 97.9814 0 98.0715 0 97.0007C0.00183007 96.8245 0.0501441 96.6519 0.140086 96.5004C0.650458 95.4196 1.26091 94.3788 1.77128 93.288C2.32572 92.2149 2.81366 91.1086 3.23234 89.9756C4.36316 86.413 5.41395 83.4809 7.69561 80.5888C11.7986 75.395 17.2826 49.5661 17.2826 49.5661L10.1874 30.4422C10.1874 30.4422 4.31314 22.6365 3.81278 12.6993C3.31241 2.76202 6.39465 0 6.39465 0Z" fill="#9E6767"/>
</svg>
