<svg width="110" height="90" viewBox="0 0 110 90" fill="none" xmlns="http://www.w3.org/2000/svg">
<path d="M52.6585 2.24272C58.7383 -1.27454 67.1296 -0.772077 76.4151 4.58422C94.9562 15.2868 109.99 41.3246 109.99 62.7397C109.99 73.4925 106.191 81.0194 100.081 84.5166C98.4835 85.4211 96.4435 86.6772 94.8456 87.6118C88.7658 91.119 80.3746 90.6266 71.099 85.2603C52.5681 74.5577 37.5845 48.5199 37.5845 27.1048C37.5845 16.4022 41.343 8.88533 47.4127 5.37812" fill="#0082F4"/>
<path opacity="0.4" d="M110 62.7398C110 73.4925 106.201 81.0195 100.091 84.5167C98.4935 85.4211 96.4535 86.6773 94.8556 87.6119C88.7758 91.1191 80.3846 90.6267 71.1191 85.2704L110 62.7398Z" fill="white"/>
<path opacity="0.5" d="M105.096 39.7368C108.173 47.0247 109.837 54.8307 110 62.7397L71.1191 85.2704C64.3564 81.1733 58.4329 75.8296 53.6634 69.523L105.096 39.7368Z" fill="white"/>
<path opacity="0.6" d="M53.6634 69.523C44.006 57.1322 37.5845 41.1236 37.5845 27.1048C37.5845 16.4022 41.343 8.88533 47.4127 5.37812L52.6585 2.24272C58.7383 -1.27454 67.1296 -0.772077 76.4151 4.58422C88.5547 11.6188 99.1869 25.1854 105.086 39.7569L53.6634 69.523Z" fill="white"/>
<path d="M71.1191 7.71967C89.6601 18.4323 104.694 44.46 104.694 65.8752C104.694 87.2903 89.6199 95.9729 71.1091 85.2603C52.5982 74.5477 37.5242 48.52 37.5845 27.1048C37.6448 5.6897 52.5881 -2.99292 71.1191 7.71967Z" fill="#0082F4"/>
<path opacity="0.8" d="M71.1191 7.71967C89.6601 18.4323 104.694 44.46 104.694 65.8752C104.694 87.2903 89.6199 95.9729 71.1091 85.2603C52.5982 74.5477 37.5242 48.52 37.5845 27.1048C37.6448 5.6897 52.5881 -2.99292 71.1191 7.71967Z" fill="white"/>
<path d="M71.1191 17.4072C85.0274 25.4466 96.3028 44.9725 96.3028 61.0313C96.3028 77.0902 85.0274 83.6122 71.1091 75.5727C57.1907 67.5333 45.9254 48.0376 45.9254 31.9586C45.9254 15.8797 57.2008 9.36772 71.1191 17.4072Z" fill="#FAFAFA"/>
<path d="M71.1191 26.2204C80.8067 31.8179 88.6653 45.4348 88.6653 56.6197C88.6653 67.8046 80.7966 72.3569 71.1191 66.7594C61.4416 61.162 53.5629 47.5451 53.5629 36.3502C53.5629 25.1552 61.4215 20.6229 71.1191 26.2204Z" fill="#0082F4"/>
<path opacity="0.8" d="M71.1191 26.2204C80.8067 31.8179 88.6653 45.4348 88.6653 56.6197C88.6653 67.8046 80.7966 72.3569 71.1191 66.7594C61.4416 61.162 53.5629 47.5451 53.5629 36.3502C53.5629 25.1552 61.4215 20.6229 71.1191 26.2204Z" fill="white"/>
<path d="M71.1191 35.2749C76.4855 38.3701 80.7966 45.9071 80.7966 52.0573C80.7966 58.2075 76.4453 60.77 71.089 57.6648C65.7327 54.5596 61.4014 47.0326 61.4014 40.8824C61.4014 34.7322 65.7226 32.1696 71.1191 35.2749Z" fill="#FAFAFA"/>
<path d="M71.1191 41.7567C72.3109 42.5342 73.3025 43.5819 74.0132 44.8147C74.7239 46.0475 75.1336 47.4306 75.2092 48.8516C75.2092 51.4744 73.3802 52.5296 71.1191 51.2232C69.9241 50.4459 68.9298 49.3971 68.2172 48.1623C67.5047 46.9276 67.0941 45.5419 67.019 44.1183C67.019 41.5055 68.848 40.4503 71.1191 41.7567Z" fill="#455A64"/>
<path d="M11.3055 80.8787C11.3055 80.8787 12.6421 85.0593 9.86847 86.6672C7.09485 88.2751 3.76852 85.2201 5.56735 84.185L11.3055 80.8787Z" fill="#0082F4"/>
<path d="M11.3055 80.8788C11.3055 80.8788 4.04989 80.0949 1.25618 81.7028C-1.53754 83.3107 3.7484 85.2201 5.54723 84.185L11.3055 80.8788Z" fill="#0082F4"/>
<path opacity="0.5" d="M11.3055 80.8788C11.3055 80.8788 4.04989 80.0949 1.25618 81.7028C-1.53754 83.3107 3.7484 85.2201 5.54723 84.185L11.3055 80.8788Z" fill="white"/>
<path d="M64.2755 50.8815L1.70837 87.0189L0.653201 86.4059L63.9238 49.8665L64.2755 50.8815Z" fill="#37474F"/>
<path d="M2.59273 86.5666C2.59273 86.823 2.51669 87.0737 2.37425 87.2869C2.2318 87.5001 2.02935 87.6662 1.79247 87.7643C1.55559 87.8624 1.29493 87.8881 1.04346 87.8381C0.791993 87.7881 0.561013 87.6646 0.379713 87.4833C0.198413 87.302 0.0749339 87.071 0.0249134 86.8196C-0.0251071 86.5681 0.000551532 86.3074 0.0986703 86.0706C0.196789 85.8337 0.362956 85.6312 0.576142 85.4888C0.789328 85.3463 1.03999 85.2703 1.29638 85.2703C1.6402 85.2703 1.96991 85.4069 2.21302 85.65C2.45614 85.8931 2.59273 86.2228 2.59273 86.5666Z" fill="#263238"/>
<path d="M62.9892 51.0523C61.8637 52.6502 66.0844 54.4591 66.0844 54.4591L71.1091 46.3593L62.9892 51.0523Z" fill="#0082F4"/>
<path d="M62.9892 51.0523C61.8637 52.6502 66.0844 54.4591 66.0844 54.4591L71.1091 46.3593L62.9892 51.0523Z" fill="#0082F4"/>
<path d="M57.1003 49.2334C57.1003 49.2334 60.2257 51.6653 62.9892 51.0121L71.1191 46.3191L57.1003 49.2334Z" fill="#0082F4"/>
<path opacity="0.5" d="M57.1003 49.2334C57.1003 49.2334 60.2257 51.6653 62.9892 51.0121L71.1191 46.3191L57.1003 49.2334Z" fill="white"/>
</svg>
