<svg width="181" height="241" viewBox="0 0 181 241" fill="none" xmlns="http://www.w3.org/2000/svg">
<path d="M101.604 98.0955L99.6015 96.934C95.4597 94.3649 90.7316 92.8934 85.8633 92.6583H85.5129C84.7934 92.661 84.0746 92.7044 83.36 92.7885C80.2107 93.1298 77.1628 94.104 74.3994 95.6526C71.6359 97.2012 69.2139 99.2923 67.2788 101.8L67.0585 102.071C66.9183 102.238 66.7882 102.408 66.668 102.581L66.4277 102.932C66.3176 103.072 66.2174 103.222 66.1273 103.362C66.0372 103.503 65.7668 103.933 65.5966 104.224L65.4164 104.544C65.3363 104.684 65.2662 104.824 65.1861 104.985V105.035C63.3174 108.48 62.3431 112.34 62.3523 116.259V117.201C62.3523 117.621 62.3523 118.072 62.3523 118.512V120.825C62.3523 140.852 76.3708 165.224 93.7638 175.227L95.7664 176.389C99.9082 178.958 104.636 180.429 109.505 180.664H109.785C110.065 180.664 110.336 180.664 110.606 180.664H110.866C111.097 180.664 111.327 180.664 111.557 180.604H111.908H112.088C115.341 180.245 118.483 179.212 121.314 177.571C124.144 175.93 126.602 173.716 128.53 171.072C128.7 170.852 128.86 170.621 129.01 170.391L129.07 170.311C129.251 170.04 129.431 169.77 129.591 169.49C131.869 165.786 133.072 161.522 133.066 157.173V152.607C133.016 132.461 118.957 108.109 101.604 98.0955ZM94.715 168.969C80.0657 160.508 68.17 139.941 68.17 123.038C68.17 106.136 80.0657 99.3071 94.715 107.718C109.364 116.129 121.24 136.756 121.24 153.649C121.24 170.541 109.364 177.41 94.715 168.969Z" fill="#455A64"/>
<path d="M95.7163 101.5L93.7137 100.339C85.1324 95.382 77.3521 94.8613 71.6846 98.0355L71.244 98.2958L71.1439 98.3659C70.9637 98.4661 70.8034 98.5762 70.6332 98.6864C70.463 98.7965 70.3028 98.9167 70.1426 99.0368C69.7931 99.2656 69.4587 99.5164 69.1413 99.7878C68.9841 99.9169 68.8337 100.054 68.6907 100.198C68.378 100.469 68.0867 100.764 67.8195 101.08C67.6746 101.229 67.5376 101.386 67.409 101.55L67.0084 102.031C66.8682 102.198 66.7381 102.368 66.6179 102.541L66.3776 102.892C66.2675 103.032 66.1673 103.182 66.0772 103.323C65.9871 103.463 65.7167 103.893 65.5465 104.184L65.3663 104.504C65.2862 104.644 65.2161 104.784 65.136 104.945L64.9157 105.375C64.6471 105.913 64.4065 106.465 64.1947 107.027C64.0645 107.338 63.9544 107.638 63.8543 107.949C63.664 108.509 63.4838 109.1 63.3236 109.701C63.2435 110.031 63.1634 110.352 63.0833 110.702C63.0031 111.053 62.913 111.463 62.8429 111.854C62.8429 112.044 62.7728 112.224 62.7428 112.414C62.7128 112.605 62.6427 113.065 62.6026 113.416C62.5626 113.766 62.5025 114.147 62.4724 114.517C62.4675 114.581 62.4675 114.644 62.4724 114.708C62.4724 115.018 62.4124 115.338 62.3923 115.709V116.099C62.3923 116.46 62.3923 116.82 62.3923 117.191C62.3923 117.561 62.3923 118.062 62.3923 118.503V120.816C62.3923 140.842 76.4108 165.214 93.8038 175.217L95.8064 176.379C100.813 179.293 105.609 180.675 109.825 180.675C110.105 180.675 110.376 180.675 110.646 180.675H110.906C111.137 180.675 111.367 180.675 111.597 180.615H111.948L112.639 180.524L113.249 180.414C113.45 180.414 113.65 180.344 113.83 180.294C114.211 180.204 114.581 180.104 114.932 179.984L115.392 179.843L115.893 179.663L116.233 179.413C116.538 179.296 116.835 179.162 117.125 179.012L117.565 178.782L117.675 178.722L117.846 178.622L118.116 178.472C123.703 175.137 127.128 168.158 127.128 158.245V155.932C127.128 135.865 113.059 111.503 95.7163 101.5ZM94.715 168.969C80.0657 160.508 68.17 139.941 68.17 123.039C68.17 106.136 80.0657 99.3072 94.715 107.718C109.364 116.129 121.24 136.757 121.24 153.649C121.24 170.541 109.364 177.41 94.715 168.969Z" fill="#263238"/>
<path d="M114.441 164.633C110.246 169.64 102.976 170.331 94.715 165.565C81.6978 158.045 71.174 139.771 71.174 124.731C71.174 118.012 73.2767 113.085 76.7814 110.342C74.3381 113.225 72.9263 117.531 72.9263 123.038C72.9263 138.058 83.4802 156.342 96.4974 163.872C103.667 168.028 110.115 168.018 114.441 164.633Z" fill="#0082F4"/>
<path opacity="0.2" d="M114.441 164.633C110.246 169.64 102.976 170.331 94.715 165.565C81.6978 158.045 71.174 139.771 71.174 124.731C71.174 118.012 73.2767 113.085 76.7814 110.342C74.3381 113.225 72.9263 117.531 72.9263 123.038C72.9263 138.058 83.4802 156.342 96.4974 163.872C103.667 168.028 110.115 168.018 114.441 164.633Z" fill="black"/>
<path d="M94.715 107.718C80.0657 99.3071 68.17 106.116 68.17 123.028C68.17 139.941 80.0457 160.508 94.695 168.969C109.344 177.43 121.24 170.571 121.24 153.659C121.24 136.747 109.364 116.179 94.715 107.718ZM94.715 165.565C81.6978 158.045 71.174 139.771 71.174 124.731C71.174 109.691 81.7279 103.603 94.7451 111.123C107.762 118.643 118.316 136.917 118.316 151.957C118.316 166.996 107.732 173.085 94.715 165.565Z" fill="#0082F4"/>
<path d="M117.495 144.477C117.435 144.206 117.385 143.946 117.325 143.676L96.7877 138.178L96.3171 137.488L111.417 128.776L111.047 128.145L95.9566 136.857L95.5962 136.116L101.043 115.779L100.433 115.238L95.0755 135.265L94.3545 134.443L89.0776 108.69L88.2965 108.479L93.4934 133.883L92.6723 133.763L78.5236 109.22C78.3033 109.33 78.0931 109.451 77.8828 109.571L92.0415 134.093L91.7411 134.874L72.1752 117.491C72.0951 117.741 72.025 117.992 71.955 118.262L91.8312 135.885L92.1917 136.887L71.8348 131.44L71.985 132.231L92.6823 137.778L93.1529 138.459L77.7226 147.371L78.073 148.001L93.4734 139.11L93.8338 139.861L88.1964 160.768L88.7972 161.319L94.3145 140.752L95.0354 141.583L100.463 168.078L101.244 168.278L95.8966 142.134L96.7176 142.254L111.177 167.287L111.798 166.906L97.3485 141.873L97.6489 141.102L117.415 158.625C117.485 158.365 117.555 158.105 117.615 157.834L97.5888 140.081L97.2283 139.08L117.495 144.477Z" fill="#EBEBEB"/>
<path d="M96.0768 127.344C93.5735 125.892 91.3105 125.802 89.6984 126.813C89.3679 127.024 88.9674 127.204 88.5368 127.464C88.4175 127.528 88.3036 127.602 88.1964 127.685H88.1363C87.984 127.794 87.84 127.914 87.7058 128.045L87.6056 128.135C87.4844 128.258 87.3707 128.389 87.2652 128.526L87.145 128.686C87.0435 128.811 86.9531 128.945 86.8747 129.086L86.7345 129.327C86.6598 129.46 86.5929 129.597 86.5342 129.737C86.5342 129.837 86.4541 129.958 86.404 130.068C86.354 130.178 86.3039 130.328 86.2638 130.468C86.2238 130.608 86.1837 130.759 86.1537 130.899C86.1237 131.039 86.0836 131.149 86.0636 131.289C86.0264 131.478 85.9996 131.669 85.9835 131.86C85.9835 131.97 85.9835 132.08 85.9835 132.191C85.9835 132.501 85.9835 132.831 85.9835 133.192C85.9835 138.829 89.9888 145.678 94.8252 148.502C95.1356 148.682 95.436 148.833 95.7263 148.973L96.257 149.183L96.6175 149.323L96.968 149.423C97.1355 149.479 97.306 149.526 97.4786 149.563H97.6689C97.8771 149.607 98.0878 149.637 98.2997 149.654C99.3057 149.757 100.317 149.521 101.174 148.983C101.604 148.732 101.985 148.542 102.475 148.252C104.027 147.321 104.979 145.358 104.979 142.594C104.918 137.037 100.963 130.188 96.0768 127.344ZM93.5535 144.367C92.0415 143.185 89.9187 139.6 89.0776 137.608C89.5722 137.952 90.0872 138.266 90.6196 138.549C92.9226 139.741 92.8626 138.128 93.8038 139.25C94.745 140.371 94.5548 143.115 93.8038 144.527C93.7144 144.483 93.6304 144.43 93.5535 144.367ZM98.0394 133.893C97.9067 133.935 97.7791 133.993 97.6589 134.063L96.3071 134.834C96.0223 134.99 95.7866 135.223 95.6262 135.505C94.2198 133.576 93.4025 131.28 93.2731 128.896C95.2757 129.577 98.5501 132.331 99.0507 133.392C99.0952 133.471 99.1289 133.555 99.1509 133.642C98.7727 133.682 98.4 133.762 98.0394 133.883V133.893ZM91.3305 132.721C92.0715 135.395 93.193 135.805 93.2631 136.676C91.5208 136.396 88.6971 134.674 88.5068 133.022C88.4574 131.39 89.0017 129.796 90.0388 128.536C90.7698 128.856 90.7197 130.528 91.3305 132.711V132.721ZM96.3371 146.74C95.4159 145.899 96.4373 145.078 96.9079 143.335C97.134 142.506 97.134 141.631 96.9079 140.802C98.7103 142.224 101.434 145.979 100.733 147.09L100.643 147.2C99.0908 147.591 96.968 147.371 96.3271 146.73L96.3371 146.74ZM100.653 140.922C98.7303 138.359 97.9693 139.24 97.5087 137.868C97.4174 137.534 97.4276 137.18 97.5382 136.852C97.6488 136.524 97.8546 136.236 98.1295 136.026C98.6298 135.828 99.1842 135.814 99.6939 135.986C100.204 136.158 100.636 136.506 100.913 136.967C101.861 139.037 102.372 141.28 102.415 143.556C101.945 142.865 101.374 141.883 100.643 140.912L100.653 140.922Z" fill="#E0E0E0"/>
<path opacity="0.2" d="M96.0768 127.344C93.5735 125.892 91.3105 125.802 89.6984 126.813C89.3679 127.024 88.9674 127.204 88.5368 127.464C88.4175 127.528 88.3036 127.602 88.1964 127.685H88.1363C87.984 127.794 87.84 127.914 87.7058 128.045L87.6056 128.135C87.4844 128.258 87.3707 128.389 87.2652 128.526L87.145 128.686C87.0435 128.811 86.9531 128.945 86.8747 129.086L86.7345 129.327C86.6598 129.46 86.5929 129.597 86.5342 129.737C86.5342 129.837 86.4541 129.958 86.404 130.068C86.354 130.178 86.3039 130.328 86.2638 130.468C86.2238 130.608 86.1837 130.759 86.1537 130.899C86.1237 131.039 86.0836 131.149 86.0636 131.289C86.0264 131.478 85.9996 131.669 85.9835 131.86C85.9835 131.97 85.9835 132.08 85.9835 132.191C85.9835 132.501 85.9835 132.831 85.9835 133.192C85.9835 138.829 89.9888 145.678 94.8252 148.502C95.1356 148.682 95.436 148.833 95.7263 148.973L96.257 149.183L96.6175 149.323L96.968 149.423C97.1355 149.479 97.306 149.526 97.4786 149.563H97.6689C97.8771 149.607 98.0878 149.637 98.2997 149.654C99.3057 149.757 100.317 149.521 101.174 148.983C101.604 148.732 101.985 148.542 102.475 148.252C104.027 147.321 104.979 145.358 104.979 142.594C104.918 137.037 100.963 130.188 96.0768 127.344ZM93.5535 144.367C92.0415 143.185 89.9187 139.6 89.0776 137.608C89.5722 137.952 90.0872 138.266 90.6196 138.549C92.9226 139.741 92.8626 138.128 93.8038 139.25C94.745 140.371 94.5548 143.115 93.8038 144.527C93.7144 144.483 93.6304 144.43 93.5535 144.367ZM98.0394 133.893C97.9067 133.935 97.7791 133.993 97.6589 134.063L96.3071 134.834C96.0223 134.99 95.7866 135.223 95.6262 135.505C94.2198 133.576 93.4025 131.28 93.2731 128.896C95.2757 129.577 98.5501 132.331 99.0507 133.392C99.0952 133.471 99.1289 133.555 99.1509 133.642C98.7727 133.682 98.4 133.762 98.0394 133.883V133.893ZM91.3305 132.721C92.0715 135.395 93.193 135.805 93.2631 136.676C91.5208 136.396 88.6971 134.674 88.5068 133.022C88.4574 131.39 89.0017 129.796 90.0388 128.536C90.7698 128.856 90.7197 130.528 91.3305 132.711V132.721ZM96.3371 146.74C95.4159 145.899 96.4373 145.078 96.9079 143.335C97.134 142.506 97.134 141.631 96.9079 140.802C98.7103 142.224 101.434 145.979 100.733 147.09L100.643 147.2C99.0908 147.591 96.968 147.371 96.3271 146.73L96.3371 146.74ZM100.653 140.922C98.7303 138.359 97.9693 139.24 97.5087 137.868C97.4174 137.534 97.4276 137.18 97.5382 136.852C97.6488 136.524 97.8546 136.236 98.1295 136.026C98.6298 135.828 99.1842 135.814 99.6939 135.986C100.204 136.158 100.636 136.506 100.913 136.967C101.861 139.037 102.372 141.28 102.415 143.556C101.945 142.865 101.374 141.883 100.643 140.912L100.653 140.922Z" fill="black"/>
<path d="M94.715 128.135C89.8386 125.322 85.8733 127.605 85.8733 133.242C85.8733 138.879 89.8786 145.728 94.715 148.552C99.5514 151.376 103.547 149.083 103.547 143.445C103.547 137.808 99.6015 130.959 94.715 128.135ZM92.5221 128.736C94.2744 128.736 98.47 132.171 99.0507 133.382C99.6315 134.594 98.0494 134.143 96.6876 134.644C94.8953 135.275 95.7464 137.017 94.685 136.576C93.203 135.936 90.7798 128.706 92.5221 128.736ZM89.8887 128.466C90.7898 128.616 90.6797 130.378 91.3305 132.711C92.1516 135.665 93.4333 135.855 93.2531 136.957C92.9827 138.569 87.4154 136.156 87.145 133.773C86.8747 131.39 88.9875 128.345 89.8887 128.466ZM92.2017 145.118C90.2892 143.626 87.3853 138.309 87.3653 137.187C87.3453 136.066 88.8172 137.608 90.6196 138.539C92.9227 139.731 92.8626 138.118 93.8038 139.24C95.2057 140.872 94.1142 146.61 92.2017 145.118ZM100.703 147.12C99.7817 148.572 95.8866 148.372 94.9654 147.531C94.0441 146.69 95.0755 145.879 95.5461 144.126C96.1469 141.913 94.8352 140.722 95.5461 140.311C96.7076 139.67 101.614 145.628 100.703 147.08V147.12ZM99.2911 141.713C97.3685 139.16 96.6075 140.031 96.1469 138.659C95.456 136.656 99.5514 134.604 100.903 136.997C102.255 139.39 102.736 144.587 102.195 145.188C101.654 145.789 100.813 143.696 99.2911 141.673V141.713Z" fill="#E0E0E0"/>
<path d="M94.715 141.463C96.207 142.324 97.4186 141.633 97.4186 139.901C97.3643 138.964 97.0914 138.054 96.622 137.242C96.1525 136.43 95.4994 135.739 94.715 135.225C93.2231 134.363 92.0115 135.054 92.0115 136.787C92.0658 137.723 92.3386 138.634 92.8081 139.446C93.2776 140.258 93.9306 140.949 94.715 141.463Z" fill="#455A64"/>
<path d="M170.785 200.14L160.362 178.161L157.037 171.152C154.84 166.523 151.366 162.618 147.024 159.897V163.001C150.319 165.393 152.96 168.574 154.704 172.253L156.296 175.608L148.286 171.052V174.006L158.239 179.663L168.472 201.262C168.578 201.482 168.745 201.667 168.952 201.797C169.16 201.926 169.399 201.994 169.644 201.993C169.834 201.991 170.021 201.95 170.195 201.872C170.501 201.72 170.735 201.452 170.846 201.128C170.956 200.803 170.935 200.449 170.785 200.14Z" fill="#FAFAFA"/>
<path d="M141.547 169.269C137.902 176.159 139.084 184.94 139.214 187.934C139.344 190.928 137.842 190.337 137.001 187.934C136.16 185.531 133.907 175.678 137.712 167.087L141.547 169.269Z" fill="#EBEBEB"/>
<path d="M148.526 190.688C148.526 185.151 144.641 178.412 139.835 175.668C137.321 174.216 135.058 174.156 133.476 175.217L129.771 177.31L142.268 198.438L145.923 196.355C147.505 195.434 148.526 193.512 148.526 190.688Z" fill="#455A64"/>
<path d="M135.909 177.891C140.706 180.665 144.601 187.393 144.601 192.911C144.601 198.428 140.706 200.691 135.909 197.917C131.113 195.144 127.248 188.425 127.248 182.907C127.248 177.39 131.113 175.117 135.909 177.891Z" fill="#263238"/>
<path d="M135.909 184.419C136.801 184.999 137.544 185.78 138.076 186.701C138.609 187.621 138.916 188.655 138.973 189.716C138.973 191.669 137.602 192.46 135.909 191.479C135.019 190.899 134.278 190.117 133.747 189.197C133.216 188.276 132.911 187.243 132.855 186.182C132.855 184.209 134.257 183.418 135.909 184.419Z" fill="black"/>
<path d="M138.973 168.979C135.329 175.868 136.51 184.65 136.64 187.644C136.771 190.638 135.269 190.057 134.427 187.644C133.586 185.231 131.333 175.398 135.138 166.796L138.973 168.979Z" fill="#FAFAFA"/>
<path d="M148.186 172.404L111.828 150.815V154.65L142.869 172.994L146.874 175.348L147.575 175.758C147.857 175.92 148.179 176.002 148.505 175.995C148.831 175.987 149.148 175.89 149.423 175.715C149.697 175.539 149.919 175.292 150.062 174.999C150.206 174.707 150.267 174.38 150.238 174.056L149.908 170.571L148.186 172.404Z" fill="#37474F"/>
<path d="M123.443 236.328L106.01 226.265L161.794 194.042L179.237 204.115L123.443 236.328Z" fill="#0082F4"/>
<path d="M106.01 226.265V230.29L123.443 240.353V236.328L106.01 226.265Z" fill="#0082F4"/>
<path opacity="0.3" d="M106.01 226.265V230.29L123.443 240.353V236.328L106.01 226.265Z" fill="black"/>
<path d="M179.237 204.115V208.141L123.443 240.353V236.328L179.237 204.115Z" fill="#0082F4"/>
<path opacity="0.15" d="M179.237 204.115V208.141L123.443 240.353V236.328L179.237 204.115Z" fill="black"/>
<path d="M82.9094 188.765C83.0829 188.471 83.3648 188.258 83.6944 188.17C84.024 188.082 84.3749 188.126 84.6718 188.295L85.7732 188.935C90.5217 191.662 94.3204 195.779 96.6576 200.731L99.982 207.74L110.406 229.769C110.55 230.078 110.567 230.43 110.453 230.751C110.338 231.072 110.102 231.334 109.795 231.482C109.622 231.559 109.434 231.6 109.244 231.602C109 231.603 108.76 231.535 108.553 231.406C108.345 231.277 108.179 231.091 108.073 230.871L97.8391 209.272L84.9722 201.943C84.8136 201.865 84.6725 201.756 84.5576 201.622C84.4427 201.489 84.3565 201.333 84.3042 201.164C84.2519 200.996 84.2347 200.818 84.2537 200.643C84.2726 200.467 84.3272 200.298 84.4142 200.144C84.5012 199.991 84.6188 199.857 84.7596 199.75C84.9004 199.644 85.0614 199.568 85.2329 199.526C85.4043 199.485 85.5824 199.478 85.7563 199.508C85.9302 199.538 86.0961 199.603 86.2438 199.7L95.9166 205.187L94.3245 201.842C92.2128 197.359 88.7775 193.63 84.4815 191.158L83.3801 190.528C83.0863 190.354 82.8725 190.072 82.7844 189.743C82.6964 189.413 82.7413 189.062 82.9094 188.765Z" fill="#EBEBEB"/>
<path d="M82.2685 203.304C78.6237 210.193 79.8053 218.965 79.9355 221.969C80.0656 224.973 78.5737 224.372 77.7225 221.969C76.8714 219.566 74.6285 209.713 78.4435 201.122L82.2685 203.304Z" fill="#E0E0E0"/>
<path d="M89.2478 224.723C89.2478 219.185 85.3626 212.447 80.5663 209.703C78.043 208.251 75.79 208.191 74.1979 209.252L70.493 211.345L82.9595 232.483L86.6043 230.4C88.1964 229.479 89.2478 227.546 89.2478 224.723Z" fill="#455A64"/>
<path d="M76.6311 211.926C81.4375 214.689 85.3226 221.428 85.3226 226.946C85.3226 232.463 81.4375 234.736 76.6311 231.952C71.8248 229.169 67.9497 222.45 67.9497 216.932C67.9497 211.415 71.8348 209.152 76.6311 211.926Z" fill="#37474F"/>
<path d="M76.6312 218.464C77.5231 219.043 78.2656 219.825 78.798 220.746C79.3305 221.666 79.6379 222.699 79.6952 223.761C79.6952 225.714 78.3234 226.505 76.6312 225.524C75.7515 224.937 75.0215 224.152 74.4999 223.232C73.9782 222.312 73.6793 221.283 73.6272 220.227C73.5771 218.234 74.9489 217.463 76.6312 218.464Z" fill="#263238"/>
<path d="M79.6952 203.014C76.0504 209.903 77.2319 218.685 77.3621 221.679C77.4923 224.673 75.9903 224.092 75.1492 221.679C74.3081 219.265 72.0551 209.432 75.8601 200.831L79.6952 203.014Z" fill="#EBEBEB"/>
<path d="M23.9516 77.7187L27.316 71.921L13.0973 63.7302C12.8263 63.5999 12.5251 63.545 12.2255 63.5714C11.9259 63.5979 11.639 63.7046 11.395 63.8804C10.7051 64.3297 10.1314 64.9359 9.72065 65.6494C9.30993 66.363 9.07392 67.1636 9.03192 67.9858C9.00271 68.272 9.04825 68.5608 9.16409 68.8241C9.27992 69.0873 9.4621 69.316 9.69279 69.4878L23.9516 77.7187Z" fill="#455A64"/>
<path d="M23.2607 76.1866C23.2607 77.6986 24.3221 78.3195 25.6338 77.5585C26.325 77.1097 26.9003 76.5038 27.3127 75.7903C27.7252 75.0769 27.963 74.276 28.0069 73.453C28.0069 71.941 26.9455 71.3302 25.6338 72.0912C24.9439 72.539 24.3695 73.1433 23.9571 73.8549C23.5447 74.5666 23.3061 75.3654 23.2607 76.1866Z" fill="#37474F"/>
<path d="M25.754 73.423C25.8573 73.354 25.9741 73.3076 26.0966 73.2869C26.2191 73.2662 26.3446 73.2716 26.4649 73.3029L26.6552 73.423L36.5482 79.1306L33.394 80.953L25.1131 76.1967L24.7526 75.9964C24.6333 75.8194 24.5737 75.6089 24.5824 75.3956C24.6087 74.9978 24.7285 74.6119 24.9321 74.2691C25.1357 73.9263 25.4172 73.6364 25.754 73.423Z" fill="#E0E0E0"/>
<path d="M62.1621 55.6295L65.5165 49.8318L51.3278 41.641C51.0591 41.5083 50.7591 41.4521 50.4606 41.4786C50.1621 41.5051 49.8766 41.6133 49.6355 41.7912C48.9443 42.24 48.369 42.8459 47.9566 43.5593C47.5442 44.2728 47.3063 45.0737 47.2624 45.8967C47.2352 46.1826 47.2816 46.4708 47.3973 46.7337C47.513 46.9966 47.694 47.2255 47.9233 47.3986L62.1621 55.6295Z" fill="#455A64"/>
<path d="M61.5112 54.0975C61.5112 55.6095 62.5726 56.2203 63.8843 55.4693C64.572 55.0176 65.1441 54.4109 65.5545 53.6978C65.9649 52.9848 66.2023 52.1853 66.2474 51.3638C66.2474 49.8519 65.186 49.2411 63.8843 49.992C63.1942 50.442 62.6198 51.0481 62.2075 51.7614C61.7952 52.4746 61.5567 53.2749 61.5112 54.0975Z" fill="#37474F"/>
<path d="M64.0044 51.3339C64.1075 51.2643 64.2243 51.2175 64.3469 51.1968C64.4695 51.1761 64.5952 51.1819 64.7154 51.2137L64.8956 51.3339L74.7987 57.0414L71.6445 58.8638L63.4037 54.1075L63.0432 53.9073C62.9203 53.7315 62.8571 53.5209 62.8629 53.3065C62.8867 52.9116 63.0022 52.5276 63.2004 52.1852C63.3985 51.8427 63.6739 51.5512 64.0044 51.3339Z" fill="#E0E0E0"/>
<path d="M76.2306 72.3616L69.4617 76.2768L132.345 106.016C134.214 107.199 135.814 108.763 137.039 110.606C138.264 112.448 139.087 114.528 139.454 116.71L148.055 172.404C148.089 172.552 148.156 172.692 148.252 172.81C148.348 172.929 148.469 173.025 148.607 173.089C148.745 173.154 148.896 173.186 149.049 173.184C149.202 173.181 149.351 173.144 149.487 173.075C149.818 172.894 149.998 172.534 149.888 171.182L144.971 111.974C144.416 108.004 142.327 104.409 139.154 101.961L76.2306 72.3616Z" fill="#455A64"/>
<path d="M80.9768 174.817L28.7379 144.637C27.7778 144.01 26.9791 143.166 26.4067 142.172C25.8343 141.179 25.5043 140.064 25.4436 138.919V135.835C25.5043 134.69 25.8343 133.576 26.4067 132.582C26.9791 131.589 27.7778 130.745 28.7379 130.118L80.9768 99.958C82.0012 99.4397 83.1332 99.1697 84.2812 99.1697C85.4292 99.1697 86.5612 99.4397 87.5856 99.958L139.815 130.118C140.776 130.744 141.576 131.588 142.15 132.582C142.724 133.575 143.056 134.69 143.119 135.835V138.959C143.056 140.105 142.724 141.22 142.15 142.213C141.576 143.207 140.776 144.051 139.815 144.677L87.5856 174.817C86.5612 175.335 85.4292 175.605 84.2812 175.605C83.1332 175.605 82.0012 175.335 80.9768 174.817Z" fill="#0082F4"/>
<path opacity="0.3" d="M81.9481 175.237C81.6017 175.13 81.2664 174.989 80.9468 174.817L28.7379 144.637C27.7778 144.01 26.9791 143.166 26.4067 142.172C25.8343 141.179 25.5043 140.064 25.4436 138.919V135.835C25.5047 134.82 25.7734 133.827 26.2333 132.92C26.6931 132.012 27.3343 131.208 28.1171 130.558C26.9455 131.61 27.1158 133.012 28.7379 133.933L80.7265 163.973L81.9481 175.237Z" fill="black"/>
<path opacity="0.15" d="M143.119 135.835V138.96C143.058 140.106 142.727 141.221 142.152 142.215C141.578 143.208 140.777 144.052 139.815 144.677L87.5756 174.827C86.7098 175.26 85.7673 175.518 84.8017 175.587C83.8361 175.656 82.8665 175.533 81.9482 175.227L80.7265 163.942L80.9769 164.093C81.9995 164.611 83.1298 164.881 84.2762 164.881C85.4226 164.881 86.5529 164.611 87.5756 164.093L139.815 133.933C141.407 133.022 141.617 131.6 140.435 130.558C141.223 131.205 141.868 132.008 142.329 132.916C142.791 133.824 143.06 134.818 143.119 135.835Z" fill="black"/>
<path d="M99.5614 110.682L47.3225 140.852C46.1345 141.473 44.7922 141.737 43.4574 141.613C43.2571 141.613 43.0668 141.613 42.8766 141.553H42.7564L42.406 141.483C42.2299 141.45 42.056 141.407 41.8853 141.353C41.4949 141.239 41.1187 141.081 40.7638 140.882L38.0702 139.33C36.0525 138.034 34.6165 136.006 34.065 133.672L26.1145 89.2939C26.0659 89.0229 26.0424 88.7481 26.0444 88.4728C26.0444 88.3627 26.0444 88.2525 26.0444 88.1424C26.187 86.5481 26.9448 85.072 28.1572 84.0269L28.3774 83.8567L28.7279 83.6364L80.9669 53.4766C81.9895 52.9584 83.1198 52.6884 84.2662 52.6884C85.4126 52.6884 86.5429 52.9584 87.5656 53.4766L90.2591 55.0287C90.8458 55.381 91.3787 55.816 91.8412 56.3204C91.9364 56.4123 92.0267 56.5092 92.1116 56.6108C92.4823 57.0149 92.8174 57.4505 93.1129 57.9125C93.1823 58.0032 93.2426 58.1004 93.2931 58.2029C93.3508 58.2886 93.401 58.379 93.4433 58.4732C93.5179 58.5992 93.5848 58.7296 93.6436 58.8637C93.7119 58.99 93.7721 59.1204 93.8238 59.2542C93.8238 59.3644 93.9139 59.4745 93.954 59.5847C93.9783 59.6329 93.9984 59.6832 94.0141 59.7349C94.0141 59.835 94.0742 59.9351 94.1042 60.0253C94.1342 60.1154 94.1843 60.2856 94.2143 60.4058L94.2744 60.6861L102.215 105.035C102.358 106.131 102.185 107.246 101.714 108.247C101.244 109.247 100.497 110.093 99.5614 110.682Z" fill="#0082F4"/>
<path d="M35.4067 94.661L43.3472 138.999C43.3738 139.452 43.5225 139.888 43.7776 140.262C44.0326 140.636 44.3844 140.934 44.7954 141.125C45.2064 141.315 45.6613 141.39 46.1116 141.342C46.562 141.294 46.9908 141.124 47.3525 140.852L99.5915 110.692C100.522 110.097 101.264 109.248 101.729 108.246C102.193 107.244 102.362 106.13 102.215 105.035L94.2044 60.6861C94.1761 60.2349 94.0261 59.7997 93.7704 59.4269C93.5147 59.054 93.1628 58.7573 92.7521 58.5684C92.3414 58.3795 91.8871 58.3053 91.4376 58.3538C90.9881 58.4022 90.5601 58.5715 90.1991 58.8437L38.0302 89.0035C37.1002 89.5994 36.3594 90.4482 35.8947 91.4502C35.4301 92.4523 35.2608 93.5661 35.4067 94.661Z" fill="#0082F4"/>
<path opacity="0.15" d="M35.4067 94.661L43.3472 138.999C43.3738 139.452 43.5225 139.888 43.7776 140.262C44.0326 140.636 44.3844 140.934 44.7954 141.125C45.2064 141.315 45.6613 141.39 46.1116 141.342C46.562 141.294 46.9908 141.124 47.3525 140.852L99.5915 110.692C100.522 110.097 101.264 109.248 101.729 108.246C102.193 107.244 102.362 106.13 102.215 105.035L94.2044 60.6861C94.1761 60.2349 94.0261 59.7997 93.7704 59.4269C93.5147 59.054 93.1628 58.7573 92.7521 58.5684C92.3414 58.3795 91.8871 58.3053 91.4376 58.3538C90.9881 58.4022 90.5601 58.5715 90.1991 58.8437L38.0302 89.0035C37.1002 89.5994 36.3594 90.4482 35.8947 91.4502C35.4301 92.4523 35.2608 93.5661 35.4067 94.661Z" fill="black"/>
<path opacity="0.3" d="M45.9707 141.363C45.1509 141.575 44.3021 141.653 43.4574 141.593C43.2571 141.593 43.0668 141.593 42.8766 141.533L42.406 141.443C42.2299 141.41 42.056 141.367 41.8853 141.313C41.4949 141.199 41.1187 141.041 40.7638 140.842L38.0702 139.29C36.0525 137.994 34.6165 135.966 34.065 133.633L26.1145 89.294C26.0659 89.023 26.0424 88.7482 26.0444 88.4729C26.0444 88.3627 26.0444 88.2526 26.0444 88.1425C26.0901 87.5869 26.2148 87.0407 26.4149 86.5203L35.7272 91.8173C35.3581 92.7169 35.2438 93.7008 35.3967 94.6611L43.3372 139C43.381 139.651 43.6802 140.258 44.1697 140.689C44.6592 141.121 45.2993 141.341 45.9506 141.303L45.9707 141.363Z" fill="black"/>
<path d="M121.29 212.637C120.149 212.767 120.289 213.938 120.179 216.642C120.179 217.383 119.388 221.579 120.559 224.653C123.863 229.459 127.859 229.018 131.744 233.154C134.858 236.458 139.314 240.634 147.064 240.283C156.567 239.843 159.831 233.765 157.077 231.832C154.073 229.699 147.014 227.356 138.052 218.755C133.636 214.459 121.29 212.637 121.29 212.637Z" fill="#37474F"/>
<path d="M129.881 188.325C129.881 188.325 131.383 208.231 134.097 212.677C136.931 217.313 142.048 221.639 146.493 225.624C147.495 226.495 149.577 228.107 150.409 228.758C152.251 230.19 151.029 231.291 149.407 231.762C145.682 232.873 141.887 232.193 137.391 229.649C132.225 226.715 130.052 224.192 125.436 220.577C123.967 219.486 122.667 218.184 121.58 216.712C121.103 215.755 120.905 214.683 121.01 213.618C120.917 212.208 120.706 210.808 120.379 209.432C119.578 205.597 115.993 192.22 115.993 192.22L129.881 188.325Z" fill="#FFA8A7"/>
<path d="M144.27 197.777C143.129 197.897 143.269 199.079 143.159 201.782C143.159 202.523 142.368 206.729 143.539 209.793C146.834 214.589 150.839 214.149 154.724 218.284C157.838 221.598 162.294 225.764 170.044 225.414C179.547 224.983 182.811 218.895 180.058 216.962C177.054 214.83 169.994 212.486 161.033 203.945C156.647 199.579 144.27 197.777 144.27 197.777Z" fill="#37474F"/>
<path d="M152.892 173.455C152.892 173.455 154.394 193.361 157.107 197.807C159.941 202.443 165.058 206.769 169.504 210.754C170.505 211.625 172.588 213.248 173.419 213.888C175.261 215.32 174.04 216.422 172.418 216.892C168.703 217.994 164.908 217.313 160.402 214.77C155.235 211.836 153.052 209.312 148.446 205.698C146.974 204.607 145.672 203.304 144.581 201.832C144.113 200.876 143.915 199.809 144.01 198.748C143.926 197.334 143.718 195.931 143.389 194.553C142.588 190.718 139.003 177.35 139.003 177.35L152.892 173.455Z" fill="#FFA8A7"/>
<path d="M148.276 135.815C144.581 128.215 130.142 122.027 122.141 118.172C115.893 115.168 105.92 109.721 105.92 109.721L54.1515 114.457C54.1515 114.307 51.8685 126.693 57.2656 135.675C62.5926 144.457 72.6058 149.113 79.1845 152.377C90.1991 157.884 105.92 165.785 105.92 165.785C105.92 165.785 105.569 168.428 107.542 175.408C109.154 181.135 110.366 184.129 113.55 192.06C118.556 204.546 119.688 207.58 119.688 207.58C124.033 208.267 128.48 207.406 132.255 205.147C132.255 205.147 129.1 162.681 128.319 158.685C127.258 153.208 126.857 151.306 123.313 148.522L129.381 151.306C129.66 157.936 130.967 164.482 133.256 170.711C135.829 177.58 142.919 194.563 142.919 194.563C146.764 195.684 153.503 193.732 155.495 191.559C155.495 191.599 152.001 143.415 148.276 135.815Z" fill="#37474F"/>
<path d="M129.411 151.306L123.403 148.522C118.546 143.515 94.4246 126.823 94.4246 126.823C98.1395 124.951 102.215 121.817 104.308 117.631C103.767 122.087 100.182 126.563 100.182 126.563L129.411 151.306Z" fill="#263238"/>
<path d="M124.624 55.7697C124.666 54.7366 124.623 53.7017 124.494 52.6756C124.014 47.7291 125.756 42.9528 127.739 38.517C128.079 37.756 128.43 36.995 128.74 36.244C128.923 35.8837 129.083 35.5125 129.221 35.1325C129.331 34.772 129.441 34.4616 129.931 34.4716C130.272 34.5073 130.588 34.6636 130.823 34.9122C131.207 35.3287 131.5 35.8208 131.682 36.3571C131.865 36.8934 131.934 37.4619 131.884 38.0263C131.78 39.1505 131.576 40.2631 131.273 41.3507C131.093 42.2018 131.994 41.7913 132.395 41.5309C134.327 40.2793 135.909 36.9649 136.901 34.9122C137.436 33.5324 138.072 32.1937 138.803 30.9069C139.306 30.1207 140.036 29.506 140.896 29.1446C141.487 28.9243 142.098 28.9243 142.298 29.6853C142.367 30.1722 142.326 30.6684 142.178 31.1372C142.013 31.5857 141.946 32.0641 141.98 32.5406C142.015 33.0171 142.15 33.4808 142.378 33.9009C142.804 34.4201 143.16 34.9923 143.439 35.6031C143.558 36.4497 143.632 37.302 143.66 38.1565C143.923 38.8432 144.231 39.5122 144.581 40.1591C144.693 41.0348 144.625 41.9242 144.381 42.7726C144.053 44.5469 143.494 46.2706 142.718 47.8994C141.507 50.3594 140.04 52.6853 138.343 54.8385C137.333 55.9828 136.575 57.3271 136.12 58.7837C135.826 60.2878 135.682 61.8173 135.689 63.3497C135.639 65.2723 135.639 67.1848 135.579 69.0973C135.098 89.8147 133.516 94.2405 131.373 96.9241C129.861 98.8266 126.297 101.931 118.987 96.7138C110.876 90.9061 93.8939 70.9097 93.8939 70.9097L93.8238 49.1009C93.8238 49.1009 100.973 50.2825 104.618 54.8886C109.625 61.1969 121.23 75.8062 121.23 75.8062C121.23 75.8062 124.244 58.5134 124.624 55.7697Z" fill="#FFA8A7"/>
<path d="M131.564 44.7552C132.21 47.4997 132.065 50.3713 131.143 53.0362C132.033 51.801 132.586 50.3548 132.745 48.8406C132.835 46.4875 132.255 45.5463 131.564 44.7552Z" fill="#F28F8F"/>
<path d="M93.7237 48.6603C99.4813 50.0121 101.955 50.7731 105.89 55.4793C109.825 60.1855 121.24 74.8549 121.24 74.8549L123.443 62.839C123.443 62.839 124.765 65.7128 129.451 67.0145C134.137 68.3162 135.659 66.4938 135.659 66.4938C135.659 66.4938 135.979 75.0151 135.659 81.6538C135.339 88.2926 134.217 96.6737 129.931 99.187C125.646 101.7 120.589 99.8779 115.252 94.661C109.915 89.4441 93.5134 73.413 93.5134 73.413L93.7237 48.6603Z" fill="#0082F4"/>
<path opacity="0.5" d="M93.7237 48.6603C99.4813 50.0121 101.955 50.7731 105.89 55.4793C109.825 60.1855 121.24 74.8549 121.24 74.8549L123.443 62.839C123.443 62.839 124.765 65.7128 129.451 67.0145C134.137 68.3162 135.659 66.4938 135.659 66.4938C135.659 66.4938 135.979 75.0151 135.659 81.6538C135.339 88.2926 134.217 96.6737 129.931 99.187C125.646 101.7 120.589 99.8779 115.252 94.661C109.915 89.4441 93.5134 73.413 93.5134 73.413L93.7237 48.6603Z" fill="black"/>
<path opacity="0.2" d="M121.24 74.8549C120.303 78.6071 119.928 82.4778 120.129 86.3401C120.129 86.3401 117.725 79.0504 119.668 72.8523L121.24 74.8549Z" fill="black"/>
<path d="M123.243 64.2609L124.184 58.8037C125.416 60.8839 127.403 62.4084 129.731 63.0593C133.737 64.3009 135.739 62.9892 135.739 62.9892V68.3262C133.585 69.2427 131.165 69.3142 128.96 68.5265C126.636 67.7742 124.626 66.2744 123.243 64.2609Z" fill="#0082F4"/>
<path opacity="0.7" d="M123.243 64.2609L124.184 58.8037C125.416 60.8839 127.403 62.4084 129.731 63.0593C133.737 64.3009 135.739 62.9892 135.739 62.9892V68.3262C133.585 69.2427 131.165 69.3142 128.96 68.5265C126.636 67.7742 124.626 66.2744 123.243 64.2609Z" fill="black"/>
<path d="M107.292 110.472L102.095 99.9881L103.977 87.5116C110.676 84.027 111.597 76.8676 109.715 70.6193C108.253 65.7729 105.249 60.9365 102.886 57.5421C98.5 51.2838 95.5161 49.7818 93.7237 48.6603C91.1403 48.1897 89.1977 48.0095 89.1977 48.0095C89.1977 48.0095 77.272 47.4888 70.2828 49.922C66.6128 51.1824 63.0302 52.6843 59.5586 54.4179C60.9404 58.0327 63.4638 67.9758 61.4812 74.1039C59.088 81.4837 56.845 79.7714 56.845 79.7714C55.5491 85.7798 54.7553 91.8855 54.4719 98.0255C53.8611 107.768 53.4706 113.836 53.3304 121.466C63.1233 126.273 78.013 126.834 90.3192 122.578C100.212 119.153 107.292 110.472 107.292 110.472Z" fill="#0082F4"/>
<path opacity="0.6" d="M107.292 110.472L102.095 99.9881L103.977 87.5116C110.676 84.027 111.597 76.8676 109.715 70.6193C108.253 65.7729 105.249 60.9365 102.886 57.5421C98.5 51.2838 95.5161 49.7818 93.7237 48.6603C91.1403 48.1897 89.1977 48.0095 89.1977 48.0095C89.1977 48.0095 77.272 47.4888 70.2828 49.922C66.6128 51.1824 63.0302 52.6843 59.5586 54.4179C60.9404 58.0327 63.4638 67.9758 61.4812 74.1039C59.088 81.4837 56.845 79.7714 56.845 79.7714C55.5491 85.7798 54.7553 91.8855 54.4719 98.0255C53.8611 107.768 53.4706 113.836 53.3304 121.466C63.1233 126.273 78.013 126.834 90.3192 122.578C100.212 119.153 107.292 110.472 107.292 110.472Z" fill="black"/>
<path opacity="0.2" d="M90.1991 91.2967C87.331 93.3243 83.798 94.1827 80.3193 93.6972C76.8406 93.2116 73.6776 91.4186 71.4743 88.6832C72.2306 90.4415 73.418 91.9807 74.9266 93.1585C76.4353 94.3364 78.2165 95.1149 80.1057 95.4221C88.0062 96.5135 90.1991 91.2967 90.1991 91.2967Z" fill="black"/>
<path d="M97.8792 22.7862C103.236 17.9999 101.774 9.6789 97.4987 5.53343C91.6409 -0.14406 80.4762 -0.784916 74.3882 0.656987C70.2527 1.65831 65.5565 4.24173 64.4851 8.03674C60.2996 12.2723 58.4772 18.4204 60.1994 25.64C61.9217 32.8595 68.17 35.9235 68.2901 39.1478L97.8792 22.7862Z" fill="#263238"/>
<path d="M64.4851 8.03673C61.0105 8.5474 56.4745 14.7756 58.1968 25.0592C59.5786 33.0698 55.6234 39.7185 57.3056 42.9228C58.9878 46.127 62.8429 46.9281 63.8843 46.6477C63.2233 45.9873 62.717 45.1886 62.4019 44.309C62.0868 43.4294 61.9707 42.4908 62.0619 41.561C62.0619 41.561 63.8142 47.3486 71.9149 47.9694C80.0156 48.5902 84.1911 47.619 84.1911 47.619C84.1911 47.619 95.0254 49.2211 99.271 38.6071C94.7851 39.1678 91.0902 31.6579 90.93 20.5833C90.7698 9.50867 90.7698 8.41722 90.7698 8.41722L64.4851 8.03673Z" fill="#263238"/>
<path d="M63.1634 23.6373C66.3175 22.9063 67.3489 25.1393 68.961 26.0204C69.1665 26.1233 69.3924 26.1786 69.6221 26.1823C69.8518 26.186 70.0794 26.1381 70.2881 26.0419C70.4967 25.9457 70.6811 25.8039 70.8275 25.6268C70.9739 25.4498 71.0786 25.2421 71.1339 25.0191C71.5444 22.8062 70.7534 17.9097 73.2066 14.9058C76.2106 11.1608 79.9856 10.3297 84.6618 13.3637C89.5382 8.15686 97.2283 9.72894 98.1796 25.9203C98.9106 38.3868 95.6162 41.9415 93.8539 43.0529C91.2605 44.7452 88.4768 44.7151 84.842 44.5849L84.9822 50.693C84.9822 50.693 93.3833 57.7023 86.2939 59.8851C75.2493 63.2596 68.8909 51.2437 68.8909 51.2437L68.0398 33.9809C67.8396 35.1825 64.0345 35.7733 62.092 33.6205C58.7576 29.8555 59.2883 24.5285 63.1634 23.6373Z" fill="#FFA8A7"/>
<path d="M82.1884 34.4115L87.6356 35.8334C87.5354 36.2127 87.3573 36.5669 87.1126 36.8736C86.8678 37.1802 86.5619 37.4325 86.2143 37.6143C85.8666 37.7961 85.4849 37.9035 85.0935 37.9296C84.702 37.9557 84.3095 37.9 83.9408 37.7659C83.603 37.6645 83.2889 37.4966 83.017 37.272C82.7451 37.0474 82.5209 36.7706 82.3577 36.458C82.1944 36.1454 82.0953 35.8033 82.0662 35.4519C82.0371 35.1004 82.0787 34.7467 82.1884 34.4115Z" fill="#874C4C"/>
<path d="M85.5228 37.836C85.3923 37.1169 85.004 36.47 84.4308 36.0165C83.8575 35.5631 83.1386 35.3342 82.4087 35.3728H82.1384C82.1531 35.9079 82.339 36.4243 82.6688 36.846C82.9986 37.2677 83.455 37.5726 83.9708 37.7159C84.4701 37.8845 85.0036 37.9258 85.5228 37.836Z" fill="#F28F8F"/>
<path d="M86.2738 21.3443L87.6657 31.708L93.4032 30.216C91.3505 26.2108 89.0074 23.2068 86.2738 21.3443Z" fill="#F28F8F"/>
<path d="M95.476 19.7723L91.4707 18.7709C91.5228 18.5069 91.6275 18.2561 91.7787 18.0335C91.9298 17.8108 92.1243 17.6209 92.3505 17.4751C92.5766 17.3293 92.8299 17.2306 93.0951 17.1848C93.3603 17.1391 93.6319 17.1473 93.8939 17.2089C94.4378 17.3489 94.9063 17.694 95.2012 18.1719C95.4962 18.6498 95.5947 19.2234 95.476 19.7723Z" fill="#263238"/>
<path d="M77.4422 22.2956L80.9368 19.9725C80.7979 19.7361 80.6119 19.5307 80.3904 19.3691C80.1689 19.2075 79.9165 19.0932 79.649 19.0331C79.3814 18.973 79.1044 18.9685 78.835 19.0199C78.5657 19.0712 78.3097 19.1774 78.0831 19.3317C77.617 19.6497 77.2907 20.1344 77.1715 20.6858C77.0523 21.2373 77.1492 21.8135 77.4422 22.2956Z" fill="#263238"/>
<path d="M91.691 23.5372C91.7091 23.9489 91.8862 24.3376 92.185 24.6214C92.4838 24.9053 92.881 25.0622 93.2931 25.0592C93.4942 25.0607 93.6935 25.0215 93.879 24.944C94.0645 24.8665 94.2325 24.7523 94.3728 24.6083C94.513 24.4642 94.6228 24.2933 94.6954 24.1058C94.7679 23.9183 94.8019 23.7181 94.7951 23.5171C94.777 23.1054 94.5999 22.7168 94.3011 22.4329C94.0023 22.1491 93.6051 21.9921 93.193 21.9951C92.9919 21.9937 92.7927 22.0329 92.6071 22.1104C92.4216 22.1878 92.2537 22.302 92.1134 22.4461C91.9731 22.5901 91.8634 22.761 91.7908 22.9485C91.7182 23.136 91.6843 23.3362 91.691 23.5372Z" fill="#263238"/>
<path d="M79.3146 25.2094C79.3303 25.622 79.5066 26.0121 79.8059 26.2965C80.1053 26.5809 80.5039 26.7369 80.9168 26.7314C81.1183 26.7315 81.3178 26.6911 81.5033 26.6125C81.6889 26.5339 81.8568 26.4188 81.9969 26.2739C82.1371 26.1291 82.2466 25.9576 82.3191 25.7695C82.3916 25.5815 82.4255 25.3808 82.4187 25.1794C82.398 24.7677 82.2185 24.38 81.9178 24.098C81.6171 23.816 81.2188 23.6617 80.8066 23.6674C80.606 23.6659 80.4072 23.7051 80.2222 23.7827C80.0372 23.8603 79.8698 23.9746 79.7303 24.1188C79.5908 24.263 79.4821 24.434 79.4106 24.6215C79.3392 24.8089 79.3065 25.0089 79.3146 25.2094Z" fill="#263238"/>
<path d="M84.8119 44.5649C81.2572 44.1944 74.7186 42.5623 73.507 39.6785C73.507 39.6785 73.507 42.0516 76.2907 43.9942C78.6538 45.6263 84.852 46.4274 84.852 46.4274L84.8119 44.5649Z" fill="#F28F8F"/>
<path d="M86.2639 59.8651L82.589 56.0801C79.4986 56.6093 76.3229 55.9318 73.7173 54.1876C71.8477 52.9265 70.1913 51.375 68.8109 49.5916L68.891 51.2337C70.8235 55.3091 77.262 63.1495 86.2639 59.8651Z" fill="#E0E0E0"/>
<path d="M83.1898 56.671C82.529 55.98 81.5377 56.5208 80.4863 58.4333C79.4349 60.3458 78.9943 63.5701 78.4836 64.261C77.973 64.9519 76.1706 63.6702 73.9877 61.7176C71.8048 59.7651 67.6593 55.4093 65.6867 51.7044C66.6274 50.9397 67.3236 49.9163 67.6894 48.7605C68.14 47.5289 68.0398 46.7579 68.7508 46.7579L68.8209 48.35C69.9548 50.2041 71.6088 51.684 73.5772 52.6056C80.1158 55.8098 80.6465 53.7571 83.1898 56.671Z" fill="#F0F0F0"/>
<path d="M86.2639 59.8651L85.3727 55.4393C85.6328 54.6584 85.7297 53.8323 85.6574 53.0124C85.585 52.1925 85.345 51.3962 84.9522 50.673C87.9761 52.976 92.2017 58.1629 86.2639 59.8651Z" fill="#E0E0E0"/>
<path d="M85.7232 57.1916C85.563 55.189 86.5743 54.8085 87.2452 55.0488C87.9161 55.2891 90.2492 57.7524 91.3406 58.8338C92.1717 59.6649 92.0215 56.741 91.0202 54.2477C90.0189 51.7544 84.842 45.7265 84.842 45.7265L84.9522 50.673C85.248 51.7478 85.3497 52.8668 85.2526 53.9774C85.2263 55.0677 85.3855 56.1546 85.7232 57.1916Z" fill="#F0F0F0"/>
<path d="M29.3187 107.188L30.0697 111.373L75.8501 138.519C77.5334 139.855 78.9251 141.521 79.9395 143.416C80.9538 145.31 81.5693 147.392 81.7479 149.534L87.4054 208.141C87.4153 208.322 87.3759 208.503 87.2912 208.663C87.2066 208.823 87.0799 208.958 86.9248 209.052C86.7748 209.146 86.6012 209.196 86.4241 209.196C86.247 209.196 86.0734 209.146 85.9234 209.052L67.6493 198.438V194.593L82.8193 203.445L76.1806 153.268C75.8149 151.087 74.9937 149.007 73.7705 147.165C72.5473 145.322 70.9494 143.758 69.0812 142.574L28.3875 116.84C20.5471 111.904 22.3595 112.655 29.3187 107.188Z" fill="#455A64"/>
<path d="M39.2818 134.263L37.2792 133.102C33.1374 130.533 28.4093 129.061 23.5411 128.826H23.1806C22.4646 128.825 21.7492 128.866 21.0378 128.946C17.8884 129.288 14.8405 130.262 12.0771 131.81C9.31365 133.359 6.89166 135.45 4.95654 137.958L4.72624 138.239C4.59607 138.399 4.46589 138.569 4.34574 138.739L4.09541 139.09C3.98526 139.24 3.89514 139.38 3.80502 139.53C3.7149 139.68 3.43453 140.091 3.27432 140.391L3.09408 140.712C3.01398 140.842 2.93387 140.992 2.85377 141.142V141.192C0.986266 144.625 0.00534663 148.47 0 152.377V153.379C0 153.809 0 154.25 0 154.69V157.003C0 177.03 14.0185 201.402 31.4115 211.415L33.4141 212.577C37.5578 215.127 42.2819 216.581 47.1422 216.802H47.4226H48.2337H48.494C48.7343 216.802 48.9646 216.802 49.1949 216.742C49.4252 216.682 49.4352 216.742 49.5454 216.742H49.7256C52.9846 216.374 56.1306 215.328 58.962 213.673C61.7934 212.017 64.2476 209.789 66.1673 207.129C66.3376 206.909 66.4878 206.689 66.648 206.459L66.708 206.379C66.8883 206.108 67.0585 205.838 67.2287 205.557C69.5068 201.854 70.7099 197.589 70.7033 193.241V188.675C70.6933 168.639 56.6348 144.277 39.2818 134.263ZM32.3928 205.137C17.7434 196.686 5.86775 176.099 5.86775 159.206C5.86775 142.314 17.7434 135.435 32.3928 143.896C47.0421 152.357 58.9078 172.934 58.9078 189.827C58.9078 206.719 47.0321 213.598 32.3928 205.137Z" fill="#455A64"/>
<path d="M33.3941 137.668L31.3914 136.506C22.8101 131.55 15.0298 131.039 9.36235 134.203C9.21215 134.283 9.07197 134.373 8.92177 134.474L8.81162 134.534C8.6414 134.644 8.47117 134.744 8.31096 134.864C8.15075 134.984 7.97051 135.084 7.8103 135.205C7.48988 135.445 7.16946 135.685 6.85905 135.966L6.40845 136.366C6.1064 136.645 5.81897 136.939 5.54731 137.247C5.39916 137.397 5.2588 137.554 5.12676 137.718C4.98658 137.878 4.8564 138.038 4.72623 138.209C4.59606 138.379 4.46589 138.539 4.34573 138.709L4.0954 139.06C3.98525 139.21 3.89513 139.35 3.80501 139.5C3.7149 139.65 3.43453 140.061 3.27432 140.361L3.09408 140.682C3.01397 140.812 2.93387 140.962 2.85376 141.112L2.64348 141.553C2.38314 142.084 2.13281 142.634 1.91252 143.205C1.79236 143.506 1.6722 143.816 1.57207 144.126C1.3718 144.697 1.20158 145.288 1.04137 145.889C0.951249 146.209 0.871143 146.54 0.791037 146.89L0.55072 148.052L0.460601 148.612C0.400522 148.933 0.360468 149.253 0.310402 149.614C0.260336 149.974 0.220284 150.335 0.180231 150.715C0.185155 150.775 0.185155 150.835 0.180231 150.895C0.180231 151.216 0.120152 151.536 0.100126 151.897C0.100126 152.027 0.100126 152.157 0.100126 152.287C0.100126 152.648 0.100125 153.008 0.0500593 153.379C-6.79085e-06 153.749 0.0500593 154.25 0.0500593 154.69V157.003C0.0500593 177.03 14.0686 201.402 31.4615 211.415L33.4642 212.577C38.4708 215.481 43.2671 216.862 47.4827 216.862H48.2937H48.5541C48.7944 216.862 49.0247 216.862 49.255 216.802C49.4853 216.742 49.4953 216.802 49.6055 216.802L50.2964 216.702C50.4986 216.677 50.6992 216.64 50.8972 216.592C51.0963 216.564 51.2935 216.523 51.4879 216.472C51.8684 216.382 52.2389 216.282 52.5894 216.171L53.05 216.021C53.2202 215.961 53.3905 215.911 53.5507 215.841L53.9712 215.671C54.2716 215.541 54.572 215.41 54.8624 215.26C55.0099 215.195 55.1536 215.121 55.293 215.04L55.4131 214.97C55.4719 214.944 55.5287 214.914 55.5834 214.88L55.8537 214.72C61.4311 211.395 64.8656 204.406 64.8656 194.503V192.19C64.8055 172.043 50.737 147.681 33.3941 137.668ZM32.3927 205.137C17.7434 196.686 5.86774 176.099 5.86774 159.206C5.86774 142.314 17.7434 135.435 32.3927 143.896C47.0421 152.357 58.9077 172.934 58.9077 189.827C58.9077 206.719 47.0321 213.598 32.3927 205.137Z" fill="#37474F"/>
<path d="M52.1488 200.801C47.9533 205.808 40.6837 206.499 32.4228 201.742C19.4056 194.223 8.84169 175.938 8.84169 160.899C8.84169 154.19 10.9545 149.253 14.4491 146.52C12.0159 149.393 10.604 153.699 10.604 159.206C10.604 174.226 21.1579 192.52 34.1751 200.04C41.3446 204.196 47.7931 204.186 52.1488 200.801Z" fill="#0082F4"/>
<path opacity="0.2" d="M52.1488 200.801C47.9533 205.808 40.6837 206.499 32.4228 201.742C19.4056 194.223 8.84169 175.938 8.84169 160.899C8.84169 154.19 10.9545 149.253 14.4491 146.52C12.0159 149.393 10.604 153.699 10.604 159.206C10.604 174.226 21.1579 192.52 34.1751 200.04C41.3446 204.196 47.7931 204.186 52.1488 200.801Z" fill="black"/>
<path d="M32.3927 143.896C17.7434 135.435 5.86773 142.294 5.86773 159.206C5.86773 176.119 17.7434 196.686 32.3927 205.137C47.0421 213.588 58.9077 206.739 58.9077 189.827C58.9077 172.914 47.0321 152.377 32.3927 143.896ZM32.3927 201.732C19.3756 194.223 8.81161 175.938 8.81161 160.909C8.81161 145.879 19.3655 139.781 32.3927 147.291C45.4199 154.8 55.9638 173.095 55.9638 188.124C55.9638 203.154 45.4099 209.252 32.3927 201.732Z" fill="#0082F4"/>
<path d="M55.1528 180.645C55.1028 180.384 55.0427 180.114 54.9826 179.854L34.4555 174.346L33.9849 173.655L49.0748 164.944L48.7043 164.323L33.6244 173.035L33.2639 172.284L38.7111 151.947L38.1303 151.376L32.7733 171.402L32.0423 170.571L26.7754 144.817L25.9943 144.607L31.1912 170.011L30.3701 169.89L16.2014 145.368C15.9811 145.478 15.7708 145.588 15.5606 145.718L29.7192 170.261L29.4088 171.042L9.81297 153.659C9.73287 153.909 9.65276 154.17 9.58267 154.43L29.4689 172.063L29.8194 173.065L9.47252 167.607L9.62272 168.398L30.32 173.946L30.7907 174.637L15.4003 183.558C15.5105 183.769 15.6307 183.979 15.7508 184.189L31.1211 175.298L31.4816 176.049L25.9142 196.946L26.515 197.497L32.0223 176.92L32.7533 177.751L38.1303 204.246C38.4007 204.326 38.6611 204.386 38.9214 204.446L33.5643 178.311L34.3954 178.432L48.8545 203.465L49.4753 203.094L35.0263 178.061L35.3266 177.28L55.1528 194.813C55.2229 194.553 55.283 194.293 55.3531 194.022L35.3266 176.269L34.9762 175.267L55.1528 180.645Z" fill="#EBEBEB"/>
<path d="M33.7546 163.532C31.2413 162.09 28.9883 162 27.3762 163.011C27.0457 163.222 26.6452 163.402 26.2146 163.652L25.8742 163.873H25.8141C25.6585 163.982 25.5112 164.102 25.3735 164.233L25.2834 164.323C25.159 164.443 25.0419 164.57 24.9329 164.704L24.8128 164.864L24.5424 165.264L24.4122 165.505C24.3421 165.635 24.2721 165.775 24.212 165.915C24.1519 166.055 24.1219 166.135 24.0818 166.246C24.0418 166.356 23.9817 166.506 23.9416 166.646C23.9016 166.786 23.8615 166.937 23.8315 167.087C23.8014 167.237 23.7614 167.337 23.7414 167.467C23.7213 167.597 23.6813 167.848 23.6512 168.048C23.6212 168.248 23.6512 168.258 23.6512 168.368C23.6512 168.689 23.6512 169.009 23.6512 169.37C23.6512 175.007 27.6565 181.866 32.4929 184.69C32.785 184.859 33.0858 185.013 33.3941 185.151C33.5656 185.234 33.743 185.304 33.9248 185.361L34.2753 185.511L34.6357 185.611C34.806 185.611 34.9762 185.711 35.1364 185.741H35.3367C35.5469 185.741 35.7572 185.821 35.9675 185.842C36.9775 185.938 37.9913 185.699 38.8513 185.161C39.2819 184.91 39.6624 184.73 40.143 184.44C41.6951 183.498 42.6563 181.546 42.6563 178.782C42.5962 173.215 38.641 166.396 33.7546 163.532ZM31.2312 180.555C29.7092 179.373 27.5864 175.798 26.7553 173.806C27.2532 174.145 27.7679 174.459 28.2974 174.747C30.6004 175.938 30.5403 174.326 31.4716 175.438C32.4028 176.549 32.2326 179.303 31.4716 180.715C31.3841 180.661 31.3034 180.597 31.2312 180.524V180.555ZM35.7172 170.081C35.5854 170.126 35.458 170.183 35.3367 170.251L33.9749 171.022C33.6897 171.179 33.4566 171.415 33.304 171.703C31.8893 169.778 31.0711 167.48 30.9509 165.094C32.9535 165.765 36.2178 168.519 36.7285 169.58C36.7671 169.66 36.7973 169.744 36.8186 169.83C36.4452 169.868 36.0763 169.942 35.7172 170.051V170.081ZM28.9983 168.909C29.7493 171.583 30.8608 171.993 30.9308 172.864C29.1986 172.584 26.3748 170.862 26.1846 169.22C26.1305 167.589 26.6715 165.995 27.7066 164.734C28.4476 165.024 28.3975 166.696 28.9983 168.879V168.909ZM34.0049 182.928C33.0837 182.087 34.105 181.265 34.5757 179.523C34.8077 178.695 34.8077 177.818 34.5757 176.99C36.388 178.422 39.1016 182.177 38.4007 183.288C38.3715 183.323 38.3448 183.36 38.3206 183.398C36.7685 183.759 34.6458 183.498 34.0049 182.898V182.928ZM38.3206 177.12C36.3981 174.547 35.6371 175.438 35.1664 174.066C35.0789 173.731 35.0921 173.377 35.2042 173.05C35.3164 172.722 35.5227 172.435 35.7973 172.224C36.2965 172.025 36.85 172.009 37.3596 172.18C37.8692 172.35 38.3019 172.696 38.5809 173.155C39.5182 175.232 40.029 177.476 40.0829 179.753C39.6223 179.033 39.0516 178.061 38.3206 177.09V177.12Z" fill="#E0E0E0"/>
<path opacity="0.2" d="M33.7546 163.532C31.2413 162.09 28.9883 162 27.3762 163.011C27.0457 163.222 26.6452 163.402 26.2146 163.652L25.8742 163.873H25.8141C25.6585 163.982 25.5112 164.102 25.3735 164.233L25.2834 164.323C25.159 164.443 25.0419 164.57 24.9329 164.704L24.8128 164.864L24.5424 165.264L24.4122 165.505C24.3421 165.635 24.2721 165.775 24.212 165.915C24.1519 166.055 24.1219 166.135 24.0818 166.246C24.0418 166.356 23.9817 166.506 23.9416 166.646C23.9016 166.786 23.8615 166.937 23.8315 167.087C23.8014 167.237 23.7614 167.337 23.7414 167.467C23.7213 167.597 23.6813 167.848 23.6512 168.048C23.6212 168.248 23.6512 168.258 23.6512 168.368C23.6512 168.689 23.6512 169.009 23.6512 169.37C23.6512 175.007 27.6565 181.866 32.4929 184.69C32.785 184.859 33.0858 185.013 33.3941 185.151C33.5656 185.234 33.743 185.304 33.9248 185.361L34.2753 185.511L34.6357 185.611C34.806 185.611 34.9762 185.711 35.1364 185.741H35.3367C35.5469 185.741 35.7572 185.821 35.9675 185.842C36.9775 185.938 37.9913 185.699 38.8513 185.161C39.2819 184.91 39.6624 184.73 40.143 184.44C41.6951 183.498 42.6563 181.546 42.6563 178.782C42.5962 173.215 38.641 166.396 33.7546 163.532ZM31.2312 180.555C29.7092 179.373 27.5864 175.798 26.7553 173.806C27.2532 174.145 27.7679 174.459 28.2974 174.747C30.6004 175.938 30.5403 174.326 31.4716 175.438C32.4028 176.549 32.2326 179.303 31.4716 180.715C31.3841 180.661 31.3034 180.597 31.2312 180.524V180.555ZM35.7172 170.081C35.5854 170.126 35.458 170.183 35.3367 170.251L33.9749 171.022C33.6897 171.179 33.4566 171.415 33.304 171.703C31.8893 169.778 31.0711 167.48 30.9509 165.094C32.9535 165.765 36.2178 168.519 36.7285 169.58C36.7671 169.66 36.7973 169.744 36.8186 169.83C36.4452 169.868 36.0763 169.942 35.7172 170.051V170.081ZM28.9983 168.909C29.7493 171.583 30.8608 171.993 30.9308 172.864C29.1986 172.584 26.3748 170.862 26.1846 169.22C26.1305 167.589 26.6715 165.995 27.7066 164.734C28.4476 165.024 28.3975 166.696 28.9983 168.879V168.909ZM34.0049 182.928C33.0837 182.087 34.105 181.265 34.5757 179.523C34.8077 178.695 34.8077 177.818 34.5757 176.99C36.388 178.422 39.1016 182.177 38.4007 183.288C38.3715 183.323 38.3448 183.36 38.3206 183.398C36.7685 183.759 34.6458 183.498 34.0049 182.898V182.928ZM38.3206 177.12C36.3981 174.547 35.6371 175.438 35.1664 174.066C35.0789 173.731 35.0921 173.377 35.2042 173.05C35.3164 172.722 35.5227 172.435 35.7973 172.224C36.2965 172.025 36.85 172.009 37.3596 172.18C37.8692 172.35 38.3019 172.696 38.5809 173.155C39.5182 175.232 40.029 177.476 40.0829 179.753C39.6223 179.033 39.0516 178.061 38.3206 177.09V177.12Z" fill="black"/>
<path d="M32.3928 164.303C27.5063 161.489 23.5511 163.772 23.5511 169.41C23.5511 175.047 27.5564 181.906 32.3928 184.73C37.2292 187.554 41.2244 185.261 41.2244 179.623C41.2244 173.986 37.2692 167.127 32.3928 164.303ZM30.1999 164.904C31.9522 164.904 36.1477 168.338 36.7285 169.55C37.3093 170.761 35.7272 170.321 34.3654 170.822C32.573 171.452 33.4241 173.185 32.3627 172.754C30.8307 172.113 28.4576 164.874 30.1999 164.904ZM27.5664 164.643C28.4676 164.794 28.3574 166.556 28.9983 168.879C29.8194 171.833 31.1111 172.023 30.9208 173.125C30.6605 174.747 25.0931 172.334 24.8228 169.95C24.5524 167.567 26.6652 164.483 27.5664 164.643ZM29.8694 181.285C27.9669 179.803 25.0631 174.476 25.0431 173.355C25.023 172.233 26.495 173.775 28.2974 174.717C30.6004 175.908 30.5403 174.296 31.4716 175.408C32.8534 177.04 31.792 182.777 29.8694 181.285ZM38.3707 183.288C37.4595 184.73 33.5643 184.54 32.6431 183.699C31.7219 182.857 32.7532 182.036 33.2239 180.284C33.8146 178.071 32.5029 176.89 33.2239 176.469C34.3754 175.838 39.2919 181.806 38.3707 183.258V183.288ZM36.9688 177.881C35.0463 175.317 34.2853 176.199 33.8146 174.827C33.1338 172.824 37.2292 170.771 38.5809 173.155C39.9327 175.538 40.4134 180.755 39.8726 181.345C39.3319 181.936 38.4808 179.863 36.9688 177.851V177.881Z" fill="#E0E0E0"/>
<path d="M32.3928 177.641C33.8847 178.502 35.0963 177.801 35.0963 176.079C35.0435 175.14 34.7714 174.228 34.3019 173.414C33.8324 172.6 33.1785 171.908 32.3928 171.392C30.9008 170.531 29.6892 171.232 29.6892 172.954C29.742 173.893 30.0141 174.805 30.4837 175.619C30.9532 176.433 31.6071 177.125 32.3928 177.641Z" fill="#455A64"/>
<path d="M41.645 106.056C42.9767 96.7338 45.7804 79.0204 47.4526 71.5806C50.1462 59.7851 50.3164 59.4546 58.347 55.2491C62.6427 58.6435 66.4177 66.9846 64.1747 82.1646L57.9064 109.641C57.9064 109.641 61.5512 112.715 68.5905 118.963C75.6298 125.211 82.609 130.679 90.1189 136.116C90.8176 136.565 91.434 137.13 91.9413 137.788C92.422 138.499 94.0641 142.194 94.4947 143.225C94.7544 143.819 94.9588 144.436 95.1055 145.068C95.1466 145.893 95.045 146.72 94.8051 147.511C94.4446 149.423 93.984 151.176 93.5034 153.068C93.4381 153.49 93.2337 153.878 92.9226 154.17C92.662 154.313 92.3908 154.437 92.1116 154.54C91.6493 154.863 91.2716 155.292 91.0101 155.792C90.447 156.591 89.7068 157.249 88.8473 157.714C88.6604 157.834 88.4513 157.915 88.2325 157.952C88.0137 157.989 87.7897 157.981 87.5738 157.93C87.3579 157.879 87.1546 157.784 86.976 157.653C86.7974 157.521 86.6471 157.355 86.5342 157.164C85.8752 156.24 85.4242 155.184 85.2125 154.069C84.6506 151.967 83.9822 149.895 83.2098 147.861C83.0356 147.309 82.768 146.791 82.4188 146.329C81.9451 145.826 81.3769 145.421 80.7466 145.138C78.7439 144.136 76.5911 143.556 74.9689 141.933C73.5771 140.542 72.6959 137.928 70.9637 136.927C68.5104 135.355 53.9412 127.224 46.1409 122.278C39.8626 118.192 40.2832 115.559 41.645 106.056Z" fill="#FFA8A7"/>
<path d="M59.5586 54.4179C55.4832 56.2703 52.4091 58.1128 51.2076 59.3344C50.006 60.556 48.5741 63.2596 46.0207 75.726C43.4673 88.1925 41.3045 106.066 40.5435 111.623C39.7825 117.181 40.4634 119.133 44.4486 121.757C48.4339 124.38 68.17 135.174 68.17 135.174C68.17 135.174 73.497 126.163 78.2533 127.054L58.7776 109.15L65.2361 80.6525C65.2361 80.6525 70.0124 65.7128 59.5586 54.4179Z" fill="#0082F4"/>
<path opacity="0.5" d="M59.5586 54.4179C55.4832 56.2703 52.4091 58.1128 51.2076 59.3344C50.006 60.556 48.5741 63.2596 46.0207 75.726C43.4673 88.1925 41.3045 106.066 40.5435 111.623C39.7825 117.181 40.4634 119.133 44.4486 121.757C48.4339 124.38 68.17 135.174 68.17 135.174C68.17 135.174 73.497 126.163 78.2533 127.054L58.7776 109.15L65.2361 80.6525C65.2361 80.6525 70.0124 65.7128 59.5586 54.4179Z" fill="black"/>
<path d="M64.9257 133.352L69.0712 135.655C69.8924 133.383 71.2693 131.352 73.0765 129.747C74.7056 128.306 76.8194 127.533 78.9943 127.585L74.989 123.99C74.989 123.99 72.6459 123.609 69.0512 126.713C67.1424 128.546 65.724 130.829 64.9257 133.352Z" fill="#0082F4"/>
<path opacity="0.7" d="M64.9257 133.352L69.0712 135.655C69.8924 133.383 71.2693 131.352 73.0765 129.747C74.7056 128.306 76.8194 127.533 78.9943 127.585L74.989 123.99C74.989 123.99 72.6459 123.609 69.0512 126.713C67.1424 128.546 65.724 130.829 64.9257 133.352Z" fill="black"/>
</svg>
