<svg width="83" height="53" viewBox="0 0 83 53" fill="none" xmlns="http://www.w3.org/2000/svg">
<path d="M82.2581 6.30198C75.3902 8.77841 73.0943 10.3124 61.9854 19.7068L46.9464 32.3496C46.9464 32.3496 27.6162 22.6945 25.5709 20.4788C23.1246 17.8018 22.9742 15.1249 20.9188 11.8464C18.8635 8.56786 17.0087 6.71304 16.6578 4.89833C16.3068 3.08362 13.65 4.89833 13.9608 7.2344C14.2716 9.57046 16.0261 11.8263 15.0135 12.0268C14.0009 12.2274 8.81743 6.5426 6.5315 2.75276C4.24556 -1.03708 1.66885 -0.305181 1.89945 1.33909C2.04797 2.05754 2.27668 2.75706 2.58124 3.4245C2.29612 3.45096 2.01949 3.53586 1.76862 3.6739C1.51774 3.81194 1.29797 4.00016 1.12302 4.22685C0.948067 4.45353 0.821684 4.71383 0.751724 4.9915C0.681764 5.26917 0.669729 5.55826 0.716384 5.84078C0.776541 6.39221 1.01718 7.39482 1.01718 7.39482C0.591686 7.77046 0.281161 8.25882 0.121487 8.80349C-0.0381869 9.34815 -0.0405167 9.92688 0.114817 10.4728C0.275772 11.0709 0.353382 11.6883 0.345426 12.3076C0.28527 13.9017 1.39815 15.7966 1.96964 16.7992C3.18949 18.7292 4.52891 20.5809 5.98005 22.3436C7.04809 23.6639 8.26988 24.8521 9.6195 25.8828C11.6247 27.116 15.6853 29.1613 19.3448 31.0963C20.3474 31.6077 22.1019 32.9912 27.6563 37.5731C32.6092 41.6638 37.5019 45.975 43.2869 49.444C44.9485 50.4385 46.8673 50.9187 48.8015 50.8241C50.7356 50.7296 52.5985 50.0644 54.1551 48.9126C56.9424 46.8472 60.8324 43.4183 63.2988 41.1324C68.2699 36.4466 73.6371 32.1997 79.3405 28.4394L82.2581 6.30198Z" fill="#9E6767"/>
<path d="M83 5.84072C75.7412 6.98369 71.8811 8.84853 66.4571 14.052C62.0356 18.3131 46.4752 31.6878 46.4752 31.6878L42.3044 30.0235C42.3044 30.0235 44.2394 33.673 42.0437 38.7562C39.848 43.8394 36.1083 44.5412 36.1083 44.5412C38.7027 46.797 41.4756 48.839 44.3998 50.647C49.0318 53.4744 50.5357 52.191 53.6538 50.3162C56.7719 48.4413 79.9922 28.5396 79.9922 28.5396L83 5.84072Z" fill="#0082F4"/>
<path opacity="0.15" d="M83 5.84072C75.7412 6.98369 71.8811 8.84853 66.4571 14.052C62.0356 18.3131 46.4752 31.6878 46.4752 31.6878L42.3044 30.0235C42.3044 30.0235 44.2394 33.673 42.0437 38.7562C39.848 43.8394 36.1083 44.5412 36.1083 44.5412C38.7027 46.797 41.4756 48.839 44.3998 50.647C49.0318 53.4744 50.5357 52.191 53.6538 50.3162C56.7719 48.4413 79.9922 28.5396 79.9922 28.5396L83 5.84072Z" fill="black"/>
<path d="M14.9333 13.8716C14.3922 15.7541 14.4531 17.7587 15.1075 19.605C15.7619 21.4512 16.9769 23.0467 18.5828 24.1683C18.5828 24.1683 14.7127 22.3636 13.9207 18.9347C13.1286 15.5058 14.9333 13.8716 14.9333 13.8716Z" fill="#874C4C"/>
<path opacity="0.1" d="M46.5153 31.6879C46.5153 31.6879 51.017 33.2519 55.5387 39.4179C55.5387 39.4179 55.0875 33.4023 48.0292 30.0737L46.5153 31.6879Z" fill="black"/>
</svg>
