<svg width="59" height="71" viewBox="0 0 59 71" fill="none" xmlns="http://www.w3.org/2000/svg">
<path opacity="0.8" d="M59 33.5199C49.622 27.8831 51.6682 12.8583 53.3933 4.28277C53.3933 4.28277 45.2891 1.85553 36.0416 0C29.8005 0.198693 23.5738 0.71759 17.386 1.55464C11.7505 6.18263 6.93848 11.7305 3.15351 17.9636C-0.607699 23.8712 -2.54348 33.6403 6.40319 41.6642L6.90469 49.0462C7.47639 56.1775 4.30697 61.5034 6.77433 64.3719C8.2086 66.057 16.383 70.4601 32.0196 70.3096C47.3854 70.1692 55.2288 64.7129 57.0041 63.1583C59.7322 60.5104 58.007 54.4223 57.1545 50.7714C56.1415 46.5488 56.7032 42.4265 59 33.5199Z" fill="white"/>
</svg>
