<svg width="46" height="70" viewBox="0 0 46 70" fill="none" xmlns="http://www.w3.org/2000/svg">
<path d="M17.1175 37.7833C16.3444 36.0275 15.2956 34.4066 14.0107 32.982C12.639 31.701 10.8335 31.0454 9.24987 30.0972C7.66626 29.1491 5.83046 28.0799 4.14599 27.0208C-0.79648 23.9242 -0.524132 16.4802 0.908175 12.3043C3.32897 5.24367 11.6303 0.523106 18.9936 0.0893796C30.7647 -0.6066 35.9593 2.8027 37.2202 8.89504C40.0444 9.03625 41.5171 10.3374 43.0604 12.1228C46.2578 15.8246 46.5705 23.3795 44.9466 27.1116C42.1929 33.4561 40.6093 34.1722 38.3902 37.5513C36.7382 40.0225 35.3839 42.6802 34.3556 45.4693C34.3556 45.4693 18.9431 41.1018 17.1175 37.7833Z" fill="#263238"/>
<path d="M37.2202 37.2386C38.1812 37.3327 39.1499 37.1681 40.026 36.762C40.9021 36.3559 41.6537 35.7229 42.203 34.9287C44.9062 31.6606 45.0272 28.4531 43.5949 26.3954C42.4249 24.7008 39.6813 23.7023 37.8455 24.9732C36.0098 26.2441 35.8786 27.3738 35.1827 28.8364C34.4867 30.2989 31.5313 30.309 30.5529 24.5899C29.6451 19.244 29.7459 14.3015 27.0024 12.0017C22.9072 8.56218 18.7515 10.519 15.9978 12.7784C14.273 10.3475 11.9632 9.0766 9.3608 10.64C6.75844 12.2035 3.70219 16.1272 3.79297 25.77C3.89384 36.2198 4.80163 42.2415 8.73543 45.086C10.5409 46.4174 12.9113 46.5082 16.8048 46.4981L16.6837 51.491C14.9793 54.2428 13.9863 57.3754 13.7944 60.6066C13.6024 63.8377 14.2176 67.0659 15.5843 70C32.1365 61.3457 34.1437 52.1769 34.1437 52.1769L34.5775 35.7155C34.8659 36.1605 35.2559 36.5306 35.7154 36.7954C36.1748 37.0602 36.6905 37.2121 37.2202 37.2386Z" fill="#9E6767"/>
<path d="M23.1997 24.3377C23.2133 24.6625 23.1304 24.984 22.9614 25.2616C22.7924 25.5393 22.5448 25.7606 22.2501 25.8976C21.9553 26.0346 21.6266 26.0812 21.3054 26.0315C20.9841 25.9817 20.6849 25.8379 20.4454 25.6181C20.2059 25.3983 20.0369 25.1125 19.9598 24.7967C19.8827 24.481 19.9009 24.1494 20.0122 23.844C20.1234 23.5386 20.3227 23.273 20.5848 23.0808C20.847 22.8886 21.1602 22.7784 21.4849 22.7642C21.7009 22.7547 21.9166 22.7879 22.1197 22.8619C22.3228 22.9359 22.5094 23.0492 22.6686 23.1953C22.8279 23.3415 22.9568 23.5176 23.0479 23.7136C23.139 23.9096 23.1906 24.1217 23.1997 24.3377Z" fill="#263238"/>
<path d="M10.1072 24.61C10.1208 24.9348 10.0379 25.2563 9.8689 25.534C9.69988 25.8116 9.45234 26.033 9.15759 26.17C8.86283 26.307 8.53408 26.3536 8.21286 26.3038C7.89164 26.2541 7.59239 26.1102 7.3529 25.8905C7.1134 25.6707 6.94442 25.3849 6.86731 25.0691C6.79021 24.7533 6.80842 24.4218 6.91967 24.1164C7.03092 23.8109 7.23023 23.5454 7.49237 23.3532C7.75451 23.161 8.06773 23.0508 8.39247 23.0365C8.60843 23.0271 8.82412 23.0603 9.02723 23.1342C9.23034 23.2082 9.41686 23.3215 9.57613 23.4677C9.7354 23.6138 9.8643 23.79 9.95543 23.986C10.0466 24.182 10.0981 24.3941 10.1072 24.61Z" fill="#263238"/>
<path d="M15.9978 12.7785C15.9978 12.7785 17.4503 9.01613 22.998 8.10833C24.9795 7.68895 27.046 8.00668 28.8101 9.00198C30.5742 9.99729 31.9146 11.6018 32.5803 13.5148C33.589 16.2987 33.014 24.0856 33.8613 26.0122C34.176 26.7954 34.7859 27.4236 35.5595 27.7614C36.3331 28.0991 37.2085 28.1193 37.9968 27.8177C35.3743 30.6621 32.4895 30.7529 30.3209 28.8869C28.1522 27.0208 27.9808 23.0971 27.2949 18.2353C26.6292 13.0609 21.6867 9.70202 15.9978 12.7785Z" fill="#0082F4"/>
<path opacity="0.3" d="M15.9978 12.7785C15.9978 12.7785 17.4503 9.01613 22.998 8.10833C24.9795 7.68895 27.046 8.00668 28.8101 9.00198C30.5742 9.99729 31.9146 11.6018 32.5803 13.5148C33.589 16.2987 33.014 24.0856 33.8613 26.0122C34.176 26.7954 34.7859 27.4236 35.5595 27.7614C36.3331 28.0991 37.2085 28.1193 37.9968 27.8177C35.3743 30.6621 32.4895 30.7529 30.3209 28.8869C28.1522 27.0208 27.9808 23.0971 27.2949 18.2353C26.6292 13.0609 21.6867 9.70202 15.9978 12.7785Z" fill="white"/>
<path d="M5.56819 21.3823L9.4213 19.9702C9.33715 19.717 9.20361 19.483 9.0284 19.2817C8.85319 19.0805 8.63979 18.916 8.40057 18.7978C8.16135 18.6796 7.90104 18.61 7.63474 18.5931C7.36845 18.5762 7.10147 18.6123 6.84922 18.6993C6.33406 18.8991 5.91462 19.2881 5.67654 19.7867C5.43847 20.2854 5.39971 20.8561 5.56819 21.3823Z" fill="#263238"/>
<path d="M19.9518 19.6474L24.0873 21.1201C24.1969 20.856 24.2516 20.5723 24.2481 20.2863C24.2446 20.0004 24.1829 19.7181 24.0668 19.4567C23.9508 19.1954 23.7828 18.9603 23.573 18.766C23.3632 18.5716 23.1161 18.4219 22.8467 18.3261C22.2867 18.1333 21.6741 18.1628 21.1354 18.4087C20.5967 18.6547 20.1729 19.0981 19.9518 19.6474Z" fill="#263238"/>
<path d="M21.8481 34.4647L16.1996 36.3408C16.3364 36.7309 16.5517 37.0889 16.8322 37.3926C17.1127 37.6963 17.4525 37.9393 17.8305 38.1066C18.2086 38.2738 18.617 38.3619 19.0304 38.3653C19.4438 38.3686 19.8535 38.2873 20.2342 38.1262C20.5835 37.9957 20.9032 37.7966 21.1744 37.5406C21.4456 37.2846 21.6628 36.9769 21.8132 36.6357C21.9636 36.2945 22.0441 35.9266 22.0501 35.5537C22.0561 35.1809 21.9874 34.8106 21.8481 34.4647Z" fill="#874C4C"/>
<path d="M18.6002 38.3078C18.6779 37.5365 19.0403 36.8219 19.6166 36.3034C20.1929 35.7849 20.9418 35.4998 21.717 35.5037H21.9994C22.0254 36.0686 21.8674 36.6267 21.5491 37.0942C21.2308 37.5616 20.7694 37.9132 20.2342 38.096C19.7149 38.2987 19.154 38.3714 18.6002 38.3078Z" fill="#F28F8F"/>
<path d="M16.3307 23.087L15.1505 32.8913L9.99626 31.4791C11.1676 28.0826 13.3853 25.1445 16.3307 23.087Z" fill="#874C4C"/>
<path d="M16.8149 46.5082C20.5942 46.2263 24.3067 45.3586 27.8194 43.9361C29.0903 43.3611 30.7748 41.0009 32.1466 38.3682C32.1466 38.3682 31.2489 43.5124 28.5053 45.328C24.3395 48.0817 16.7644 48.7575 16.7644 48.7575L16.8149 46.5082Z" fill="#874C4C"/>
</svg>
