<svg width="290" height="278" viewBox="0 0 290 278" fill="none" xmlns="http://www.w3.org/2000/svg">
<path d="M187.81 116.525L190.406 115.082L191.338 10.1448L188.732 11.5984L187.81 116.525Z" fill="#37474F"/>
<path d="M187.81 116.525L185.193 115.082L186.126 10.1448L188.732 11.5984L187.81 116.525Z" fill="#455A64"/>
<path d="M186.126 10.1449L287.404 68.9489V65.9415L186.126 7.18764V10.1449Z" fill="#455A64"/>
<path d="M188.582 39.9479L287.253 97.2482V94.341L188.582 37.0408V39.9479Z" fill="#455A64"/>
<path d="M284.787 92.9176L188.732 37.131V34.1738L284.787 89.9002" fill="#263238"/>
<path d="M287.394 170.467L290 168.964V64.4177L287.394 65.9314V170.467Z" fill="#37474F"/>
<path d="M287.394 170.467L284.787 168.914V64.3777L287.394 65.9315V170.467Z" fill="#455A64"/>
<path d="M287.384 170.467V169.074L289.99 167.57V168.964L287.384 170.467Z" fill="#263238"/>
<path d="M287.384 170.467V169.074L284.777 167.57V168.964L287.384 170.467Z" fill="#263238"/>
<path d="M290 73.3897L101.268 182.076V173.324L290 64.4177V73.3897Z" fill="#37474F"/>
<path d="M101.268 277.87L103.874 276.367V171.831L101.268 173.334V277.87Z" fill="#37474F"/>
<path d="M101.268 277.87L98.6615 276.316V171.781L101.268 173.334V277.87Z" fill="#455A64"/>
<path d="M2.60636 220.58L5.21274 219.137V114.591L2.60636 116.044V220.58Z" fill="#37474F"/>
<path d="M2.60638 220.58L0 219.137V114.591L2.60638 116.044V220.58Z" fill="#455A64"/>
<path d="M0 123.162L101.268 181.725V173.334L0 114.591V123.162Z" fill="#455A64"/>
<path d="M2.45603 144.404L101.128 201.704L101.138 198.787L2.45603 141.486V144.404Z" fill="#455A64"/>
<path d="M98.6615 197.363L2.60636 141.577L5.21274 140.133L98.6615 194.356" fill="#263238"/>
<path d="M101.268 173.334L0 114.591L188.732 5.68396L290 64.4178L101.268 173.334Z" fill="#0082F4"/>
<path opacity="0.8" d="M101.268 173.334L0 114.591L188.732 5.68396L290 64.4178L101.268 173.334Z" fill="white"/>
<path d="M101.258 277.87V276.477L103.864 274.973V276.367L101.258 277.87Z" fill="#263238"/>
<path d="M101.258 277.87V276.477L98.6515 274.973V276.367L101.258 277.87Z" fill="#263238"/>
<path d="M2.60636 220.58V219.187L5.21274 217.683V219.076L2.60636 220.58Z" fill="#263238"/>
<path d="M2.60638 220.58V219.187L0 217.683V219.076L2.60638 220.58Z" fill="#263238"/>
<path d="M141.306 61.2499L121.407 71.7256L120.996 72.3671V72.8784C121.001 73.0137 121.041 73.1454 121.113 73.26C121.186 73.3745 121.287 73.4677 121.407 73.53L147.631 88.667C147.841 88.7785 148.075 88.8368 148.313 88.8368C148.551 88.8368 148.785 88.7785 148.995 88.667L168.452 77.4396V76.9183L141.306 61.2499Z" fill="#263238"/>
<path d="M148.313 88.3162C148.075 88.3194 147.84 88.2607 147.631 88.1458L121.407 73.0388C121.283 72.9837 121.177 72.8938 121.103 72.7799C121.029 72.666 120.99 72.5331 120.99 72.3972C120.99 72.2613 121.029 72.1284 121.103 72.0145C121.177 71.9006 121.283 71.8107 121.407 71.7556L140.454 60.7286L168.523 76.9082L149.065 88.1357C148.837 88.2666 148.576 88.3293 148.313 88.3162Z" fill="#0082F4"/>
<path d="M140.434 59.2149L121.628 70.0815L121.427 70.3422V72.3471C121.427 72.4473 121.497 72.5375 121.628 72.6177L147.852 87.7548C147.996 87.8303 148.156 87.8697 148.318 87.8697C148.481 87.8697 148.64 87.8303 148.784 87.7548L167.59 76.8982V74.8933L140.434 59.2149Z" fill="#EBEBEB"/>
<path d="M167.59 74.9033L167.36 75.0336L164.292 76.798L163.721 77.1288L148.784 85.7599C148.64 85.8354 148.481 85.8749 148.318 85.8749C148.156 85.8749 147.996 85.8354 147.852 85.7599L121.628 70.6128C121.367 70.4624 121.367 70.2218 121.628 70.0815L121.878 69.9311L140.434 59.2149L167.36 74.763H167.41L167.59 74.9033Z" fill="#F0F0F0"/>
<path d="M148.313 85.8701V87.8751C148.152 87.8827 147.992 87.8444 147.852 87.7648L121.628 72.6277C121.575 72.6033 121.53 72.5654 121.496 72.5179C121.463 72.4704 121.443 72.4149 121.437 72.3571V70.3522C121.44 70.4106 121.46 70.4671 121.494 70.515C121.527 70.5628 121.574 70.6002 121.628 70.6228L147.852 85.7699C147.996 85.8396 148.154 85.8739 148.313 85.8701Z" fill="#E0E0E0"/>
<path d="M167.59 74.6327L164.202 76.6376L163.671 76.9384L148.784 85.5394C148.64 85.6149 148.48 85.6544 148.318 85.6544C148.156 85.6544 147.996 85.6149 147.852 85.5394L124.364 71.9762C124.154 71.8659 123.953 71.7457 123.773 71.6354C123.026 71.2316 122.379 70.6666 121.878 69.9813L121.828 69.9112C121.798 69.8694 121.778 69.8214 121.768 69.7708C121.755 69.6653 121.782 69.5589 121.843 69.4719C121.904 69.385 121.995 69.3236 122.099 69.2997C122.715 69.1154 123.31 68.8668 123.873 68.5578L140.414 59.0145L167.59 74.6327Z" fill="white"/>
<path opacity="0.1" d="M164.082 74.3921C164.029 74.4105 163.983 74.4451 163.95 74.4909C163.918 74.5367 163.9 74.5915 163.9 74.6477C163.9 74.7039 163.918 74.7587 163.95 74.8045C163.983 74.8503 164.029 74.8848 164.082 74.9033C164.218 74.969 164.367 75.0031 164.518 75.0031C164.669 75.0031 164.818 74.969 164.954 74.9033C165.007 74.8848 165.053 74.8503 165.085 74.8045C165.118 74.7587 165.136 74.7039 165.136 74.6477C165.136 74.5915 165.118 74.5367 165.085 74.4909C165.053 74.4451 165.007 74.4105 164.954 74.3921C164.818 74.3264 164.669 74.2922 164.518 74.2922C164.367 74.2922 164.218 74.3264 164.082 74.3921Z" fill="black"/>
<path d="M166.889 72.7581C166.704 72.666 166.497 72.6249 166.291 72.639C166.085 72.6531 165.886 72.7219 165.716 72.8383C164.979 73.3403 164.454 74.0974 164.242 74.9635C164.348 74.9788 164.457 74.9788 164.563 74.9635C164.762 74.199 165.228 73.5307 165.876 73.0789C166.036 72.9797 166.219 72.9244 166.407 72.9185C166.519 72.9189 166.629 72.9464 166.728 72.9987C166.888 73.1267 167.012 73.2934 167.089 73.4828C167.166 73.6722 167.194 73.8782 167.169 74.0813C167.174 74.1681 167.174 74.2551 167.169 74.3419L167.48 74.5124C167.49 74.3689 167.49 74.2248 167.48 74.0813C167.501 73.8288 167.458 73.5751 167.354 73.3437C167.251 73.1124 167.091 72.9109 166.889 72.7581Z" fill="#263238"/>
<path d="M167.43 74.7229C167.433 74.7495 167.433 74.7765 167.43 74.8031H167.38L167.43 74.7229Z" fill="#263238"/>
<path opacity="0.1" d="M161.455 72.8783C161.401 72.8939 161.353 72.9268 161.319 72.972C161.285 73.0172 161.266 73.0723 161.266 73.129C161.266 73.1856 161.285 73.2407 161.319 73.2859C161.353 73.3311 161.401 73.364 161.455 73.3796C161.591 73.4453 161.74 73.4794 161.891 73.4794C162.042 73.4794 162.191 73.4453 162.327 73.3796C162.382 73.364 162.43 73.3311 162.464 73.2859C162.498 73.2407 162.516 73.1856 162.516 73.129C162.516 73.0723 162.498 73.0172 162.464 72.972C162.43 72.9268 162.382 72.8939 162.327 72.8783C162.191 72.8127 162.042 72.7785 161.891 72.7785C161.74 72.7785 161.591 72.8127 161.455 72.8783Z" fill="black"/>
<path d="M164.262 71.2444C164.077 71.1523 163.871 71.1112 163.665 71.1253C163.459 71.1394 163.26 71.2082 163.089 71.3246C162.352 71.8266 161.827 72.5836 161.616 73.4498C161.722 73.4706 161.831 73.4706 161.936 73.4498C162.132 72.6863 162.599 72.02 163.25 71.5752C163.409 71.4734 163.592 71.4146 163.781 71.4048C163.894 71.4035 164.006 71.4348 164.102 71.495C164.261 71.6208 164.386 71.7857 164.463 71.9735C164.54 72.1614 164.568 72.366 164.543 72.5676C164.548 72.6544 164.548 72.7415 164.543 72.8283L164.854 73.0087C164.864 72.8618 164.864 72.7145 164.854 72.5676C164.875 72.315 164.833 72.0609 164.729 71.8294C164.626 71.5979 164.465 71.3966 164.262 71.2444Z" fill="#263238"/>
<path opacity="0.1" d="M158.829 71.3546C158.776 71.3731 158.73 71.4076 158.697 71.4534C158.665 71.4992 158.647 71.554 158.647 71.6102C158.647 71.6664 158.665 71.7212 158.697 71.767C158.73 71.8128 158.776 71.8474 158.829 71.8658C158.965 71.9315 159.114 71.9656 159.265 71.9656C159.416 71.9656 159.565 71.9315 159.701 71.8658C159.754 71.8474 159.8 71.8128 159.833 71.767C159.865 71.7212 159.883 71.6664 159.883 71.6102C159.883 71.554 159.865 71.4992 159.833 71.4534C159.8 71.4076 159.754 71.3731 159.701 71.3546C159.565 71.2889 159.416 71.2548 159.265 71.2548C159.114 71.2548 158.965 71.2889 158.829 71.3546Z" fill="black"/>
<path d="M161.636 69.7206C161.449 69.6287 161.241 69.5877 161.034 69.6018C160.826 69.6159 160.626 69.6845 160.453 69.8008C159.722 70.3088 159.199 71.0634 158.979 71.926C159.085 71.9463 159.194 71.9463 159.3 71.926C159.503 71.1604 159.972 70.4921 160.623 70.0414C160.785 69.9466 160.967 69.8916 161.155 69.881C161.263 69.8814 161.37 69.909 161.465 69.9612C161.625 70.0893 161.749 70.2559 161.826 70.4453C161.903 70.6348 161.931 70.8408 161.906 71.0439C161.911 71.1307 161.911 71.2177 161.906 71.3045L162.217 71.4749C162.227 71.3314 162.227 71.1874 162.217 71.0439C162.239 70.7922 162.197 70.5391 162.096 70.3078C161.994 70.0765 161.836 69.8746 161.636 69.7206Z" fill="#263238"/>
<path opacity="0.1" d="M156.202 69.8409C156.149 69.8594 156.103 69.8939 156.071 69.9397C156.038 69.9855 156.021 70.0403 156.021 70.0965C156.021 70.1527 156.038 70.2075 156.071 70.2533C156.103 70.2991 156.149 70.3337 156.202 70.3521C156.338 70.4178 156.487 70.4519 156.638 70.4519C156.79 70.4519 156.939 70.4178 157.075 70.3521C157.128 70.3337 157.174 70.2991 157.206 70.2533C157.239 70.2075 157.256 70.1527 157.256 70.0965C157.256 70.0403 157.239 69.9855 157.206 69.9397C157.174 69.8939 157.128 69.8594 157.075 69.8409C156.939 69.7752 156.79 69.7411 156.638 69.7411C156.487 69.7411 156.338 69.7752 156.202 69.8409Z" fill="black"/>
<path d="M158.999 68.2069C158.814 68.1148 158.608 68.0738 158.402 68.0879C158.196 68.102 157.997 68.1707 157.826 68.2871C157.095 68.7951 156.572 69.5497 156.353 70.4123C156.459 70.4277 156.567 70.4277 156.674 70.4123C156.87 69.6463 157.336 68.9769 157.987 68.5277C158.15 68.4268 158.337 68.3715 158.528 68.3673C158.637 68.3677 158.744 68.3953 158.839 68.4475C158.999 68.5749 159.124 68.7415 159.201 68.9311C159.278 69.1207 159.306 69.327 159.28 69.5301C159.285 69.617 159.285 69.704 159.28 69.7908L159.581 69.9612C159.596 69.8179 159.596 69.6734 159.581 69.5301C159.604 69.2784 159.562 69.0249 159.461 68.7935C159.359 68.5621 159.2 68.3602 158.999 68.2069Z" fill="#263238"/>
<path opacity="0.1" d="M153.576 68.3273C153.522 68.3428 153.474 68.3757 153.44 68.4209C153.405 68.4661 153.387 68.5212 153.387 68.5779C153.387 68.6345 153.405 68.6896 153.44 68.7348C153.474 68.7801 153.522 68.8129 153.576 68.8285C153.712 68.8942 153.861 68.9283 154.012 68.9283C154.163 68.9283 154.312 68.8942 154.448 68.8285C154.503 68.8129 154.55 68.7801 154.585 68.7348C154.619 68.6896 154.637 68.6345 154.637 68.5779C154.637 68.5212 154.619 68.4661 154.585 68.4209C154.55 68.3757 154.503 68.3428 154.448 68.3273C154.312 68.2616 154.163 68.2275 154.012 68.2275C153.861 68.2275 153.712 68.2616 153.576 68.3273Z" fill="black"/>
<path d="M156.373 66.6933C156.189 66.5958 155.982 66.5517 155.775 66.5658C155.568 66.58 155.368 66.6519 155.2 66.7735C154.472 67.2796 153.949 68.03 153.726 68.8886C153.832 68.9138 153.942 68.9138 154.047 68.8886C154.244 68.1255 154.71 67.4595 155.36 67.014C155.523 66.9105 155.709 66.8518 155.902 66.8436C156.012 66.8426 156.12 66.8739 156.212 66.9339C156.372 67.0597 156.496 67.2245 156.573 67.4124C156.651 67.6003 156.678 67.8049 156.654 68.0065C156.659 68.0933 156.659 68.1803 156.654 68.2671L156.954 68.4476C156.964 68.3007 156.964 68.1533 156.954 68.0065C156.975 67.7564 156.933 67.5049 156.832 67.2754C156.73 67.0459 156.572 66.8457 156.373 66.6933Z" fill="#263238"/>
<path opacity="0.1" d="M150.94 66.8035C150.886 66.822 150.84 66.8565 150.808 66.9023C150.775 66.9482 150.758 67.003 150.758 67.0592C150.758 67.1154 150.775 67.1702 150.808 67.216C150.84 67.2618 150.886 67.2963 150.94 67.3148C151.075 67.3805 151.225 67.4146 151.376 67.4146C151.527 67.4146 151.676 67.3805 151.812 67.3148C152.062 67.1745 152.062 66.9439 151.812 66.8035C151.676 66.7378 151.527 66.7037 151.376 66.7037C151.225 66.7037 151.075 66.7378 150.94 66.8035Z" fill="black"/>
<path d="M153.746 65.1694C153.561 65.0774 153.355 65.0363 153.149 65.0504C152.943 65.0645 152.744 65.1333 152.574 65.2496C151.837 65.7517 151.312 66.5087 151.1 67.3748C151.206 67.3951 151.315 67.3951 151.421 67.3748C151.62 66.6103 152.086 65.942 152.734 65.4902C152.896 65.3954 153.078 65.3404 153.265 65.3298C153.377 65.3302 153.487 65.3578 153.586 65.41C153.746 65.5381 153.87 65.7047 153.947 65.8942C154.024 66.0836 154.052 66.2896 154.027 66.4927C154.032 66.5795 154.032 66.6665 154.027 66.7533L154.338 66.9237C154.348 66.7802 154.348 66.6362 154.338 66.4927C154.359 66.2401 154.315 65.9864 154.212 65.7551C154.109 65.5238 153.948 65.3223 153.746 65.1694Z" fill="#263238"/>
<path opacity="0.1" d="M148.313 65.2898C148.259 65.3053 148.211 65.3382 148.177 65.3835C148.143 65.4287 148.124 65.4838 148.124 65.5404C148.124 65.597 148.143 65.6522 148.177 65.6974C148.211 65.7426 148.259 65.7755 148.313 65.791C148.449 65.8567 148.598 65.8908 148.749 65.8908C148.9 65.8908 149.049 65.8567 149.185 65.791C149.24 65.7755 149.288 65.7426 149.322 65.6974C149.356 65.6522 149.374 65.597 149.374 65.5404C149.374 65.4838 149.356 65.4287 149.322 65.3835C149.288 65.3382 149.24 65.3053 149.185 65.2898C149.049 65.2241 148.9 65.19 148.749 65.19C148.598 65.19 148.449 65.2241 148.313 65.2898Z" fill="black"/>
<path d="M151.11 63.6558C150.925 63.5638 150.719 63.5227 150.513 63.5368C150.306 63.5509 150.108 63.6196 149.937 63.736C149.2 64.238 148.675 64.9951 148.463 65.8612C148.57 65.8766 148.678 65.8766 148.784 65.8612C148.988 65.1068 149.458 64.4517 150.107 64.0167C150.267 63.9176 150.451 63.8622 150.639 63.8563C150.751 63.852 150.862 63.8798 150.96 63.9365C151.12 64.064 151.245 64.2305 151.322 64.4201C151.399 64.6097 151.426 64.816 151.401 65.0192C151.406 65.1026 151.406 65.1863 151.401 65.2698L151.711 65.4502C151.721 65.3067 151.721 65.1627 151.711 65.0192C151.739 64.7591 151.698 64.4964 151.593 64.2571C151.487 64.0179 151.321 63.8105 151.11 63.6558Z" fill="#263238"/>
<path opacity="0.1" d="M145.687 63.7761C145.632 63.7917 145.584 63.8245 145.55 63.8697C145.516 63.915 145.498 63.9701 145.498 64.0267C145.498 64.0834 145.516 64.1384 145.55 64.1837C145.584 64.2289 145.632 64.2618 145.687 64.2773C145.823 64.343 145.972 64.3771 146.123 64.3771C146.274 64.3771 146.423 64.343 146.559 64.2773C146.613 64.2618 146.661 64.2289 146.695 64.1837C146.729 64.1384 146.748 64.0834 146.748 64.0267C146.748 63.9701 146.729 63.915 146.695 63.8697C146.661 63.8245 146.613 63.7917 146.559 63.7761C146.423 63.7104 146.274 63.6763 146.123 63.6763C145.972 63.6763 145.823 63.7104 145.687 63.7761Z" fill="black"/>
<path d="M148.494 62.1321C148.308 62.0394 148.101 61.9988 147.895 62.0147C147.688 62.0306 147.49 62.1023 147.321 62.2223C146.584 62.7222 146.056 63.4747 145.837 64.3375C145.942 64.3626 146.052 64.3626 146.158 64.3375C146.358 63.5732 146.828 62.9073 147.481 62.4629C147.64 62.3611 147.823 62.3023 148.012 62.2925C148.121 62.2929 148.228 62.3204 148.323 62.3727C148.483 62.5009 148.608 62.6672 148.687 62.8564C148.766 63.0455 148.796 63.2515 148.774 63.4553C148.779 63.5421 148.779 63.6292 148.774 63.716L149.085 63.8964C149.095 63.7495 149.095 63.6022 149.085 63.4553C149.104 63.203 149.06 62.9499 148.957 62.7189C148.853 62.4878 148.694 62.2862 148.494 62.1321Z" fill="#263238"/>
<path opacity="0.1" d="M143.09 62.2524C143.037 62.2708 142.991 62.3054 142.959 62.3512C142.926 62.397 142.909 62.4518 142.909 62.508C142.909 62.5642 142.926 62.619 142.959 62.6648C142.991 62.7106 143.037 62.7451 143.09 62.7636C143.226 62.8293 143.375 62.8634 143.526 62.8634C143.677 62.8634 143.826 62.8293 143.962 62.7636C144.016 62.7451 144.062 62.7106 144.094 62.6648C144.127 62.619 144.144 62.5642 144.144 62.508C144.144 62.4518 144.127 62.397 144.094 62.3512C144.062 62.3054 144.016 62.2708 143.962 62.2524C143.826 62.1867 143.677 62.1525 143.526 62.1525C143.375 62.1525 143.226 62.1867 143.09 62.2524Z" fill="black"/>
<path d="M145.857 60.6184C145.672 60.5263 145.466 60.4852 145.26 60.4993C145.054 60.5134 144.855 60.5822 144.684 60.6986C143.953 61.2066 143.43 61.9611 143.211 62.8238C143.317 62.8391 143.425 62.8391 143.531 62.8238C143.73 62.0562 144.2 61.3867 144.855 60.9391C145.013 60.8367 145.197 60.7812 145.386 60.7788C145.495 60.7792 145.601 60.8067 145.697 60.859C145.86 60.9979 145.984 61.178 146.054 61.3807C146.125 61.5834 146.14 61.8013 146.098 62.0118C146.102 62.0986 146.102 62.1856 146.098 62.2724L146.398 62.4428C146.413 62.2995 146.413 62.1551 146.398 62.0118C146.439 61.7524 146.41 61.4871 146.315 61.2425C146.22 60.9979 146.062 60.7826 145.857 60.6184Z" fill="#263238"/>
<path opacity="0.1" d="M140.434 60.7386C140.379 60.7542 140.331 60.7871 140.297 60.8323C140.263 60.8775 140.245 60.9326 140.245 60.9892C140.245 61.0459 140.263 61.101 140.297 61.1462C140.331 61.1914 140.379 61.2243 140.434 61.2399C140.57 61.3055 140.719 61.3397 140.87 61.3397C141.021 61.3397 141.17 61.3055 141.306 61.2399C141.36 61.2243 141.408 61.1914 141.442 61.1462C141.477 61.101 141.495 61.0459 141.495 60.9892C141.495 60.9326 141.477 60.8775 141.442 60.8323C141.408 60.7871 141.36 60.7542 141.306 60.7386C141.17 60.6729 141.021 60.6388 140.87 60.6388C140.719 60.6388 140.57 60.6729 140.434 60.7386Z" fill="black"/>
<path d="M143.231 59.1047C143.046 59.0126 142.839 58.9715 142.633 58.9856C142.427 58.9997 142.229 59.0685 142.058 59.1848C141.327 59.6929 140.804 60.4474 140.584 61.31C140.69 61.3304 140.799 61.3304 140.905 61.31C141.104 60.5481 141.57 59.8829 142.218 59.4354C142.38 59.332 142.567 59.2732 142.759 59.265C142.87 59.264 142.978 59.2953 143.07 59.3553C143.23 59.4811 143.354 59.6459 143.431 59.8338C143.509 60.0217 143.536 60.2263 143.511 60.4279C143.517 60.5147 143.517 60.6017 143.511 60.6885L143.812 60.869C143.822 60.7221 143.822 60.5747 143.812 60.4279C143.838 60.1759 143.798 59.9214 143.696 59.6895C143.594 59.4575 143.434 59.256 143.231 59.1047Z" fill="#263238"/>
<path d="M145.687 83.0633C145.573 83.0543 145.466 83.0104 145.378 82.9378C145.291 82.8651 145.228 82.7672 145.198 82.6574C145.169 82.5477 145.174 82.4314 145.213 82.3246C145.252 82.2178 145.323 82.1257 145.416 82.0609L159.881 73.7004C160.014 73.6273 160.171 73.61 160.317 73.6523C160.462 73.6946 160.585 73.793 160.658 73.926C160.731 74.0589 160.749 74.2154 160.706 74.3611C160.664 74.5068 160.566 74.6298 160.433 74.7029L145.967 83.0533C145.876 83.0808 145.78 83.0843 145.687 83.0633Z" fill="#EBEBEB"/>
<path d="M143.932 82.0608C143.837 82.0602 143.744 82.035 143.661 81.9875C143.579 81.9401 143.51 81.8721 143.461 81.7901C143.388 81.6638 143.369 81.5137 143.406 81.3728C143.444 81.2319 143.536 81.1116 143.662 81.0383L158.127 72.6477C158.253 72.5855 158.397 72.5733 158.531 72.6138C158.665 72.6542 158.779 72.7442 158.849 72.8654C158.92 72.9867 158.941 73.1301 158.909 73.2665C158.877 73.403 158.795 73.5222 158.678 73.6001L144.213 81.9505C144.132 82.0127 144.034 82.0508 143.932 82.0608Z" fill="#EBEBEB"/>
<path d="M142.178 81.0584C142.082 81.0568 141.988 81.03 141.905 80.9808C141.822 80.9316 141.754 80.8616 141.707 80.7777C141.634 80.6514 141.614 80.5013 141.652 80.3604C141.69 80.2195 141.781 80.0992 141.907 80.0259L156.373 71.6755C156.499 71.6027 156.649 71.5828 156.79 71.6204C156.931 71.658 157.051 71.7499 157.125 71.8759C157.162 71.9381 157.187 72.0072 157.197 72.0791C157.207 72.151 157.203 72.2242 157.184 72.2943C157.165 72.3645 157.132 72.4302 157.088 72.4874C157.043 72.5447 156.988 72.5924 156.924 72.6278L142.459 80.9782C142.374 81.0288 142.277 81.0564 142.178 81.0584Z" fill="#EBEBEB"/>
<path d="M140.434 80.056C140.32 80.0488 140.211 80.0062 140.122 79.9343C140.033 79.8623 139.968 79.7645 139.938 79.6544C139.907 79.5443 139.911 79.4273 139.95 79.3196C139.988 79.2119 140.059 79.119 140.153 79.0535L154.629 70.7031C154.694 70.6669 154.767 70.644 154.841 70.6357C154.916 70.6275 154.992 70.634 155.064 70.655C155.136 70.6759 155.203 70.7108 155.262 70.7578C155.32 70.8048 155.369 70.8628 155.405 70.9286C155.442 70.9945 155.465 71.0668 155.473 71.1414C155.481 71.2161 155.475 71.2917 155.454 71.3638C155.433 71.436 155.398 71.5033 155.351 71.5619C155.304 71.6205 155.246 71.6694 155.18 71.7056L140.704 80.056C140.616 80.0794 140.523 80.0794 140.434 80.056Z" fill="#EBEBEB"/>
<path d="M138.68 78.9934C138.582 78.9925 138.486 78.9662 138.402 78.9169C138.317 78.8677 138.247 78.7973 138.198 78.7127C138.128 78.5858 138.11 78.4366 138.147 78.2964C138.185 78.1562 138.275 78.036 138.399 77.9609L152.874 69.6104C153 69.5481 153.144 69.536 153.278 69.5764C153.413 69.6169 153.526 69.7069 153.596 69.8281C153.667 69.9493 153.688 70.0927 153.656 70.2292C153.625 70.3656 153.542 70.4849 153.426 70.5627L138.95 78.9132C138.869 78.9638 138.775 78.9915 138.68 78.9934Z" fill="#EBEBEB"/>
<path d="M136.925 77.9809C136.828 77.98 136.732 77.9537 136.647 77.9044C136.563 77.8552 136.493 77.7848 136.444 77.7002C136.408 77.637 136.386 77.5675 136.377 77.4955C136.368 77.4235 136.374 77.3504 136.393 77.2806C136.413 77.2107 136.446 77.1455 136.491 77.0884C136.536 77.0314 136.591 76.9838 136.655 76.9484L151.11 68.5979C151.235 68.5357 151.38 68.5235 151.514 68.5639C151.648 68.6044 151.762 68.6944 151.832 68.8156C151.902 68.9368 151.924 69.0802 151.892 69.2167C151.86 69.3531 151.778 69.4724 151.661 69.5502L137.186 77.9007C137.107 77.9497 137.018 77.9773 136.925 77.9809Z" fill="#EBEBEB"/>
<path d="M135.171 76.9684C135.074 76.9689 134.979 76.943 134.896 76.8935C134.813 76.8441 134.745 76.7729 134.7 76.6877C134.627 76.5614 134.607 76.4113 134.645 76.2704C134.682 76.1295 134.774 76.0092 134.9 75.9359L149.366 67.5854C149.491 67.5232 149.636 67.511 149.77 67.5515C149.904 67.5919 150.018 67.6818 150.088 67.8031C150.158 67.9243 150.179 68.0678 150.148 68.2042C150.116 68.3407 150.033 68.4599 149.917 68.5378L135.452 76.8982C135.366 76.9462 135.269 76.9704 135.171 76.9684Z" fill="#EBEBEB"/>
<path d="M133.417 75.9558C133.32 75.9542 133.226 75.9275 133.144 75.8782C133.061 75.829 132.993 75.759 132.945 75.6752C132.875 75.5482 132.857 75.399 132.894 75.2589C132.932 75.1187 133.022 74.9985 133.146 74.9233L147.611 66.5729C147.738 66.5001 147.888 66.4803 148.029 66.5179C148.17 66.5554 148.29 66.6473 148.363 66.7734C148.401 66.8356 148.425 66.9047 148.435 66.9766C148.445 67.0484 148.441 67.1216 148.422 67.1918C148.404 67.2619 148.371 67.3276 148.326 67.3849C148.282 67.4422 148.226 67.4899 148.163 67.5252L133.697 75.8857C133.612 75.9336 133.515 75.9579 133.417 75.9558Z" fill="#EBEBEB"/>
<path d="M131.672 74.9434C131.558 74.9362 131.449 74.8936 131.36 74.8217C131.271 74.7497 131.207 74.6519 131.176 74.5418C131.145 74.4317 131.15 74.3147 131.188 74.207C131.227 74.0994 131.298 74.0064 131.392 73.9409L145.867 65.5905C145.994 65.5203 146.143 65.502 146.283 65.5394C146.424 65.5767 146.544 65.6669 146.619 65.791C146.656 65.8538 146.68 65.9235 146.689 65.9958C146.699 66.0681 146.693 66.1415 146.674 66.2117C146.654 66.282 146.621 66.3475 146.575 66.4044C146.529 66.4613 146.473 66.5083 146.408 66.5428L131.943 74.9033C131.858 74.9396 131.765 74.9534 131.672 74.9434Z" fill="#EBEBEB"/>
<path d="M129.918 73.9309C129.82 73.93 129.725 73.9037 129.64 73.8544C129.556 73.8052 129.486 73.7348 129.437 73.6502C129.367 73.5232 129.348 73.3741 129.386 73.2339C129.423 73.0937 129.513 72.9735 129.637 72.8983L144.093 64.5479C144.22 64.4777 144.369 64.4594 144.509 64.4968C144.649 64.5341 144.769 64.6243 144.845 64.7484C144.917 64.8748 144.937 65.0248 144.9 65.1657C144.862 65.3066 144.77 65.4269 144.644 65.5003L130.169 73.8607C130.092 73.9049 130.006 73.9291 129.918 73.9309Z" fill="#EBEBEB"/>
<path d="M128.164 72.9185C128.067 72.9177 127.972 72.8924 127.888 72.8451C127.804 72.7978 127.733 72.7299 127.683 72.6478C127.647 72.5846 127.624 72.5151 127.615 72.4431C127.607 72.3711 127.612 72.298 127.632 72.2282C127.651 72.1584 127.685 72.0931 127.729 72.0361C127.774 71.979 127.83 71.9314 127.893 71.8959L142.359 63.5355C142.422 63.4998 142.491 63.477 142.563 63.4683C142.635 63.4596 142.708 63.4652 142.778 63.4848C142.848 63.5043 142.913 63.5375 142.97 63.5823C143.027 63.6271 143.075 63.6828 143.11 63.746C143.181 63.873 143.199 64.0221 143.162 64.1623C143.124 64.3024 143.034 64.4227 142.91 64.4979L128.434 72.8483C128.352 72.8959 128.259 72.9202 128.164 72.9185Z" fill="#EBEBEB"/>
<path d="M126.41 71.906C126.296 71.897 126.188 71.8531 126.101 71.7805C126.014 71.7078 125.951 71.6099 125.921 71.5001C125.891 71.3904 125.896 71.2741 125.935 71.1673C125.974 71.0605 126.045 70.9684 126.139 70.9036L140.604 62.5431C140.737 62.47 140.894 62.4527 141.039 62.495C141.185 62.5373 141.308 62.6357 141.381 62.7686C141.454 62.9016 141.472 63.0581 141.429 63.2038C141.387 63.3495 141.289 63.4724 141.156 63.5455L126.69 71.896C126.599 71.9235 126.502 71.927 126.41 71.906Z" fill="#EBEBEB"/>
<path d="M124.665 70.8935C124.568 70.8936 124.473 70.8688 124.389 70.8214C124.305 70.774 124.234 70.7056 124.184 70.6228C124.111 70.4965 124.091 70.3464 124.129 70.2055C124.167 70.0646 124.258 69.9443 124.384 69.871L138.85 61.5105C138.913 61.4749 138.983 61.4521 139.055 61.4433C139.127 61.4346 139.2 61.4402 139.269 61.4598C139.339 61.4793 139.405 61.5125 139.462 61.5573C139.519 61.6021 139.566 61.6578 139.602 61.721C139.672 61.848 139.69 61.9972 139.653 62.1373C139.616 62.2775 139.525 62.3978 139.401 62.4729L124.936 70.8233C124.854 70.8709 124.76 70.8952 124.665 70.8935Z" fill="#EBEBEB"/>
<path d="M147.471 84.0657C147.374 84.0659 147.279 84.0411 147.195 83.9936C147.111 83.9462 147.04 83.8778 146.99 83.7951C146.917 83.6687 146.897 83.5187 146.935 83.3777C146.972 83.2368 147.064 83.1166 147.19 83.0432L162.498 74.1916C162.623 74.1293 162.768 74.1172 162.902 74.1576C163.036 74.198 163.15 74.288 163.22 74.4093C163.29 74.5305 163.312 74.6739 163.28 74.8104C163.248 74.9468 163.166 75.0661 163.049 75.1439L147.742 83.9956C147.659 84.0422 147.566 84.0665 147.471 84.0657Z" fill="#0082F4"/>
<g opacity="0.25">
<path opacity="0.25" d="M155.12 72.7981C154.962 72.6185 154.757 72.4866 154.528 72.4172L154.238 72.2668C154.107 72.0563 153.927 71.7055 154.167 71.6654C154.408 71.6253 154.578 71.7857 154.729 71.8257C154.879 71.8658 154.789 71.7355 154.729 71.7055C154.478 71.6052 153.977 71.2844 153.877 71.7055C153.854 71.8421 153.875 71.9826 153.937 72.1064C153.817 72.0551 153.687 72.0311 153.556 72.0363C153.436 72.0363 153.325 72.0363 153.285 72.1967C153.245 72.357 153.285 72.3069 153.285 72.3671C153.288 72.3982 153.301 72.4275 153.323 72.4496C153.345 72.4716 153.374 72.4851 153.406 72.4874H153.265C153.085 72.4874 152.584 72.3671 152.473 72.5876C152.363 72.8081 152.533 72.8182 152.473 72.8482C152.413 72.8783 152.112 72.9886 152.052 73.0187C151.992 73.0487 152.052 73.1389 152.052 73.149C151.879 73.159 151.705 73.159 151.531 73.149C151.24 73.149 150.529 73.0688 150.619 73.5099C150.619 73.5099 150.619 73.5099 150.679 73.6302C150.739 73.7504 150.679 73.7304 150.679 73.7404C150.679 73.7505 150.679 73.7404 150.609 73.8006C150.539 73.8607 150.478 73.8006 150.448 73.8707C150.418 73.9409 150.519 74.1013 150.348 74.2116C150.178 74.3219 149.606 74.0512 149.346 74.2116C149.085 74.372 149.416 74.803 149.025 74.803C148.945 74.803 149.025 74.9333 149.025 74.9434C149.386 74.9434 149.346 74.9434 149.416 74.6126C149.536 74.1314 150.248 74.4622 150.649 74.3519C150.699 74.3519 150.699 74.2818 150.649 74.2417C150.599 74.2016 150.649 73.981 150.829 73.9008C150.836 73.8943 150.841 73.8865 150.845 73.8779C150.848 73.8693 150.85 73.86 150.85 73.8507C150.85 73.8414 150.848 73.8321 150.845 73.8235C150.841 73.8149 150.836 73.8071 150.829 73.8006C150.779 73.7204 150.629 73.4798 150.719 73.3695C150.86 73.3373 151.005 73.3205 151.15 73.3194C151.461 73.3194 151.772 73.3194 152.082 73.3194C152.092 73.32 152.102 73.3181 152.111 73.3139C152.12 73.3097 152.128 73.3034 152.134 73.2954C152.14 73.2875 152.144 73.2782 152.145 73.2684C152.147 73.2586 152.146 73.2486 152.142 73.2392C152.142 73.139 152.503 73.0688 152.594 73.0487C152.603 73.0377 152.609 73.0234 152.609 73.0086C152.609 72.9938 152.603 72.9796 152.594 72.9685C152.403 72.4874 153.115 72.6578 153.406 72.7079C153.418 72.7096 153.43 72.7084 153.442 72.7044C153.454 72.7005 153.464 72.6939 153.473 72.6851C153.482 72.6764 153.488 72.6658 153.492 72.6541C153.496 72.6424 153.497 72.6299 153.496 72.6177C153.446 72.4573 153.085 72.2969 153.496 72.2368C153.607 72.231 153.718 72.2552 153.817 72.3069C153.997 72.6186 154.252 72.8804 154.558 73.0688C155.05 73.2192 155.33 73.1189 155.12 72.7981ZM154.989 72.8783C155.07 72.9986 154.799 72.8783 154.759 72.8783C154.604 72.7817 154.476 72.6471 154.388 72.4874L154.609 72.5976C154.756 72.6595 154.887 72.7557 154.989 72.8783Z" fill="#455A64"/>
<path opacity="0.25" d="M147.882 75.8456C147.822 75.6351 147.822 75.4045 148.012 75.3845C148.203 75.3644 148.012 75.2442 148.012 75.2442C147.752 75.2442 147.672 75.4547 147.702 75.7353C147.602 75.6806 147.493 75.6433 147.381 75.6251C147.21 75.6251 147.1 75.6251 147.04 75.7554C146.98 75.8857 147.04 75.9258 147.04 76.0261C147.04 76.1263 147.17 76.1062 146.97 76.1564C146.89 76.1613 146.809 76.1613 146.729 76.1564C146.519 76.1564 146.499 76.1564 146.378 76.2566C146.258 76.3569 146.569 76.417 146.188 76.3569C146.088 76.3417 145.987 76.3417 145.887 76.3569C145.747 76.3569 145.677 76.427 145.697 76.5874C145.717 76.7478 145.857 76.7478 145.857 76.7879C145.857 77.1187 145.496 76.838 145.366 76.7879C145.236 76.7378 145.276 76.7879 145.276 76.8381C145.276 76.8882 145.386 77.0686 145.145 77.0786C145.145 77.0786 144.955 76.9884 144.905 76.9884C144.855 76.9884 144.604 77.1889 144.404 77.1688C144.393 77.1692 144.383 77.1722 144.374 77.1776C144.365 77.183 144.358 77.1907 144.353 77.1997C144.348 77.2088 144.345 77.2191 144.345 77.2295C144.345 77.2399 144.348 77.2501 144.353 77.2591C144.404 77.4094 144.484 77.4996 144.183 77.63C144.066 77.636 143.949 77.636 143.832 77.63C143.752 77.63 143.832 77.7703 143.832 77.7703C143.832 77.7703 144.434 77.9808 144.574 77.7703C144.714 77.5598 144.474 77.4696 144.524 77.3794C144.524 77.4395 144.794 77.2992 144.825 77.2891C144.898 77.2553 144.975 77.2317 145.055 77.219C145.105 77.219 145.135 77.2891 145.175 77.2891C145.216 77.2891 145.306 77.2891 145.356 77.2891C145.406 77.2891 145.416 77.1889 145.436 77.1789C145.456 77.1689 145.376 77.0987 145.436 77.0586C145.496 77.0185 145.576 77.1087 145.647 77.1388C145.717 77.1688 145.937 77.2591 146.028 77.1388C146.118 77.0185 145.927 76.8781 145.947 76.7679C145.967 76.6576 146.328 76.7177 146.489 76.6075C146.495 76.5968 146.498 76.5847 146.498 76.5724C146.498 76.5601 146.495 76.548 146.489 76.5373C146.398 76.2065 146.99 76.4671 147.17 76.427C147.189 76.427 147.207 76.4196 147.22 76.4065C147.233 76.3933 147.24 76.3755 147.24 76.3569L147.16 76.1564C147.21 75.9559 147.481 75.9759 147.611 76.016C147.732 76.417 148.042 76.818 148.383 76.7077C148.397 76.7053 148.41 76.698 148.419 76.6869C148.429 76.6759 148.434 76.6619 148.433 76.6476C148.504 76.3067 148.203 76.0461 147.882 75.8456ZM148.002 76.1764C147.999 76.1431 147.999 76.1095 148.002 76.0762C148.096 76.1421 148.177 76.2234 148.243 76.3168C148.263 76.5172 148.032 76.2266 148.002 76.1764Z" fill="#455A64"/>
<path opacity="0.25" d="M153.115 77.9807C152.956 77.8023 152.752 77.6706 152.523 77.5998L152.243 77.4595C152.102 77.2389 151.932 76.8881 152.163 76.848C152.393 76.8079 152.574 76.9683 152.724 77.0184C152.874 77.0685 152.794 76.9181 152.724 76.8881C152.463 76.7878 151.972 76.467 151.862 76.8881C151.844 77.0247 151.865 77.1637 151.922 77.289C151.802 77.2367 151.672 77.2127 151.541 77.2189C151.421 77.2189 151.321 77.2189 151.28 77.3793C151.24 77.5397 151.28 77.4895 151.28 77.5497C151.28 77.6098 151.381 77.67 151.401 77.68H151.27C151.09 77.68 150.589 77.5497 150.468 77.7702C150.348 77.9908 150.529 78.0008 150.519 78.0309C150.509 78.061 150.158 78.1712 150.087 78.2113C150.017 78.2514 150.087 78.3216 150.087 78.3316C149.911 78.3468 149.733 78.3468 149.556 78.3316C149.275 78.3316 148.554 78.2514 148.644 78.7025C148.644 78.7025 148.694 78.7025 148.704 78.8228V78.9231C148.704 78.9231 148.704 78.923 148.644 78.9832C148.584 79.0433 148.514 78.9832 148.484 79.0534C148.453 79.1235 148.554 79.2839 148.383 79.3942C148.213 79.5045 147.631 79.2438 147.381 79.3942C147.13 79.5446 147.451 79.9756 147.06 79.9857C146.98 79.9857 147.06 80.1059 147.06 80.116C147.421 80.116 147.381 80.116 147.451 79.7852C147.561 79.304 148.283 79.6348 148.684 79.5245C148.684 79.5245 148.734 79.4543 148.684 79.4142C148.634 79.3741 148.684 79.1536 148.854 79.0834C148.863 79.0769 148.87 79.0685 148.874 79.0589C148.879 79.0494 148.881 79.0389 148.881 79.0283C148.881 79.0177 148.879 79.0072 148.874 78.9977C148.87 78.9881 148.863 78.9798 148.854 78.9732C148.854 78.893 148.664 78.6524 148.754 78.5421C148.844 78.4318 149.135 78.5421 149.185 78.5421C149.496 78.5421 149.807 78.5421 150.118 78.5421C150.128 78.5411 150.138 78.5378 150.147 78.5324C150.156 78.5271 150.163 78.5198 150.169 78.5112C150.175 78.5026 150.178 78.4928 150.18 78.4825C150.181 78.4723 150.181 78.4618 150.178 78.4519C150.178 78.3517 150.539 78.2815 150.629 78.2614C150.719 78.2414 150.629 78.2113 150.629 78.1812C150.428 77.7001 151.14 77.8805 151.441 77.9206C151.501 77.9206 151.541 77.9206 151.521 77.8304C151.501 77.7402 151.12 77.5096 151.521 77.4494C151.636 77.4478 151.75 77.4754 151.852 77.5297C152.037 77.8341 152.287 78.0941 152.584 78.2915C153.115 78.4018 153.355 78.3116 153.115 77.9807ZM152.985 78.071C153.075 78.1812 152.794 78.071 152.764 78.071C152.607 77.9769 152.479 77.8417 152.393 77.68C152.462 77.7248 152.536 77.7617 152.614 77.7903C152.766 77.8388 152.901 77.9291 153.005 78.0509L152.985 78.071Z" fill="#455A64"/>
<path opacity="0.25" d="M157.586 74.3018C157.586 74.0913 157.526 73.8707 157.716 73.8407C157.907 73.8106 157.716 73.7003 157.716 73.7003C157.456 73.7003 157.375 73.9209 157.405 74.1915C157.302 74.1458 157.194 74.1089 157.085 74.0813C156.914 74.0813 156.804 74.0813 156.744 74.2216C156.684 74.3619 156.794 74.392 156.744 74.4822C156.694 74.5725 156.874 74.5624 156.674 74.6126C156.594 74.6222 156.513 74.6222 156.433 74.6126C156.222 74.6126 156.202 74.6126 156.082 74.7228C155.962 74.8331 156.273 74.8832 155.892 74.8231C155.793 74.7989 155.69 74.7989 155.591 74.8231C155.451 74.8231 155.38 74.8933 155.411 75.0436C155.441 75.194 155.561 75.204 155.561 75.2541C155.561 75.5849 155.2 75.3042 155.07 75.2541C155.061 75.2489 155.05 75.2461 155.04 75.246C155.03 75.246 155.019 75.2486 155.01 75.2536C155.001 75.2587 154.994 75.266 154.988 75.2749C154.983 75.2837 154.98 75.2939 154.979 75.3043C154.979 75.4647 155.09 75.5248 154.849 75.5448C154.849 75.5448 154.659 75.4546 154.609 75.4446C154.558 75.4346 154.308 75.6451 154.107 75.6351C153.907 75.625 154.037 75.6351 154.057 75.7253C154.077 75.8155 154.188 75.9659 153.887 76.0962L153.536 76.0461C153.456 76.0461 153.536 76.1864 153.536 76.1964C153.536 76.2065 154.137 76.3969 154.278 76.1964C154.418 75.9959 154.177 75.8957 154.228 75.8155C154.278 75.7353 154.498 75.7253 154.528 75.7153C154.604 75.6894 154.681 75.6692 154.759 75.6551C154.809 75.6551 154.839 75.7253 154.889 75.7253C154.939 75.7253 155.01 75.7253 155.06 75.7253C155.11 75.7253 155.12 75.625 155.15 75.615C155.18 75.605 155.08 75.5348 155.15 75.5047C155.22 75.4747 155.29 75.5047 155.36 75.5749C155.431 75.6451 155.651 75.6952 155.741 75.5749C155.832 75.4546 155.641 75.3043 155.661 75.204C155.681 75.1038 156.052 75.1439 156.202 75.0336C156.21 75.0234 156.214 75.0111 156.214 74.9985C156.214 74.9859 156.21 74.9737 156.202 74.9634C156.112 74.6326 156.704 74.8933 156.894 74.8632C156.911 74.8608 156.926 74.8523 156.937 74.8394C156.948 74.8265 156.954 74.81 156.954 74.793C156.954 74.793 156.884 74.5925 156.884 74.5825C156.884 74.392 157.195 74.4121 157.325 74.4421C157.446 74.8431 157.756 75.2441 158.107 75.1338C158.112 75.1244 158.114 75.1142 158.114 75.1038C158.114 75.0934 158.112 75.0831 158.107 75.0737C158.217 74.7629 157.907 74.4923 157.586 74.3018ZM157.706 74.6326C157.703 74.6026 157.703 74.5724 157.706 74.5424C157.8 74.6033 157.882 74.6815 157.947 74.773C157.977 74.9735 157.736 74.6827 157.706 74.6326Z" fill="#455A64"/>
<path opacity="0.25" d="M144.424 66.8836C144.269 66.7028 144.062 66.5735 143.832 66.5127L143.551 66.3624C143.421 66.1518 143.241 65.801 143.471 65.7609C143.702 65.7208 143.882 65.8812 144.043 65.9213C144.203 65.9614 144.103 65.821 144.043 65.801C143.782 65.7007 143.291 65.38 143.191 65.801C143.169 65.9377 143.19 66.0777 143.251 66.202C143.131 66.1506 143 66.1267 142.87 66.1318C142.75 66.1318 142.639 66.1318 142.599 66.2922C142.559 66.4526 142.599 66.4025 142.599 66.4626C142.601 66.4937 142.615 66.523 142.637 66.5451C142.659 66.5672 142.688 66.5806 142.719 66.5829H142.579C142.399 66.5829 141.897 66.4526 141.787 66.6832C141.677 66.9137 141.847 66.9037 141.787 66.9438C141.727 66.9839 141.426 67.0741 141.366 67.1142C141.306 67.1543 141.366 67.2345 141.366 67.2445C141.193 67.2546 141.018 67.2546 140.845 67.2445C140.554 67.2445 139.842 67.1643 139.933 67.6054C139.933 67.6555 139.933 67.6054 139.983 67.7257C139.978 67.7623 139.978 67.7994 139.983 67.836C139.983 67.836 139.983 67.836 139.913 67.8961C139.842 67.9563 139.782 67.8961 139.752 67.9663C139.722 68.0365 139.822 68.1969 139.652 68.3071C139.482 68.4174 138.91 68.1467 138.649 68.3071C138.389 68.4675 138.72 68.8885 138.329 68.8986C138.248 68.8986 138.329 69.0289 138.329 69.0289C138.69 69.0289 138.649 69.0289 138.72 68.6981C138.83 68.2169 139.552 68.5477 139.953 68.4374C140.003 68.4374 140.003 68.3673 139.953 68.3372C139.903 68.3071 139.953 68.0665 140.133 67.9964C140.14 67.9898 140.145 67.982 140.149 67.9734C140.152 67.9648 140.154 67.9556 140.154 67.9463C140.154 67.9369 140.152 67.9277 140.149 67.9191C140.145 67.9105 140.14 67.9026 140.133 67.8961C140.083 67.8159 139.933 67.5753 140.023 67.4651C140.166 67.4486 140.311 67.4486 140.454 67.4651C140.765 67.4651 141.075 67.4651 141.386 67.4651C141.397 67.4667 141.409 67.465 141.419 67.4604C141.43 67.4558 141.438 67.4483 141.445 67.4389C141.451 67.4295 141.454 67.4184 141.455 67.4071C141.455 67.3958 141.452 67.3846 141.446 67.3749C141.446 67.2746 141.807 67.2145 141.897 67.1944C141.908 67.1818 141.914 67.1658 141.914 67.1493C141.914 67.1328 141.908 67.1168 141.897 67.1042C141.707 66.623 142.419 66.8034 142.709 66.8536C142.721 66.8559 142.734 66.855 142.745 66.8511C142.757 66.8472 142.767 66.8404 142.775 66.8313C142.783 66.8222 142.789 66.8111 142.791 66.7992C142.794 66.7873 142.793 66.7749 142.79 66.7633C142.79 66.5929 142.389 66.4325 142.79 66.3724C142.904 66.3745 143.017 66.4019 143.12 66.4526C143.301 66.7642 143.555 67.0261 143.862 67.2145C144.363 67.3147 144.644 67.2144 144.424 66.8836ZM144.293 66.9739C144.384 67.0942 144.103 66.9739 144.073 66.9739C143.914 66.8771 143.786 66.7383 143.702 66.5729L143.922 66.6932C144.077 66.7631 144.206 66.8785 144.293 67.024V66.9739Z" fill="#455A64"/>
<path opacity="0.25" d="M137.196 69.9412C137.136 69.7306 137.136 69.5001 137.326 69.47C137.517 69.4399 137.326 69.3296 137.326 69.3296C137.066 69.3296 136.985 69.5502 137.015 69.8209C136.912 69.7751 136.805 69.7382 136.695 69.7106C136.524 69.7106 136.414 69.7106 136.354 69.8509C136.294 69.9913 136.354 70.0213 136.354 70.1116C136.354 70.2018 136.484 70.1918 136.274 70.2519C136.197 70.2562 136.12 70.2562 136.043 70.2519C135.979 70.2384 135.912 70.2414 135.848 70.2606C135.785 70.2799 135.728 70.3148 135.682 70.3622C135.562 70.4724 135.873 70.5226 135.502 70.4624C135.402 70.4473 135.301 70.4473 135.201 70.4624C135.061 70.4624 134.991 70.5326 135.011 70.693C135.031 70.8534 135.171 70.8534 135.171 70.8935C135.171 71.2243 134.81 70.8935 134.68 70.8935C134.549 70.8935 134.59 70.8935 134.59 70.8935C134.59 70.8935 134.7 71.114 134.459 71.1341C134.459 71.1341 134.269 71.0439 134.219 71.0439C134.168 71.0439 133.918 71.2444 133.717 71.2243C133.707 71.2253 133.697 71.2286 133.688 71.234C133.679 71.2393 133.672 71.2466 133.666 71.2552C133.66 71.2638 133.656 71.2736 133.655 71.2839C133.653 71.2941 133.654 71.3046 133.657 71.3145C133.717 71.4649 133.798 71.5551 133.497 71.6854H133.146C133.056 71.6854 133.146 71.8258 133.146 71.8258C133.146 71.8258 133.747 72.0363 133.888 71.8258C134.028 71.6153 133.788 71.5351 133.838 71.4448C133.888 71.3546 134.108 71.3646 134.138 71.3546C134.212 71.3208 134.289 71.2972 134.369 71.2844C134.369 71.2844 134.449 71.3546 134.489 71.3546C134.529 71.3546 134.61 71.3546 134.67 71.3546C134.73 71.3546 134.73 71.2544 134.75 71.2343C134.77 71.2143 134.68 71.1641 134.75 71.124C134.82 71.084 134.89 71.1742 134.96 71.1942C135.031 71.2143 135.241 71.3145 135.341 71.1942C135.442 71.0739 135.241 70.9336 135.261 70.8233C135.281 70.7131 135.642 70.7632 135.803 70.6629C135.81 70.6507 135.813 70.6369 135.813 70.6228C135.813 70.6087 135.81 70.5949 135.803 70.5827C135.702 70.2619 136.304 70.5126 136.484 70.4825C136.665 70.4524 136.554 70.4825 136.554 70.4123L136.474 70.2118C136.524 70.0113 136.795 70.0314 136.915 70.0615C137.036 70.4624 137.356 70.8634 137.697 70.7632C137.711 70.7593 137.722 70.7514 137.731 70.7407C137.74 70.73 137.746 70.7169 137.747 70.703C137.817 70.3923 137.517 70.1216 137.196 69.9412ZM137.316 70.262L137.266 70.1717C137.368 70.2303 137.454 70.3129 137.517 70.4123C137.577 70.6128 137.346 70.3221 137.316 70.262Z" fill="#455A64"/>
<path opacity="0.25" d="M142.449 72.0363C142.295 71.8518 142.089 71.7188 141.857 71.6553L141.577 71.505C141.436 71.2944 141.266 70.9436 141.496 70.9035C141.727 70.8634 141.907 71.0238 142.058 71.0639C142.208 71.104 142.128 70.9636 142.058 70.9436C141.797 70.8433 141.306 70.5226 141.196 70.9436C141.173 71.0802 141.194 71.2207 141.256 71.3446C141.136 71.2932 141.006 71.2693 140.875 71.2744C140.755 71.2744 140.654 71.2744 140.614 71.4348C140.574 71.5952 140.614 71.5451 140.614 71.6052C140.618 71.6357 140.632 71.6639 140.654 71.6857C140.676 71.7074 140.704 71.7214 140.735 71.7255H140.604C140.414 71.7255 139.923 71.5952 139.802 71.8257C139.682 72.0563 139.862 72.0463 139.802 72.0864C139.742 72.1265 139.431 72.2267 139.371 72.2568C139.311 72.2869 139.371 72.3771 139.371 72.3871C139.194 72.3972 139.017 72.3972 138.84 72.3871C138.549 72.3871 137.837 72.3069 137.928 72.748C137.928 72.7981 137.928 72.748 137.988 72.8683C138.048 72.9886 137.988 72.9685 137.988 72.9786C137.988 72.9886 137.988 72.9786 137.918 73.0387C137.848 73.0989 137.797 73.0387 137.757 73.1089C137.717 73.1791 137.837 73.3395 137.667 73.4497C137.497 73.56 136.915 73.2893 136.665 73.4497C136.414 73.6101 136.725 74.0311 136.344 74.0412C136.254 74.0412 136.344 74.1715 136.344 74.1815C136.705 74.1815 136.665 74.1815 136.735 73.8507C136.845 73.3695 137.567 73.7003 137.968 73.59C137.982 73.5752 137.99 73.5554 137.99 73.5349C137.99 73.5144 137.982 73.4947 137.968 73.4798C137.858 73.3094 137.968 73.2192 138.138 73.139C138.309 73.0588 138.188 73.0788 138.138 73.0387C138.088 72.9986 137.948 72.7179 138.038 72.6077C138.176 72.5744 138.317 72.5575 138.459 72.5575C138.78 72.5575 139.091 72.5575 139.401 72.5575C139.401 72.5575 139.482 72.5074 139.461 72.4673C139.441 72.4272 139.822 72.3069 139.913 72.2869C139.921 72.2751 139.925 72.2611 139.925 72.2468C139.925 72.2324 139.921 72.2185 139.913 72.2067C139.712 71.7255 140.424 71.8959 140.725 71.946C140.737 71.9484 140.749 71.9475 140.76 71.9436C140.772 71.9397 140.782 71.9329 140.79 71.9238C140.798 71.9147 140.804 71.9036 140.807 71.8917C140.809 71.8798 140.808 71.8674 140.805 71.8558C140.755 71.6954 140.404 71.525 140.805 71.4749C140.916 71.4681 141.027 71.4924 141.126 71.5451C141.308 71.8547 141.563 72.116 141.867 72.3069C142.379 72.4974 142.669 72.3971 142.449 72.0363ZM142.318 72.1164C142.409 72.2367 142.128 72.1164 142.098 72.1164C141.938 72.0255 141.809 71.8895 141.727 71.7255L141.948 71.8358C142.098 71.9068 142.226 72.0178 142.318 72.1565V72.1164Z" fill="#455A64"/>
<path opacity="0.25" d="M146.9 68.3973C146.84 68.1868 146.84 67.9563 147.03 67.9362C147.22 67.9162 147.03 67.7959 147.03 67.7959C146.769 67.7959 146.689 68.0064 146.719 68.2871C146.619 68.2324 146.511 68.1951 146.398 68.1768C146.228 68.1768 146.118 68.1768 146.058 68.3071C145.997 68.4374 146.108 68.4775 146.058 68.5778C146.008 68.678 146.188 68.658 145.987 68.7081C145.907 68.7131 145.827 68.7131 145.747 68.7081C145.536 68.7081 145.516 68.7081 145.396 68.8184C145.276 68.9287 145.586 68.9788 145.206 68.9086C145.106 68.8935 145.004 68.8935 144.905 68.9086C144.764 68.9086 144.694 68.9888 144.714 69.1391C144.734 69.2895 144.875 69.2996 144.875 69.3397C144.875 69.6705 144.514 69.3898 144.384 69.3397C144.374 69.3366 144.363 69.3359 144.353 69.3374C144.343 69.3389 144.333 69.3426 144.324 69.3484C144.316 69.3542 144.308 69.3618 144.303 69.3706C144.298 69.3795 144.294 69.3895 144.293 69.3998C144.293 69.5602 144.404 69.6203 144.163 69.6304C144.163 69.6304 143.973 69.5402 143.922 69.5402C143.872 69.5402 143.622 69.7406 143.421 69.7206C143.411 69.7216 143.401 69.7249 143.392 69.7303C143.383 69.7356 143.376 69.7429 143.37 69.7515C143.364 69.7601 143.36 69.7699 143.359 69.7802C143.357 69.7904 143.358 69.8009 143.361 69.8108C143.421 69.9612 143.501 70.0514 143.201 70.1817C143.084 70.1878 142.967 70.1878 142.85 70.1817C142.77 70.1817 142.85 70.3221 142.85 70.3221C142.85 70.3221 143.451 70.5326 143.592 70.3221C143.732 70.1116 143.491 70.0213 143.592 69.9311C143.592 69.9912 143.862 69.8509 143.892 69.8409C143.964 69.8057 144.043 69.7852 144.123 69.7807C144.123 69.7807 144.203 69.8409 144.243 69.8409C144.283 69.8409 144.363 69.8409 144.424 69.8409C144.484 69.8409 144.484 69.7406 144.504 69.7306C144.524 69.7206 144.444 69.6504 144.504 69.6103C144.564 69.5702 144.644 69.6705 144.714 69.6905C144.785 69.7106 145.005 69.8108 145.095 69.6905C145.185 69.5702 144.995 69.4198 145.015 69.3096C145.035 69.1993 145.396 69.3096 145.556 69.1492C145.563 69.1385 145.566 69.1264 145.566 69.1141C145.566 69.1018 145.563 69.0897 145.556 69.079C145.466 68.7482 146.058 69.0088 146.238 68.9687C146.257 68.9687 146.275 68.9614 146.288 68.9482C146.301 68.935 146.308 68.9172 146.308 68.8986L146.228 68.6981C146.228 68.4976 146.549 68.5277 146.669 68.5577C146.789 68.9587 147.11 69.3597 147.451 69.2494C147.456 69.2403 147.459 69.2299 147.459 69.2194C147.459 69.2088 147.456 69.1984 147.451 69.1893C147.521 68.8585 147.22 68.5778 146.9 68.3973ZM147.02 68.7282C147.017 68.6948 147.017 68.6613 147.02 68.6279C147.113 68.6938 147.195 68.7752 147.261 68.8685C147.281 69.0289 147.1 68.7783 147.02 68.7282Z" fill="#455A64"/>
<path opacity="0.25" d="M143.551 75.6451C143.396 75.4625 143.19 75.3299 142.96 75.2641L142.669 75.1138C142.539 74.9033 142.359 74.5524 142.599 74.5123C142.84 74.4722 143.01 74.6326 143.161 74.6727C143.311 74.7128 143.221 74.5724 143.161 74.5524C142.91 74.4522 142.409 74.1314 142.308 74.5524C142.285 74.6891 142.306 74.8295 142.369 74.9534C142.248 74.902 142.118 74.8781 141.988 74.8832C141.867 74.8832 141.757 74.8832 141.717 75.0436C141.677 75.204 141.717 75.1539 141.717 75.214C141.719 75.2452 141.733 75.2744 141.755 75.2965C141.777 75.3186 141.806 75.332 141.837 75.3343H141.697C141.516 75.3343 141.015 75.204 140.905 75.4346C140.795 75.6651 140.965 75.6551 140.905 75.6952C140.845 75.7353 140.544 75.8255 140.484 75.8656C140.424 75.9057 140.484 75.9859 140.484 75.9959C140.31 76.006 140.136 76.006 139.963 75.9959C139.672 75.9959 138.96 75.9157 139.05 76.3568C139.05 76.4069 139.101 76.3568 139.111 76.4771C139.102 76.5133 139.102 76.5512 139.111 76.5874C139.111 76.5874 139.111 76.5874 139.04 76.6475C138.97 76.7077 138.92 76.6475 138.88 76.7177C138.84 76.7879 138.95 76.9483 138.78 77.0585C138.609 77.1688 138.038 76.8981 137.777 77.0585C137.517 77.2189 137.848 77.64 137.467 77.65C137.376 77.65 137.467 77.7803 137.467 77.7803C137.827 77.7803 137.787 77.7803 137.858 77.4495C137.978 76.9783 138.69 77.3091 139.091 77.1889C139.091 77.1889 139.091 77.1187 139.091 77.0886C139.091 77.0585 139.091 76.828 139.271 76.7478C139.278 76.7412 139.283 76.7334 139.287 76.7248C139.29 76.7162 139.292 76.707 139.292 76.6976C139.292 76.6883 139.29 76.6791 139.287 76.6705C139.283 76.6619 139.278 76.6541 139.271 76.6475C139.221 76.5673 139.071 76.3267 139.161 76.2165C139.302 76.1842 139.447 76.1674 139.592 76.1663C139.903 76.1663 140.213 76.1663 140.534 76.1663C140.54 76.1607 140.546 76.1538 140.549 76.146C140.553 76.1382 140.554 76.1298 140.554 76.1212C140.554 76.1127 140.553 76.1043 140.549 76.0965C140.546 76.0887 140.54 76.0818 140.534 76.0761C140.534 75.9759 140.895 75.9157 140.985 75.8957C140.996 75.883 141.002 75.8671 141.002 75.8506C141.002 75.8341 140.996 75.8181 140.985 75.8055C140.795 75.3243 141.506 75.5047 141.797 75.5548C141.809 75.5565 141.822 75.5553 141.834 75.5514C141.845 75.5474 141.856 75.5408 141.865 75.5321C141.873 75.5234 141.88 75.5127 141.884 75.501C141.888 75.4893 141.889 75.4769 141.887 75.4646C141.837 75.3042 141.476 75.1338 141.887 75.0737C141.999 75.0763 142.109 75.1036 142.208 75.1538C142.388 75.4655 142.643 75.7274 142.95 75.9157C143.481 76.046 143.762 75.9659 143.551 75.6451ZM143.421 75.7253C143.501 75.8455 143.231 75.7253 143.191 75.7253C143.032 75.6285 142.904 75.4897 142.82 75.3243L143.04 75.4446C143.189 75.5034 143.321 75.6002 143.421 75.7253Z" fill="#455A64"/>
<path opacity="0.25" d="M147.1 72.2869C147.05 72.0764 147.04 71.8558 147.241 71.8257C147.441 71.7957 147.241 71.6854 147.19 71.6854C146.93 71.6854 146.85 71.906 146.88 72.1766C146.776 72.1309 146.669 72.094 146.559 72.0663C146.388 72.0663 146.278 72.0663 146.218 72.2067C146.158 72.347 146.218 72.3771 146.218 72.4673C146.218 72.5575 146.338 72.5475 146.138 72.6077C146.058 72.612 145.977 72.612 145.897 72.6077C145.687 72.6077 145.677 72.6076 145.546 72.7179C145.416 72.8282 145.737 72.8783 145.356 72.8182C145.26 72.7979 145.161 72.7979 145.065 72.8182C144.925 72.8182 144.845 72.8883 144.875 73.0387C144.905 73.1891 145.035 73.1991 145.035 73.2492C145.035 73.58 144.674 73.2993 144.534 73.2492C144.525 73.2462 144.515 73.2451 144.505 73.246C144.496 73.2469 144.486 73.2498 144.478 73.2545C144.469 73.2592 144.462 73.2656 144.456 73.2734C144.45 73.2811 144.446 73.2899 144.444 73.2994C144.444 73.4598 144.554 73.5199 144.323 73.5399C144.323 73.5399 144.123 73.4497 144.073 73.4497C144.023 73.4497 143.782 73.6402 143.582 73.6302C143.381 73.6201 143.501 73.6302 143.521 73.7204C143.541 73.8106 143.652 73.961 143.351 74.0913L143 74.0412C142.92 74.0412 143 74.1815 143 74.1915C143 74.2016 143.612 74.402 143.742 74.1915C143.872 73.981 143.642 73.8908 143.692 73.8106C143.742 73.7304 143.962 73.7204 143.993 73.7104C144.071 73.6833 144.151 73.6631 144.233 73.6502C144.233 73.6502 144.303 73.7204 144.353 73.7204C144.404 73.7204 144.474 73.7204 144.524 73.7204C144.574 73.7204 144.594 73.6302 144.614 73.6101C144.634 73.5901 144.544 73.5299 144.614 73.4998C144.684 73.4698 144.754 73.55 144.835 73.57C144.915 73.5901 145.115 73.6903 145.216 73.57C145.316 73.4497 145.105 73.2994 145.125 73.1991C145.145 73.0989 145.516 73.139 145.667 73.0387C145.677 73.0277 145.682 73.0134 145.682 72.9986C145.682 72.9838 145.677 72.9696 145.667 72.9585C145.576 72.6377 146.168 72.8883 146.358 72.8583C146.358 72.8583 146.429 72.8583 146.418 72.7881C146.408 72.7179 146.348 72.5876 146.348 72.5776C146.348 72.3871 146.659 72.4072 146.789 72.4372C146.91 72.8382 147.22 73.2392 147.571 73.1289C147.571 73.1289 147.571 73.1289 147.571 73.0688C147.702 72.748 147.391 72.4773 147.1 72.2869ZM147.22 72.6177V72.5274C147.317 72.5853 147.399 72.6641 147.461 72.758C147.461 72.9585 147.23 72.6778 147.19 72.6177H147.22Z" fill="#455A64"/>
<path opacity="0.25" d="M151.11 69.5802C151.116 69.5538 151.116 69.5265 151.11 69.5C151.06 69.2895 150.819 69.4499 150.779 69.5702C150.739 69.6905 150.779 69.7406 150.779 69.8308C150.779 69.9211 150.91 69.9111 150.709 69.9712C150.629 69.976 150.549 69.976 150.468 69.9712C150.405 69.9564 150.34 69.9589 150.278 69.9783C150.216 69.9977 150.161 70.0333 150.118 70.0815C149.987 70.1917 150.308 70.2419 149.927 70.1817C149.827 70.1666 149.726 70.1666 149.626 70.1817C149.486 70.1817 149.416 70.2519 149.436 70.4123C149.456 70.5727 149.596 70.5727 149.596 70.6128C149.596 70.9436 149.235 70.6629 149.105 70.6128C148.975 70.5626 149.015 70.6128 149.015 70.6629C149.015 70.713 149.125 70.8834 148.885 70.9035C148.885 70.9035 148.694 70.8133 148.644 70.8133C148.594 70.8133 148.343 71.0137 148.143 70.9937C148.136 70.9993 148.131 71.0063 148.128 71.0141C148.124 71.0218 148.122 71.0303 148.122 71.0388C148.122 71.0473 148.124 71.0558 148.128 71.0636C148.131 71.0713 148.136 71.0783 148.143 71.0839C148.143 71.2343 148.273 71.3245 147.972 71.4548H147.621C147.541 71.4548 147.621 71.5952 147.621 71.5952C147.621 71.5952 148.223 71.8057 148.363 71.5952C148.504 71.3847 148.263 71.3045 148.313 71.2142C148.313 71.2744 148.584 71.134 148.614 71.124C148.687 71.0902 148.765 71.0666 148.844 71.0538C148.895 71.0538 148.925 71.124 148.975 71.124C149.025 71.124 149.095 71.124 149.145 71.124C149.195 71.124 149.205 71.0238 149.225 71.0037C149.245 70.9837 149.165 70.9335 149.225 70.8934C149.286 70.8533 149.366 70.9436 149.436 70.9636C149.506 70.9837 149.727 71.0839 149.817 70.9636C149.907 70.8433 149.717 70.703 149.737 70.5927C149.757 70.4824 150.118 70.5326 150.278 70.4323C150.285 70.4201 150.289 70.4063 150.289 70.3922C150.289 70.3781 150.285 70.3643 150.278 70.3521C150.188 70.0313 150.779 70.282 150.97 70.2519C150.986 70.2495 151.002 70.241 151.013 70.2281C151.024 70.2152 151.03 70.1987 151.03 70.1817C151 70.0429 151 69.8995 151.03 69.7607L151.11 69.5802Z" fill="#455A64"/>
</g>
<path opacity="0.1" d="M154.779 89.4289C155.06 90.2008 155.882 90.682 157.255 90.8624L176.763 79.4344L179.299 76.8681C179.335 76.8389 179.36 76.7974 179.368 76.7514C179.375 76.7055 179.366 76.6582 179.341 76.6187C179.317 76.5791 179.278 76.55 179.233 76.5369C179.189 76.5237 179.141 76.5275 179.099 76.5473L174.427 78.051L154.779 89.4289Z" fill="black"/>
<path d="M174.608 76.3569L178.768 75.5349C178.794 75.5312 178.82 75.5353 178.843 75.5468C178.867 75.5582 178.887 75.5765 178.899 75.5992C178.912 75.6219 178.918 75.648 178.916 75.6741C178.914 75.7002 178.904 75.725 178.888 75.7454L176.061 78.9433L174.608 76.3569Z" fill="#FFA8A7"/>
<path d="M178.888 75.7454C178.904 75.725 178.914 75.7002 178.916 75.6741C178.918 75.648 178.912 75.6219 178.899 75.5992C178.887 75.5765 178.867 75.5582 178.843 75.5468C178.82 75.5353 178.794 75.5312 178.768 75.5349L177.956 75.6953C178.065 75.7662 178.153 75.865 178.211 75.9812C178.269 76.0975 178.295 76.2272 178.286 76.3569V76.4371L178.888 75.7454Z" fill="#263238"/>
<path d="M160.563 87.8351L160.904 87.6346L161.315 87.404L176.061 78.9433C176.201 78.4883 176.162 77.9969 175.951 77.5699C175.838 77.2766 175.657 77.014 175.424 76.8033C175.19 76.5926 174.911 76.4397 174.608 76.357L159.871 84.8077L159.09 85.2588C159.611 84.9981 161.135 87.5644 160.563 87.8351Z" fill="#0082F4"/>
<path d="M161.866 87.0732L162.618 86.6321C162.849 86.5118 162.718 85.9705 162.458 85.3991C162.107 84.6372 161.455 83.9054 161.124 84.0658L160.573 84.3866L160.373 84.5069C160.673 84.3465 161.375 85.0783 161.696 85.8402C161.947 86.3815 162.077 86.9128 161.886 87.0531L161.866 87.0732Z" fill="#EBEBEB"/>
<path d="M162.047 86.9829C162.568 86.7022 161.044 84.1359 160.563 84.4166L159.801 84.8477C160.323 84.577 161.806 87.1433 161.295 87.414L162.047 86.9829Z" fill="#0082F4"/>
<path d="M160.563 87.835L161.315 87.4039C161.826 87.1333 160.413 84.6472 159.871 84.8076L159.12 85.2487C159.611 84.998 161.135 87.5643 160.563 87.835Z" fill="#EBEBEB"/>
<path opacity="0.15" d="M178.898 75.6151L178.768 75.5349L175.76 77.189L160.132 86.1309C160.132 86.1309 160.132 86.1309 160.062 86.1309C160.503 86.8225 160.834 87.6846 160.543 87.845L160.884 87.6446L161.295 87.414L176.041 78.9533L178.868 75.7554C178.889 75.7395 178.903 75.7166 178.909 75.6908C178.914 75.6651 178.911 75.6382 178.898 75.6151Z" fill="black"/>
<path d="M157.385 89.6494L160.563 87.835C160.794 87.7147 160.663 87.1733 160.413 86.6019C160.062 85.8501 159.41 85.1083 159.089 85.2587L155.882 87.0731C155.25 87.434 155.832 88.8174 156.543 89.4289C156.643 89.5484 156.778 89.6339 156.929 89.6734C157.08 89.7129 157.239 89.7045 157.385 89.6494Z" fill="#F28F8F"/>
<path opacity="0.1" d="M157.566 88.6671C157.487 88.3226 157.329 88.0013 157.104 87.7282C156.88 87.4551 156.595 87.2377 156.273 87.0932C156.194 87.0635 156.108 87.0535 156.025 87.064C155.941 87.0745 155.861 87.1051 155.791 87.1534C155.31 87.6045 155.872 88.8676 156.543 89.449C156.644 89.5617 156.776 89.6418 156.922 89.6793C157.069 89.7168 157.223 89.7099 157.365 89.6595C157.606 89.5192 157.696 89.1483 157.566 88.6671Z" fill="black"/>
<path opacity="0.1" d="M217.533 37.8527L188.361 21.0115C188.107 20.8636 187.818 20.7856 187.524 20.7856C187.23 20.7856 186.941 20.8636 186.687 21.0115L136.073 50.233C136.017 50.267 135.971 50.3148 135.939 50.3718C135.906 50.4289 135.89 50.4933 135.89 50.5588C135.89 50.6243 135.906 50.6887 135.939 50.7458C135.971 50.8028 136.017 50.8507 136.073 50.8846L165.525 67.9263L217.533 37.8527Z" fill="black"/>
<path d="M215.357 34.304V34.9455C215.356 35.4192 215.23 35.8843 214.993 36.2941C214.755 36.704 214.414 37.0444 214.004 37.2812L166.889 64.4879C166.482 64.729 166.018 64.8539 165.545 64.8487C165.07 64.8493 164.604 64.7248 164.192 64.4879L138.479 49.7217C138.068 49.4856 137.727 49.1454 137.489 48.7354C137.251 48.3253 137.126 47.8599 137.126 47.386V46.4838C137.125 46.543 137.141 46.6013 137.171 46.6525C137.201 46.7036 137.244 46.7457 137.296 46.7745L165.515 63.0744L215.357 34.304Z" fill="#37474F"/>
<path d="M215.357 34.304L187.409 18.1645C187.164 18.0266 186.888 17.9541 186.607 17.9541C186.326 17.9541 186.05 18.0266 185.805 18.1645L137.306 46.173C137.254 46.2055 137.212 46.2506 137.182 46.3041C137.152 46.3575 137.137 46.4177 137.137 46.4788C137.137 46.5399 137.152 46.6 137.182 46.6535C137.212 46.707 137.254 46.7521 137.306 46.7845L165.525 63.0744L215.357 34.304Z" fill="#455A64"/>
<path d="M165.265 60.7086L150.188 52.0073L194.276 26.555L209.423 35.2062L165.265 60.7086Z" fill="#37474F"/>
<path d="M209.423 35.2062L208.851 35.537L194.266 27.2166L150.769 52.3381L150.188 52.0073L194.266 26.555L209.423 35.2062Z" fill="#263238"/>
<path d="M157.856 36.5194L158.137 36.6798L165.525 40.9402L178.667 33.3516L178.938 33.2012L171.269 28.7704L157.856 36.5194Z" fill="#263238"/>
<path d="M158.137 36.6798L165.525 40.9402L178.667 33.3517L171.269 29.0912L158.137 36.6798Z" fill="#37474F"/>
<path d="M165.525 63.0744V64.8688C165.997 64.8676 166.46 64.7431 166.869 64.5079L213.984 37.2913C214.395 37.0584 214.738 36.7203 214.975 36.3116C215.213 35.903 215.338 35.4384 215.337 34.9656V34.304L165.525 63.0744Z" fill="#0082F4"/>
<path d="M165.525 63.0744V64.8688C165.997 64.8676 166.46 64.7431 166.869 64.5079L213.984 37.2913C214.395 37.0584 214.738 36.7203 214.975 36.3116C215.213 35.903 215.338 35.4384 215.337 34.9656V34.304L165.525 63.0744Z" fill="#263238"/>
<path d="M166.287 63.4754C166.732 63.6473 167.209 63.7175 167.684 63.6811C168.16 63.6447 168.621 63.5025 169.034 63.2649L215.969 36.1987C216.375 35.9622 216.725 35.6396 216.994 35.2533C217.262 34.8671 217.443 34.4267 217.523 33.9632L222.655 3.31815C222.67 3.14472 222.67 2.9703 222.655 2.79687C222.657 2.37547 222.575 1.95794 222.413 1.56884C222.251 1.17975 222.013 0.826978 221.713 0.53133L172.943 28.6903C172.643 28.8656 172.384 29.1045 172.185 29.3901C171.985 29.6758 171.851 30.0014 171.791 30.3443L166.287 63.4754Z" fill="#37474F"/>
<path d="M165.525 63.0744L165.846 63.2649C165.987 63.3469 166.135 63.4173 166.287 63.4754L171.831 30.3142C171.891 29.9713 172.026 29.6457 172.225 29.36C172.424 29.0744 172.683 28.8355 172.984 28.6602L221.753 0.501227C221.558 0.306981 221.339 0.138531 221.101 0L172.232 28.2191C171.93 28.3923 171.671 28.6307 171.473 28.9169C171.275 29.203 171.144 29.5297 171.089 29.8731L165.525 63.0744Z" fill="#455A64"/>
<path d="M172.292 29.2917L171.53 28.8507C171.306 29.1453 171.155 29.4888 171.089 29.8531L165.525 63.0544L165.846 63.2449C165.987 63.3269 166.135 63.3973 166.287 63.4554L171.831 30.2942C171.904 29.9285 172.062 29.5851 172.292 29.2917Z" fill="#263238"/>
<path d="M192.712 35.1861C193.063 33.1812 195.178 30.4144 197.443 29.1012C199.709 27.788 201.273 28.3995 200.932 30.4445C200.591 32.4895 198.466 35.2262 196.2 36.5294C193.935 37.8326 192.371 37.2411 192.712 35.1861Z" fill="#0082F4"/>
<path opacity="0.1" d="M120.425 93.92L91.2534 77.0487C90.9993 76.9008 90.7104 76.8228 90.4164 76.8228C90.1223 76.8228 89.8335 76.9008 89.5793 77.0487L38.9754 106.27C38.9192 106.303 38.8726 106.35 38.8402 106.406C38.8078 106.462 38.7907 106.526 38.7907 106.591C38.7907 106.656 38.8078 106.72 38.8402 106.776C38.8726 106.832 38.9192 106.879 38.9754 106.912L68.4175 123.954L120.425 93.92Z" fill="black"/>
<path d="M118.25 90.3713V91.0229C118.25 91.4958 118.126 91.9606 117.891 92.3705C117.655 92.7805 117.315 93.1212 116.906 93.3586L69.7909 120.575C69.3828 120.812 68.9193 120.936 68.4476 120.936C67.9728 120.935 67.5065 120.811 67.0943 120.575L41.4014 105.789C40.9923 105.552 40.6529 105.211 40.4171 104.801C40.1813 104.391 40.0575 103.926 40.0581 103.453V102.541C40.0581 102.602 40.0738 102.661 40.1037 102.714C40.1336 102.767 40.1766 102.811 40.2285 102.842L68.4175 119.152L118.25 90.3713Z" fill="#37474F"/>
<path d="M118.25 90.3713L90.3011 74.2318C90.0579 74.089 89.7811 74.0137 89.4991 74.0137C89.2172 74.0137 88.9403 74.089 88.6972 74.2318L40.2085 102.23C40.1544 102.262 40.1096 102.308 40.0785 102.362C40.0474 102.417 40.0311 102.478 40.0311 102.541C40.0311 102.604 40.0474 102.665 40.0785 102.72C40.1096 102.774 40.1544 102.82 40.2085 102.852L68.4175 119.152L118.25 90.3713Z" fill="#455A64"/>
<path d="M68.1569 116.766L53.08 108.075L97.1679 82.6223L112.325 91.2735L68.1569 116.766Z" fill="#37474F"/>
<path d="M112.325 91.2735L111.744 91.6043L97.1679 83.2839L53.6614 108.405L53.09 108.075L97.1679 82.6223L112.325 91.2735Z" fill="#263238"/>
<path d="M60.7487 92.5767L61.0294 92.7371L68.4175 97.0075L81.5596 89.4189L81.8303 89.2686L74.1615 84.8377L60.7487 92.5767Z" fill="#263238"/>
<path d="M61.0294 92.7371L68.4175 97.0076L81.5597 89.419L74.1616 85.1586L61.0294 92.7371Z" fill="#37474F"/>
<path d="M68.4175 119.152V120.946C68.8892 120.946 69.3527 120.822 69.7608 120.585L116.876 93.3686C117.285 93.1313 117.625 92.7906 117.86 92.3806C118.096 91.9706 118.22 91.5059 118.219 91.0329V90.3813L68.4175 119.152Z" fill="#0082F4"/>
<path d="M68.4175 119.152V120.946C68.8892 120.946 69.3527 120.822 69.7608 120.585L116.876 93.3686C117.285 93.1313 117.625 92.7906 117.86 92.3806C118.096 91.9706 118.22 91.5059 118.219 91.0329V90.3813L68.4175 119.152Z" fill="#263238"/>
<path d="M69.1794 119.543C69.6247 119.713 70.1025 119.782 70.5777 119.744C71.053 119.705 71.5137 119.561 71.9261 119.322L118.861 92.256C119.267 92.0217 119.617 91.7008 119.886 91.3162C120.154 90.9317 120.335 90.4927 120.415 90.0305L125.557 59.3855C125.567 59.2119 125.567 59.0378 125.557 58.8642C125.556 58.0109 125.218 57.1928 124.615 56.5886L75.9259 84.7275C75.6247 84.9013 75.366 85.1398 75.1683 85.4259C74.9707 85.712 74.8391 86.0384 74.7831 86.3816L69.1794 119.543Z" fill="#37474F"/>
<path d="M68.4175 119.152L68.7383 119.332L69.1794 119.553L74.733 86.3916C74.789 86.0484 74.9205 85.722 75.1182 85.4359C75.3158 85.1498 75.5746 84.9113 75.8758 84.7375L124.655 56.5686C124.457 56.3805 124.239 56.2157 124.004 56.0774L75.1239 84.2864C74.8253 84.4608 74.5683 84.6982 74.3709 84.9822C74.1735 85.2661 74.0405 85.5897 73.9811 85.9304L68.4175 119.152Z" fill="#455A64"/>
<path d="M75.1841 85.349L74.4322 84.918C74.1997 85.2087 74.0445 85.5536 73.9811 85.9204L68.4175 119.152L68.7383 119.332L69.1794 119.553L74.733 86.3916C74.7932 86.0116 74.9484 85.653 75.1841 85.349Z" fill="#263238"/>
<path d="M95.6141 91.2535C95.9549 89.1985 98.0701 86.4718 100.346 85.1686C102.621 83.8654 104.175 84.4569 103.824 86.5119C103.473 88.5669 101.368 91.2836 99.0926 92.5968C96.817 93.91 95.2632 93.3086 95.6141 91.2535Z" fill="#0082F4"/>
<path opacity="0.1" d="M35.8878 121.036C32.4394 122.941 32.4394 126.049 35.8878 127.953C37.8338 128.893 39.967 129.382 42.1281 129.382C44.2893 129.382 46.4224 128.893 48.3684 127.953C51.8168 126.039 51.8168 122.941 48.3684 121.036C46.4224 120.096 44.2893 119.608 42.1281 119.608C39.967 119.608 37.8338 120.096 35.8878 121.036Z" fill="black"/>
<path d="M48.2581 124.214C47.2557 122.881 44.7596 121.929 41.7723 121.878H41.9928C44.9601 121.878 47.4562 122.861 48.2581 124.214Z" fill="#455A64"/>
<path d="M47.4862 109.749C43.8714 108.689 40.0155 108.787 36.4592 110.029C33.502 111.242 33.5521 113.087 36.5695 114.139C40.1693 115.185 44.0047 115.086 47.5464 113.859C50.644 112.646 50.6039 110.801 47.4862 109.749Z" fill="#0082F4"/>
<g opacity="0.3">
<path opacity="0.3" d="M47.4862 109.749C43.8714 108.689 40.0155 108.787 36.4592 110.029C33.502 111.242 33.5521 113.087 36.5695 114.139C40.1693 115.185 44.0047 115.086 47.5464 113.859C50.644 112.646 50.6039 110.801 47.4862 109.749Z" fill="black"/>
</g>
<path d="M49.8621 105.939L34.0434 106.37L35.7275 124.986C35.8177 125.658 36.4693 126.309 37.7324 126.8C40.8285 127.831 44.1882 127.742 47.2256 126.55C48.4687 126.009 49.1002 125.317 49.1604 124.635L49.8621 105.939Z" fill="#FAFAFA"/>
<path d="M34.0233 106.37L34.3641 110.15C34.7866 110.421 35.2369 110.646 35.7074 110.821C39.8242 112.135 44.2637 112.022 48.3083 110.501L48.7193 110.29C49.0668 110.12 49.4018 109.926 49.7217 109.709L49.8621 105.939L34.0233 106.37Z" fill="#EBEBEB"/>
<path d="M50.8645 106.471L50.7843 103.614L48.9398 103.664C48.6892 103.543 48.4186 103.423 48.1278 103.313C44.0069 102 39.5634 102.117 35.517 103.644C35.254 103.756 34.9994 103.886 34.7551 104.035H32.9607L33.0309 106.892C33.0309 107.814 33.9431 108.726 35.6673 109.388C39.7841 110.701 44.2236 110.588 48.2682 109.067C50.0225 108.345 50.8645 107.393 50.8645 106.471Z" fill="#0082F4"/>
<g opacity="0.2">
<path opacity="0.2" d="M50.8645 106.471L50.7843 103.614L48.9398 103.664C48.6892 103.543 48.4186 103.423 48.1278 103.313C44.0069 102 39.5634 102.117 35.517 103.644C35.254 103.756 34.9994 103.886 34.7551 104.035H32.9607L33.0309 106.892C33.0309 107.814 33.9431 108.726 35.6673 109.388C39.7841 110.701 44.2236 110.588 48.2682 109.067C50.0225 108.345 50.8645 107.393 50.8645 106.471Z" fill="black"/>
</g>
<path d="M48.0677 101.108C43.9494 99.7995 39.5107 99.916 35.4668 101.438C32.0785 102.942 32.1387 105.238 35.5971 106.571C39.7151 107.881 44.1544 107.764 48.198 106.24C51.7066 104.746 51.6464 102.451 48.0677 101.108Z" fill="#0082F4"/>
<path d="M49.1303 102.972L48.4987 100.636L43.9676 100.757C42.4681 100.611 40.9563 100.651 39.4666 100.877L35.0759 100.987L34.5646 103.353C34.294 104.215 34.9957 105.087 36.6698 105.699C40.0689 106.736 43.7124 106.645 47.0552 105.438C48.7694 104.736 49.4511 103.824 49.1303 102.972Z" fill="#0082F4"/>
<path opacity="0.2" d="M49.1303 102.972L48.4987 100.636L43.9676 100.757C42.4681 100.611 40.9563 100.651 39.4666 100.877L35.0759 100.987L34.5646 103.353C34.294 104.215 34.9957 105.087 36.6698 105.699C40.0689 106.736 43.7124 106.645 47.0552 105.438C48.7694 104.736 49.4511 103.824 49.1303 102.972Z" fill="black"/>
<path d="M46.4938 99.1929C43.3633 98.2923 40.0316 98.3763 36.9505 99.4335C34.3842 100.436 34.4243 102.06 37.0407 102.962C40.1715 103.86 43.5024 103.776 46.584 102.722C49.2405 101.669 49.2005 100.105 46.4938 99.1929Z" fill="#0082F4"/>
<path d="M47.6266 100.927C47.5631 101.066 47.4625 101.184 47.3359 101.268C47.0031 101.51 46.6389 101.706 46.2533 101.849C44.8164 102.358 43.3063 102.629 41.7823 102.651C40.2809 102.717 38.7794 102.527 37.3414 102.09C36.9602 101.966 36.5989 101.787 36.2688 101.559C36.0483 101.388 35.9781 101.258 35.9781 101.228C35.9781 101.198 36.1986 100.737 37.3013 100.296C38.7098 99.7858 40.1943 99.518 41.6921 99.5037C43.2164 99.4417 44.7405 99.6314 46.2031 100.065C47.3259 100.446 47.6166 100.847 47.6266 100.927Z" fill="#0082F4"/>
<g opacity="0.5">
<path opacity="0.5" d="M47.6266 100.927C47.5631 101.066 47.4625 101.184 47.3359 101.268C47.0031 101.51 46.6389 101.706 46.2533 101.849C44.8164 102.358 43.3063 102.629 41.7823 102.651C40.2809 102.717 38.7794 102.527 37.3414 102.09C36.9602 101.966 36.5989 101.787 36.2688 101.559C36.0483 101.388 35.9781 101.258 35.9781 101.228C35.9781 101.198 36.1986 100.737 37.3013 100.296C38.7098 99.7858 40.1943 99.518 41.6921 99.5037C43.2164 99.4417 44.7405 99.6314 46.2031 100.065C47.3259 100.446 47.6166 100.847 47.6266 100.927Z" fill="black"/>
</g>
<path d="M47.3359 101.268C47.0031 101.51 46.6388 101.706 46.2532 101.849C44.8163 102.358 43.3063 102.629 41.7823 102.651C40.2809 102.717 38.7793 102.527 37.3414 102.09C36.9601 101.965 36.5988 101.787 36.2688 101.559C36.5688 101.309 36.9074 101.109 37.2712 100.967C38.6834 100.458 40.1711 100.191 41.672 100.175C43.1963 100.113 44.7204 100.303 46.1831 100.737C46.5917 100.855 46.9803 101.034 47.3359 101.268Z" fill="#0082F4"/>
<g opacity="0.2">
<path opacity="0.2" d="M47.3359 101.268C47.0031 101.51 46.6388 101.706 46.2532 101.849C44.8163 102.358 43.3063 102.629 41.7823 102.651C40.2809 102.717 38.7793 102.527 37.3414 102.09C36.9601 101.965 36.5988 101.787 36.2688 101.559C36.5688 101.309 36.9074 101.109 37.2712 100.967C38.6834 100.458 40.1711 100.191 41.672 100.175C43.1963 100.113 44.7204 100.303 46.1831 100.737C46.5917 100.855 46.9803 101.034 47.3359 101.268Z" fill="black"/>
</g>
<g opacity="0.5">
<path opacity="0.5" d="M44.6493 101.398C44.9414 101.195 45.3004 101.113 45.6518 101.168C45.8523 101.278 45.7019 101.549 45.321 101.779C45.1703 101.891 44.9976 101.969 44.8145 102.009C44.6313 102.048 44.4417 102.049 44.2584 102.01C44.118 101.91 44.2684 101.629 44.6493 101.398Z" fill="black"/>
</g>
<path d="M34.9455 118.971C34.9455 119.673 35.6773 120.355 37.1008 120.856C40.4934 121.844 44.1098 121.75 47.4461 120.585C48.8897 120.014 49.5914 119.302 49.5814 118.58L49.852 111.724C49.852 112.465 49.1202 113.227 47.5865 113.839C44.0448 115.066 40.2094 115.165 36.6096 114.119C35.0959 113.588 34.334 112.866 34.314 112.115L34.9455 118.971Z" fill="#0082F4"/>
<path d="M39.8375 119.252C39.5952 118.886 39.3775 118.504 39.1859 118.109C38.7776 117.395 38.1267 116.851 37.3514 116.576C37.3006 116.558 37.2451 116.559 37.1952 116.579C37.1454 116.6 37.1047 116.638 37.0808 116.686C36.9428 117.156 36.9366 117.655 37.0628 118.129C37.189 118.602 37.4428 119.032 37.7964 119.371C38.1501 119.71 38.5901 119.946 39.0684 120.052C39.5468 120.158 40.0451 120.131 40.5092 119.974C40.5092 119.974 40.5092 119.864 40.5092 119.844C40.246 119.696 40.0171 119.494 39.8375 119.252Z" fill="#37474F"/>
<path d="M37.7324 116.345C38.1492 116.501 38.5359 116.728 38.8752 117.017C39.232 117.315 39.5194 117.688 39.7173 118.109C39.9497 118.638 40.3159 119.098 40.7799 119.442C40.8035 119.46 40.8303 119.472 40.8588 119.479C40.8873 119.486 40.9169 119.487 40.9458 119.483C40.9747 119.478 41.0024 119.468 41.0273 119.452C41.0522 119.437 41.0737 119.416 41.0906 119.392C41.3273 118.913 41.3946 118.368 41.2818 117.845C41.1689 117.323 40.8825 116.854 40.4691 116.515C40.1217 116.145 39.6678 115.892 39.1703 115.792C38.6727 115.691 38.1562 115.748 37.6923 115.954C37.6582 115.976 37.6307 116.007 37.6131 116.044C37.5955 116.08 37.5884 116.121 37.5926 116.162C37.5967 116.202 37.612 116.241 37.6367 116.273C37.6613 116.305 37.6945 116.33 37.7324 116.345Z" fill="#37474F"/>
</svg>
