<svg width="464" height="209" viewBox="0 0 464 209" fill="none" xmlns="http://www.w3.org/2000/svg">
<path d="M399.931 174.383C435.315 174.383 464 157.821 464 137.391C464 116.962 435.315 100.4 399.931 100.4C364.546 100.4 335.861 116.962 335.861 137.391C335.861 157.821 364.546 174.383 399.931 174.383Z" fill="#EBEBEB"/>
<path d="M186.906 208.503L69.0708 140.472L312.374 0L430.7 67.7504L186.906 208.503Z" fill="#EBEBEB"/>
<path d="M0 91.2075L109.703 154.547L202.761 100.36L93.4482 37.2512L0 91.2075Z" fill="#EBEBEB"/>
<path d="M147.525 44.9736C161.529 57.4573 181.395 70.1611 200.981 79.684C202.712 80.4192 204.643 80.5392 206.452 80.0241C233.54 70.6513 245.524 64.1193 263.229 47.3543C263.509 47.1131 263.728 46.8101 263.87 46.4692C264.011 46.1284 264.072 45.7591 264.045 45.3909C264.019 45.0228 263.907 44.6658 263.719 44.3485C263.53 44.0311 263.27 43.7622 262.959 43.5631C243.714 29.939 226.058 17.3052 200.36 12.8639C198.438 12.6417 196.492 12.7773 194.619 13.264C179.344 17.3852 159.378 27.3882 147.284 40.7523C146.759 41.3452 146.49 42.1216 146.535 42.9124C146.58 43.7031 146.936 44.444 147.525 44.9736Z" fill="#EBEBEB"/>
</svg>
