<svg width="91" height="211" viewBox="0 0 91 211" fill="none" xmlns="http://www.w3.org/2000/svg">
<path d="M84.4728 166.873C84.9534 169.026 85.8043 171.508 86.6053 175.934C87.4062 180.359 86.4551 180.569 89.789 191.582C91.7913 198.199 91.3308 200.132 88.2572 206.309C84.9334 212.976 78.4659 211.825 75.2421 205.247C72.4789 199.631 73.0196 196.938 72.7893 191.021C72.559 185.104 72.4189 183.372 71.9683 178.687C71.5779 174.562 71.8082 171.679 71.4277 168.555L84.4728 166.873Z" fill="#37474F"/>
<path d="M86.4451 183.042C85.4439 177.335 84.9934 171.398 84.5429 167.534C83.5417 158.864 84.8132 142.505 84.1825 127.878L61.6864 126.697C62.6275 131.773 68.6946 155.09 71.4477 168.916C71.4477 168.916 73.0396 187.757 74.5713 196.027C74.615 196.271 74.7151 196.501 74.8635 196.7C75.012 196.898 75.2047 197.059 75.4264 197.17C75.6481 197.281 75.8926 197.339 76.1404 197.338C76.3883 197.338 76.6326 197.28 76.854 197.168C79.9438 195.664 83.4679 195.31 86.7955 196.167C87.0409 196.245 87.3017 196.263 87.5554 196.218C87.809 196.173 88.048 196.067 88.2518 195.91C88.4556 195.752 88.6182 195.548 88.7255 195.313C88.8328 195.079 88.8816 194.822 88.8679 194.565C88.6977 191.472 87.226 187.327 86.4451 183.042Z" fill="#9E6767"/>
<path d="M16.4741 124.915C16.0036 147.361 15.7833 158.163 15.2927 162.959C14.8614 167.035 13.968 171.048 12.6297 174.922C11.5184 178.336 9.6262 182.932 7.85415 185.144C7.85415 185.144 2.74821 190.991 3.9496 191.532C5.15099 192.072 16.3139 192.843 21.2296 191.161C26.1453 189.479 26.5258 185.234 27.9374 177.475C29.349 169.716 31.1511 159.024 31.1511 159.024C30.7691 158.066 30.5492 157.051 30.5004 156.021C30.9308 151.455 32.9031 142.655 34.0044 135.307L16.4741 124.915Z" fill="#9E6767"/>
<path d="M35.2659 169.626C35.2659 172.149 33.7141 173.631 33.2635 176.454C32.7299 179.706 32.5186 183.002 32.6328 186.296C32.743 190.3 32.763 190.881 32.763 190.881H31.5115C31.5115 190.881 31.3513 185.064 31.2712 182.521C31.1911 179.978 30.9008 178.106 29.6694 177.866C29.6694 177.906 29.2389 169.796 35.2659 169.626Z" fill="#263238"/>
<path d="M30.8408 157.763C31.7331 160.057 32.7938 162.282 34.0144 164.42C34.7171 165.607 35.167 166.926 35.3359 168.295C35.4115 168.906 35.347 169.527 35.1476 170.109C34.9481 170.692 34.6189 171.222 34.1846 171.659C33.1746 172.693 32.2629 173.819 31.4615 175.023C30.0198 177.115 27.3367 182.031 26.6659 185.375C25.9951 188.718 25.6648 191.752 22.8215 193.524C20.6189 194.906 11.4383 197.068 6.80293 197.529C0.425546 198.169 -1.33648 195.156 0.966185 192.623C3.26885 190.09 7.17337 185.735 7.88419 185.184C9.90523 184.851 11.9785 185.062 13.8911 185.795C17.5153 187.207 18.7367 189.239 22.421 187.227C25.7549 185.405 26.4256 179.087 26.2655 170.037C25.9351 156.051 30.8408 157.763 30.8408 157.763Z" fill="#37474F"/>
<path d="M71.1474 0C73.1497 4.00463 74.4712 6.05701 77.0342 11.4533C79.5972 16.8495 81.7697 21.4048 82.04 38.9251C82.5906 70.1612 82.5506 95.9911 82.5506 95.9911C82.7608 98.7443 84.8432 101.137 85.1436 116.845C85.3739 129.37 84.1424 157.983 84.1424 157.983C84.1424 157.983 77.2445 162.598 69.4454 159.605C65.2105 145.248 57.7719 115.514 54.7684 101.828C51.1242 85.0684 46.9994 63.8839 46.9994 63.8839L40.3818 95.1101C40.3818 95.1101 41.2027 101.958 39.2004 112.801C37.6787 121.08 31.6417 149.673 31.6417 149.673C29.1245 150.796 26.3833 151.327 23.6288 151.225C20.8744 151.122 18.1801 150.39 15.7533 149.083C15.7533 149.083 14.7521 119.709 14.7521 93.5783C14.7521 67.4481 14.5018 23.9878 20.9793 0.971125C31.2512 6.63768 62.3372 5.84677 71.1474 0Z" fill="#455A64"/>
<path d="M61.6864 56.9259C62.0168 61.1207 62.3272 65.3156 62.6876 69.5104C63.048 73.7053 63.4284 77.9001 63.8589 82.085C64.7299 90.4547 65.5709 98.8344 66.8624 107.114C68.1539 115.394 69.6857 123.703 71.1173 132.003C72.549 140.302 74.1208 148.582 75.2822 156.922L70.3665 132.153C68.7646 123.883 67.2329 115.604 65.8713 107.274C64.6899 98.9145 63.869 90.5348 63.1281 82.1451C62.3873 73.7553 61.9067 65.3456 61.6864 56.9259Z" fill="#37474F"/>
<path d="M22.7314 54.1627C22.2007 61.7615 21.7803 69.3602 21.4198 76.9691C21.0594 84.5779 20.7891 92.1767 20.8392 99.7855L20.9092 122.632V145.478C20.4988 137.87 20.2685 130.261 20.0883 122.642C19.9081 115.023 19.828 107.404 19.838 99.7855C19.848 92.1666 20.1584 84.5278 20.669 76.929C21.1796 69.3302 21.7903 61.7214 22.7314 54.1627Z" fill="#37474F"/>
<path d="M47.0395 63.884L43.175 36.4722C36.2566 35.3975 29.9484 31.8902 25.3844 26.5808C25.3844 26.5808 28.2277 34.6601 39.2004 38.9051L43.7557 62.6025L40.3818 95.1101L47.0395 63.884Z" fill="#37474F"/>
</svg>
