<svg width="33" height="65" viewBox="0 0 33 65" fill="none" xmlns="http://www.w3.org/2000/svg">
<path opacity="0.15" d="M2.80226 0C7.8788 1.41128 14.2245 2.69057 17.3415 6.60966C19.4838 9.30023 20.8747 11.7877 24.4486 22.7124C28.7738 35.9114 32.0228 45.4655 32.4086 47.3032C33.009 50.0196 32.7609 52.8548 31.6979 55.4256C30.6826 58.1162 27.3828 65 27.3828 65C27.3828 65 26.3675 61.4363 20.9965 59.9234C18.0865 58.9767 14.9683 58.8711 12.0009 59.6189L13.6356 51.6588L5.70602 30.8247C1.99512 25.0476 0.015157 18.3291 0 11.4628C0.0203061 2.48751 2.80226 0 2.80226 0Z" fill="black"/>
</svg>
